<svg xmlns="http://www.w3.org/2000/svg" viewBox="0 0 512 512" style="enable-background:new 0 0 512 512" xml:space="preserve"><linearGradient id="a" gradientUnits="userSpaceOnUse" x1="17.236" y1="42.145" x2="450.898" y2="475.807"><stop offset="0" style="stop-color:#fef050"></stop><stop offset=".035" style="stop-color:#fae73d"></stop><stop offset=".093" style="stop-color:#f5db22"></stop><stop offset=".154" style="stop-color:#f2d20f"></stop><stop offset=".215" style="stop-color:#f0cd04"></stop><stop offset=".281" style="stop-color:#efcb00"></stop><stop offset=".668" style="stop-color:#d99544"></stop><stop offset=".888" style="stop-color:#cd6f3c"></stop><stop offset="1" style="stop-color:#c34435"></stop></linearGradient><path style="fill:url(#a)" d="M149.771 454.414h176.141c14.511 0 26.316-11.805 26.316-26.315V339.41c55.676-1.332 100.558-47.035 100.558-103.026 0-14.295-2.872-28.135-8.537-41.135a2.5 2.5 0 0 0-4.584 1.998c5.389 12.367 8.121 25.535 8.121 39.138 0 54.069-43.988 98.058-98.058 98.058s-98.059-43.989-98.059-98.058 43.989-98.058 98.059-98.058c19.808 0 38.892 5.876 55.188 16.994a2.5 2.5 0 0 0 2.819-4.131c-16.443-11.217-35.587-17.342-55.507-17.816V97.402c0-14.511-11.806-26.316-26.316-26.316H149.771c-14.51 0-26.315 11.805-26.315 26.316v330.697c-.001 14.51 11.804 26.315 26.315 26.315zM276.54 308.865H160.174c-4.136 0-7.5-3.364-7.5-7.5s3.364-7.5 7.5-7.5h104.055a103.715 103.715 0 0 0 12.311 15zm-26.207-99.733h-90.159c-4.136 0-7.5-3.364-7.5-7.5s3.364-7.5 7.5-7.5h95.559a102.183 102.183 0 0 0-5.4 15zm31.109-49.866H160.174c-4.136 0-7.5-3.364-7.5-7.5s3.364-7.5 7.5-7.5h143.38a103.42 103.42 0 0 0-22.112 15zM128.455 97.402c0-11.753 9.562-21.316 21.315-21.316h176.141c11.754 0 21.316 9.562 21.316 21.316v9.705H128.455v-9.705zm0 14.704h218.772v21.25a102.5 102.5 0 0 0-31.984 5.909h-155.07c-6.893 0-12.5 5.608-12.5 12.5s5.607 12.5 12.5 12.5h116.009a103.599 103.599 0 0 0-18.026 24.867h-97.984c-6.893 0-12.5 5.607-12.5 12.5s5.607 12.5 12.5 12.5h88.921a103.022 103.022 0 0 0-2.393 24.866h-86.528c-6.893 0-12.5 5.607-12.5 12.5s5.607 12.5 12.5 12.5h90.258a102.486 102.486 0 0 0 10.636 24.866H160.174c-6.893 0-12.5 5.607-12.5 12.5s5.607 12.5 12.5 12.5h121.68c17.56 15.401 40.377 24.946 65.374 25.544v51.482H128.455V112.106zm120.72 146.893h-89.001c-4.136 0-7.5-3.364-7.5-7.5s3.364-7.5 7.5-7.5h86.777a102.578 102.578 0 0 0 2.224 15zm-120.72 136.893h218.772v32.207c0 11.753-9.562 21.315-21.316 21.315h-176.14c-11.753 0-21.315-9.562-21.315-21.315v-32.207z"></path><linearGradient id="b" gradientUnits="userSpaceOnUse" x1="-62.715" y1="122.097" x2="370.946" y2="555.758"><stop offset="0" style="stop-color:#fef050"></stop><stop offset=".035" style="stop-color:#fae73d"></stop><stop offset=".093" style="stop-color:#f5db22"></stop><stop offset=".154" style="stop-color:#f2d20f"></stop><stop offset=".215" style="stop-color:#f0cd04"></stop><stop offset=".281" style="stop-color:#efcb00"></stop><stop offset=".668" style="stop-color:#d99544"></stop><stop offset=".888" style="stop-color:#cd6f3c"></stop><stop offset="1" style="stop-color:#c34435"></stop></linearGradient><path style="fill:url(#b)" d="M237.841 446.922c13.382 0 24.27-10.887 24.27-24.27s-10.887-24.27-24.27-24.27-24.27 10.887-24.27 24.27 10.887 24.27 24.27 24.27zm0-43.539c10.625 0 19.27 8.644 19.27 19.27s-8.644 19.27-19.27 19.27-19.27-8.644-19.27-19.27 8.644-19.27 19.27-19.27z"></path><linearGradient id="c" gradientUnits="userSpaceOnUse" x1="-27.005" y1="86.386" x2="406.657" y2="520.048"><stop offset="0" style="stop-color:#fef050"></stop><stop offset=".035" style="stop-color:#fae73d"></stop><stop offset=".093" style="stop-color:#f5db22"></stop><stop offset=".154" style="stop-color:#f2d20f"></stop><stop offset=".215" style="stop-color:#f0cd04"></stop><stop offset=".281" style="stop-color:#efcb00"></stop><stop offset=".668" style="stop-color:#d99544"></stop><stop offset=".888" style="stop-color:#cd6f3c"></stop><stop offset="1" style="stop-color:#c34435"></stop></linearGradient><path style="fill:url(#c)" d="M315.508 338.732H160.174c-6.893 0-12.5 5.607-12.5 12.5s5.607 12.5 12.5 12.5h155.334c6.893 0 12.5-5.607 12.5-12.5s-5.608-12.5-12.5-12.5zm0 20H160.174c-4.136 0-7.5-3.364-7.5-7.5s3.364-7.5 7.5-7.5h155.334c4.136 0 7.5 3.364 7.5 7.5s-3.364 7.5-7.5 7.5z"></path><linearGradient id="d" gradientUnits="userSpaceOnUse" x1="85.958" y1="-26.576" x2="519.619" y2="407.085"><stop offset="0" style="stop-color:#fef050"></stop><stop offset=".035" style="stop-color:#fae73d"></stop><stop offset=".093" style="stop-color:#f5db22"></stop><stop offset=".154" style="stop-color:#f2d20f"></stop><stop offset=".215" style="stop-color:#f0cd04"></stop><stop offset=".281" style="stop-color:#efcb00"></stop><stop offset=".668" style="stop-color:#d99544"></stop><stop offset=".888" style="stop-color:#cd6f3c"></stop><stop offset="1" style="stop-color:#c34435"></stop></linearGradient><path style="fill:url(#d)" d="M343.953 308.148c1.91 1.977 4.419 2.979 7.456 2.979 3.034 0 5.542-1.002 7.457-2.982 1.885-1.955 2.841-4.468 2.841-7.469v-7.517c9.099-1.696 16.532-5.354 22.118-10.89 6.122-6.066 9.227-13.608 9.227-22.417 0-7.298-1.87-13.216-5.56-17.592-3.56-4.213-7.92-7.406-12.96-9.489-4.793-1.978-11.034-3.92-18.532-5.769-5.518-1.403-9.926-2.669-13.106-3.765-2.892-.992-5.303-2.418-7.17-4.241-1.652-1.612-2.456-3.703-2.456-6.391 0-4.092 1.521-7.212 4.647-9.538 3.313-2.463 7.905-3.711 13.647-3.711 4.75 0 8.889.687 12.302 2.041 3.516 1.397 7.328 3.541 11.331 6.369.029.021.06.042.09.061 1.603 1.031 2.897 1.714 3.958 2.089 1.129.399 2.311.602 3.511.602 1.741 0 4.278-.591 6.479-3.407 1.62-2.072 2.441-4.494 2.441-7.197 0-3.7-1.599-6.864-4.623-9.151-7.234-5.933-15.855-9.748-25.651-11.357v-7.319c0-3.001-.955-5.514-2.844-7.474-1.913-1.976-4.421-2.978-7.454-2.978-3.037 0-5.545 1.003-7.454 2.979-1.887 1.953-2.844 4.467-2.844 7.472v7.518c-9.114 1.709-16.674 5.468-22.493 11.188a2.5 2.5 0 1 0 3.506 3.565c5.496-5.403 12.85-8.824 21.855-10.166a2.5 2.5 0 0 0 2.132-2.473v-9.632c0-1.688.471-2.995 1.44-3.998.944-.978 2.206-1.454 3.857-1.454 1.673 0 2.9.462 3.858 1.452.969 1.005 1.439 2.313 1.439 4v9.479a2.5 2.5 0 0 0 2.181 2.479c9.774 1.259 18.3 4.83 25.338 10.614l.087.068c1.821 1.366 2.669 3.013 2.669 5.186 0 1.582-.451 2.929-1.381 4.118-1.041 1.332-1.948 1.486-2.54 1.486a5.517 5.517 0 0 1-1.845-.316c-.465-.164-1.339-.566-2.874-1.551-4.31-3.041-8.455-5.362-12.325-6.901-4.004-1.588-8.764-2.394-14.147-2.394-6.841 0-12.436 1.581-16.631 4.699-4.422 3.289-6.664 7.847-6.664 13.55 0 4.049 1.334 7.403 3.964 9.969 2.4 2.344 5.441 4.158 9.036 5.391 3.308 1.139 7.85 2.445 13.518 3.886 7.274 1.793 13.276 3.658 17.839 5.541 4.293 1.774 8.01 4.498 11.047 8.093 2.907 3.447 4.381 8.281 4.381 14.367 0 7.531-2.534 13.702-7.746 18.866-5.244 5.198-12.467 8.513-21.467 9.854a2.5 2.5 0 0 0-2.132 2.473v9.632c0 1.686-.471 2.993-1.438 3.996-.96.993-2.188 1.455-3.86 1.455-1.675 0-2.901-.462-3.859-1.453-.968-1.002-1.438-2.31-1.438-3.998v-9.327c0-1.296-.99-2.377-2.281-2.49a67.003 67.003 0 0 1-16.362-3.538c-5.213-1.833-9.753-4.27-13.493-7.244a2.7 2.7 0 0 0-.133-.099c-.943-.653-1.582-1.337-1.9-2.042-.357-.782-.539-1.821-.539-3.089 0-1.582.451-2.929 1.381-4.118 1.041-1.332 1.862-1.486 2.389-1.486.694 0 1.308.114 1.871.345.759.314 1.8.847 3.096 1.584 4.837 3.148 9.678 5.496 14.389 6.977 4.751 1.497 9.813 2.256 15.047 2.256 7.328 0 13.141-1.494 17.275-4.439 4.399-3.134 6.63-7.677 6.63-13.503 0-3.682-1.307-6.725-3.885-9.045-2.279-2.05-5.137-3.685-8.491-4.858-3.095-1.083-7.482-2.364-13.057-3.81-7.481-1.894-13.642-3.836-18.309-5.772-4.402-1.825-8.251-4.653-11.438-8.407a2.5 2.5 0 1 0-3.81 3.237c3.706 4.363 8.192 7.656 13.333 9.788 4.891 2.029 11.282 4.048 18.983 5.997 5.426 1.408 9.681 2.649 12.646 3.687 2.727.954 5.015 2.251 6.798 3.855 1.5 1.351 2.229 3.093 2.229 5.329 0 4.174-1.482 7.259-4.53 9.431-3.271 2.33-8.107 3.512-14.375 3.512-4.723 0-9.28-.681-13.546-2.025-4.298-1.351-8.746-3.517-13.222-6.437a2.725 2.725 0 0 0-.128-.078c-1.527-.872-2.745-1.492-3.729-1.899a9.882 9.882 0 0 0-3.778-.723c-1.672 0-4.127.591-6.328 3.407-1.62 2.072-2.441 4.494-2.441 7.197 0 1.989.333 3.728.987 5.16.685 1.511 1.874 2.868 3.536 4.033 4.165 3.298 9.172 5.989 14.883 7.997a71.961 71.961 0 0 0 15.303 3.564v7.074c-.001 3.005.955 5.519 2.841 7.472z"></path></svg>