<svg xmlns="http://www.w3.org/2000/svg" viewBox="0 0 512 512" style="enable-background:new 0 0 512 512" xml:space="preserve"><linearGradient id="a" gradientUnits="userSpaceOnUse" x1="38.817" y1="25.183" x2="480.858" y2="467.224"><stop offset="0" style="stop-color:#fef050"></stop><stop offset=".035" style="stop-color:#fae73d"></stop><stop offset=".093" style="stop-color:#f5db22"></stop><stop offset=".154" style="stop-color:#f2d20f"></stop><stop offset=".215" style="stop-color:#f0cd04"></stop><stop offset=".281" style="stop-color:#efcb00"></stop><stop offset=".668" style="stop-color:#d99544"></stop><stop offset=".888" style="stop-color:#cd6f3c"></stop><stop offset="1" style="stop-color:#c34435"></stop></linearGradient><path style="fill:url(#a)" d="M366.049 84.446c-9.273 0-17.834 5.414-21.809 13.793l-7.419 15.641c-4.406 9.287-13.529 15.057-23.809 15.057s-19.402-5.77-23.809-15.057l-7.419-15.641c-3.975-8.379-12.535-13.793-21.809-13.793h-7.953c-9.273 0-17.834 5.414-21.808 13.793l-7.42 15.641c-4.406 9.287-13.528 15.057-23.808 15.057s-19.402-5.77-23.808-15.057l-7.419-15.641c-3.975-8.379-12.535-13.793-21.809-13.793-13.309 0-24.137 10.828-24.137 24.138v29.607a2.5 2.5 0 1 0 5 0v-29.607c0-10.553 8.585-19.138 19.137-19.138 7.353 0 14.14 4.293 17.291 10.936l7.419 15.641c5.242 11.05 16.096 17.914 28.326 17.914s23.084-6.864 28.326-17.914l7.42-15.641c3.151-6.643 9.938-10.936 17.291-10.936h7.953c7.353 0 14.14 4.293 17.291 10.936l7.419 15.641c5.242 11.05 16.096 17.914 28.326 17.914s23.084-6.864 28.326-17.914l7.419-15.641c3.151-6.643 9.938-10.936 17.291-10.936 10.553 0 19.138 8.585 19.138 19.138v234.234c0 54.994-44.741 99.735-99.736 99.735h-58.901c-54.994 0-99.735-44.741-99.735-99.735V222.144a2.5 2.5 0 1 0-5 0v120.675c0 57.751 46.984 104.735 104.735 104.735h58.901c57.752 0 104.736-46.984 104.736-104.735V108.584c.001-13.31-10.828-24.138-24.137-24.138z"></path><linearGradient id="b" gradientUnits="userSpaceOnUse" x1="22.714" y1="41.286" x2="464.755" y2="483.326"><stop offset="0" style="stop-color:#fef050"></stop><stop offset=".035" style="stop-color:#fae73d"></stop><stop offset=".093" style="stop-color:#f5db22"></stop><stop offset=".154" style="stop-color:#f2d20f"></stop><stop offset=".215" style="stop-color:#f0cd04"></stop><stop offset=".281" style="stop-color:#efcb00"></stop><stop offset=".668" style="stop-color:#d99544"></stop><stop offset=".888" style="stop-color:#cd6f3c"></stop><stop offset="1" style="stop-color:#c34435"></stop></linearGradient><path style="fill:url(#b)" d="M288.242 412.231c36.735 0 66.622-29.887 66.622-66.622V184.273c0-11.056-8.995-20.051-20.051-20.051H177.187c-11.056 0-20.051 8.995-20.051 20.051v161.336c0 36.735 29.887 66.622 66.622 66.622h64.484zm-126.106-66.622V184.273c0-8.299 6.752-15.051 15.051-15.051h157.627c8.299 0 15.051 6.752 15.051 15.051v161.336c0 33.979-27.644 61.622-61.622 61.622h-64.484c-33.98 0-61.623-27.643-61.623-61.622z"></path><linearGradient id="c" gradientUnits="userSpaceOnUse" x1="20.482" y1="43.518" x2="462.523" y2="485.559"><stop offset="0" style="stop-color:#fef050"></stop><stop offset=".035" style="stop-color:#fae73d"></stop><stop offset=".093" style="stop-color:#f5db22"></stop><stop offset=".154" style="stop-color:#f2d20f"></stop><stop offset=".215" style="stop-color:#f0cd04"></stop><stop offset=".281" style="stop-color:#efcb00"></stop><stop offset=".668" style="stop-color:#d99544"></stop><stop offset=".888" style="stop-color:#cd6f3c"></stop><stop offset="1" style="stop-color:#c34435"></stop></linearGradient><path style="fill:url(#c)" d="M288.242 376.909a2.5 2.5 0 1 0 0-5h-64.484c-14.502 0-26.3-11.798-26.3-26.3v-38.063l35.139 41.254a12.481 12.481 0 0 0 10.126 4.38 12.578 12.578 0 0 0 9.65-5.346l62.169-89.336v87.112a2.5 2.5 0 1 0 5 0v-94.297l15.279-21.956c3.938-5.657 2.537-13.463-3.12-17.399a12.425 12.425 0 0 0-9.347-2.045c-.982.176-1.92.477-2.812.867v-8.734a2.5 2.5 0 0 0-2.5-2.5H256a2.5 2.5 0 1 0 0 5h58.542v10.221c-.078.105-.165.203-.24.312l-73.187 105.168-36.641-43.018a12.402 12.402 0 0 0-7.016-4.134v-71.049a2.5 2.5 0 1 0-5 0v71.041a12.393 12.393 0 0 0-5.605 2.732c-5.247 4.47-5.88 12.374-1.411 17.621l7.016 8.237v43.934c0 17.259 14.041 31.3 31.3 31.3h64.484zm-98.993-86.713a7.455 7.455 0 0 1-1.767-5.461 7.456 7.456 0 0 1 2.613-5.112 7.441 7.441 0 0 1 4.825-1.79c.013 0 .025.004.037.004.011 0 .021-.003.031-.003a7.448 7.448 0 0 1 5.678 2.635l38.744 45.486a2.52 2.52 0 0 0 2.025.876 2.502 2.502 0 0 0 1.93-1.069l74.369-106.867a2.487 2.487 0 0 0 1.791-2.231 7.458 7.458 0 0 1 3.711-1.831 7.45 7.45 0 0 1 5.608 1.227 7.45 7.45 0 0 1 3.098 4.832 7.45 7.45 0 0 1-1.226 5.608l-15.744 22.623-.008.012-66.698 95.843a7.54 7.54 0 0 1-5.788 3.207c-2.334.098-4.571-.859-6.078-2.628l-47.151-55.361z"></path></svg>