<svg xmlns="http://www.w3.org/2000/svg" viewBox="0 0 512 512" style="enable-background:new 0 0 512 512" xml:space="preserve"><linearGradient id="a" gradientUnits="userSpaceOnUse" x1="60.008" y1="4.585" x2="508.008" y2="446.585"><stop offset="0" style="stop-color:#fef050"></stop><stop offset=".035" style="stop-color:#fae73d"></stop><stop offset=".093" style="stop-color:#f5db22"></stop><stop offset=".154" style="stop-color:#f2d20f"></stop><stop offset=".215" style="stop-color:#f0cd04"></stop><stop offset=".281" style="stop-color:#efcb00"></stop><stop offset=".668" style="stop-color:#d99544"></stop><stop offset=".888" style="stop-color:#cd6f3c"></stop><stop offset="1" style="stop-color:#c34435"></stop></linearGradient><path style="fill:url(#a)" d="M436.06 103.372h-50.745a2.5 2.5 0 1 0 0 5h48.245v295.256H193.612a2.5 2.5 0 1 0 0 5H436.06a2.5 2.5 0 0 0 2.5-2.5V105.872a2.5 2.5 0 0 0-2.5-2.5z"></path><linearGradient id="b" gradientUnits="userSpaceOnUse" x1="-.571" y1="65.986" x2="447.429" y2="507.986"><stop offset="0" style="stop-color:#fef050"></stop><stop offset=".035" style="stop-color:#fae73d"></stop><stop offset=".093" style="stop-color:#f5db22"></stop><stop offset=".154" style="stop-color:#f2d20f"></stop><stop offset=".215" style="stop-color:#f0cd04"></stop><stop offset=".281" style="stop-color:#efcb00"></stop><stop offset=".668" style="stop-color:#d99544"></stop><stop offset=".888" style="stop-color:#cd6f3c"></stop><stop offset="1" style="stop-color:#c34435"></stop></linearGradient><path style="fill:url(#b)" d="M73.863 185.821c-.02.029-.032.063-.051.093-.066.108-.13.218-.179.335-.02.047-.029.099-.046.147-.036.105-.075.209-.097.32-.033.162-.05.327-.05.494v218.917a2.5 2.5 0 0 0 2.5 2.5h51.72a2.5 2.5 0 1 0 0-5H78.44V189.711h16.622a2.5 2.5 0 1 0 0-5H81.976l72.805-72.804v72.804h-23.169a2.5 2.5 0 1 0 0 5h25.669a2.5 2.5 0 0 0 2.5-2.5v-78.839h148.323a2.5 2.5 0 1 0 0-5H157.28c-.167 0-.333.017-.494.05-.112.022-.218.062-.324.099-.047.016-.096.025-.142.044a2.533 2.533 0 0 0-.337.18c-.03.019-.063.031-.093.05a2.485 2.485 0 0 0-.38.312l-81.335 81.334c-.116.116-.22.244-.312.38z"></path><linearGradient id="c" gradientUnits="userSpaceOnUse" x1="-56.604" y1="122.779" x2="391.396" y2="564.779"><stop offset="0" style="stop-color:#fef050"></stop><stop offset=".035" style="stop-color:#fae73d"></stop><stop offset=".093" style="stop-color:#f5db22"></stop><stop offset=".154" style="stop-color:#f2d20f"></stop><stop offset=".215" style="stop-color:#f0cd04"></stop><stop offset=".281" style="stop-color:#efcb00"></stop><stop offset=".668" style="stop-color:#d99544"></stop><stop offset=".888" style="stop-color:#cd6f3c"></stop><stop offset="1" style="stop-color:#c34435"></stop></linearGradient><path style="fill:url(#c)" d="M184.8 313.654a7.492 7.492 0 0 0 1.907-7.728 7.49 7.49 0 0 0-6.085-5.13c-1.376-.214-2.635.747-2.833 2.114a2.499 2.499 0 0 0 2.114 2.833 2.493 2.493 0 0 1 2.049 1.728c.305.94.064 1.913-.643 2.603l-13.345 13.008a7.535 7.535 0 0 0-2.168 6.673l3.15 18.367a2.49 2.49 0 0 1-1.01 2.482 2.49 2.49 0 0 1-2.674.193l-16.494-8.671a7.533 7.533 0 0 0-7.016-.001l-16.495 8.672a2.493 2.493 0 0 1-2.674-.193 2.49 2.49 0 0 1-1.01-2.482l3.15-18.367a7.536 7.536 0 0 0-2.168-6.673l-13.345-13.008a2.495 2.495 0 0 1-.643-2.603 2.494 2.494 0 0 1 2.049-1.728l18.442-2.68a7.537 7.537 0 0 0 5.677-4.124l8.247-16.711a2.488 2.488 0 0 1 2.275-1.414 2.487 2.487 0 0 1 2.276 1.414l8.247 16.711a2.502 2.502 0 0 0 4.485-2.213l-8.248-16.711a7.49 7.49 0 0 0-6.761-4.201 7.49 7.49 0 0 0-6.759 4.201l-8.246 16.711a2.54 2.54 0 0 1-1.912 1.39l-18.442 2.68c-2.86.415-5.191 2.381-6.085 5.13s-.162 5.71 1.907 7.728l13.345 13.008c.599.583.871 1.424.73 2.247l-3.15 18.367a7.488 7.488 0 0 0 2.999 7.373 7.504 7.504 0 0 0 4.424 1.448 7.544 7.544 0 0 0 3.515-.874l16.496-8.673a2.534 2.534 0 0 1 2.361.001l16.495 8.672c2.557 1.345 5.6 1.124 7.938-.574s3.488-4.523 2.999-7.373l-3.15-18.367a2.54 2.54 0 0 1 .73-2.247l13.349-13.008z"></path><linearGradient id="d" gradientUnits="userSpaceOnUse" x1="-1.981" y1="67.415" x2="446.019" y2="509.415"><stop offset="0" style="stop-color:#fef050"></stop><stop offset=".035" style="stop-color:#fae73d"></stop><stop offset=".093" style="stop-color:#f5db22"></stop><stop offset=".154" style="stop-color:#f2d20f"></stop><stop offset=".215" style="stop-color:#f0cd04"></stop><stop offset=".281" style="stop-color:#efcb00"></stop><stop offset=".668" style="stop-color:#d99544"></stop><stop offset=".888" style="stop-color:#cd6f3c"></stop><stop offset="1" style="stop-color:#c34435"></stop></linearGradient><path style="fill:url(#d)" d="M295.538 313.654c2.07-2.017 2.801-4.978 1.908-7.727s-3.225-4.716-6.086-5.131c-1.375-.214-2.635.748-2.833 2.114a2.499 2.499 0 0 0 2.114 2.833 2.49 2.49 0 0 1 2.049 1.729 2.49 2.49 0 0 1-.643 2.602l-13.345 13.008a7.537 7.537 0 0 0-2.167 6.673l3.15 18.366a2.492 2.492 0 0 1-1.011 2.484 2.491 2.491 0 0 1-2.673.192l-16.494-8.671a7.527 7.527 0 0 0-7.017-.001l-16.495 8.672a2.491 2.491 0 0 1-2.673-.192 2.492 2.492 0 0 1-1.011-2.483l3.15-18.367a7.538 7.538 0 0 0-2.167-6.673l-13.345-13.008a2.49 2.49 0 0 1-.643-2.602 2.492 2.492 0 0 1 2.049-1.729l18.441-2.68a7.533 7.533 0 0 0 5.677-4.124l8.246-16.711c.438-.886 1.289-1.414 2.277-1.414s1.84.528 2.276 1.414l8.247 16.711a2.502 2.502 0 0 0 4.485-2.213l-8.248-16.711c-1.279-2.592-3.869-4.201-6.76-4.201s-5.48 1.609-6.761 4.201l-8.247 16.712a2.537 2.537 0 0 1-1.911 1.389l-18.441 2.68c-2.861.415-5.193 2.382-6.086 5.131s-.162 5.71 1.908 7.727l13.345 13.008c.598.583.871 1.423.729 2.247l-3.15 18.368a7.492 7.492 0 0 0 3 7.373 7.509 7.509 0 0 0 4.423 1.447 7.544 7.544 0 0 0 3.515-.874l16.496-8.673a2.53 2.53 0 0 1 2.362.001l16.495 8.672a7.49 7.49 0 0 0 7.938-.573 7.493 7.493 0 0 0 3-7.374l-3.15-18.367a2.539 2.539 0 0 1 .729-2.247l13.348-13.008z"></path><linearGradient id="e" gradientUnits="userSpaceOnUse" x1="52.642" y1="12.051" x2="500.642" y2="454.051"><stop offset="0" style="stop-color:#fef050"></stop><stop offset=".035" style="stop-color:#fae73d"></stop><stop offset=".093" style="stop-color:#f5db22"></stop><stop offset=".154" style="stop-color:#f2d20f"></stop><stop offset=".215" style="stop-color:#f0cd04"></stop><stop offset=".281" style="stop-color:#efcb00"></stop><stop offset=".668" style="stop-color:#d99544"></stop><stop offset=".888" style="stop-color:#cd6f3c"></stop><stop offset="1" style="stop-color:#c34435"></stop></linearGradient><path style="fill:url(#e)" d="m332.097 305.744 18.442-2.68a7.537 7.537 0 0 0 5.677-4.124l8.246-16.711c.438-.886 1.289-1.414 2.277-1.414s1.839.528 2.275 1.414l8.247 16.711a2.502 2.502 0 0 0 4.485-2.213l-8.247-16.711a7.49 7.49 0 0 0-6.759-4.201h-.001a7.494 7.494 0 0 0-6.761 4.201l-8.246 16.711a2.54 2.54 0 0 1-1.912 1.39l-18.442 2.68a7.49 7.49 0 0 0-6.085 5.13 7.492 7.492 0 0 0 1.907 7.728l13.345 13.008c.599.583.871 1.424.73 2.247l-3.15 18.367a7.488 7.488 0 0 0 2.999 7.373 7.504 7.504 0 0 0 4.424 1.448 7.544 7.544 0 0 0 3.515-.874l16.496-8.673a2.534 2.534 0 0 1 2.361.001l16.495 8.672a7.492 7.492 0 0 0 7.938-.574 7.488 7.488 0 0 0 2.999-7.373l-3.15-18.367a2.54 2.54 0 0 1 .73-2.247l13.345-13.008c2.069-2.018 2.801-4.979 1.907-7.728s-3.225-4.715-6.085-5.13c-1.376-.214-2.635.747-2.833 2.114a2.499 2.499 0 0 0 2.114 2.833 2.493 2.493 0 0 1 2.049 1.728c.305.94.064 1.913-.643 2.603l-13.345 13.008a7.535 7.535 0 0 0-2.168 6.673l3.15 18.367a2.49 2.49 0 0 1-1.01 2.482 2.49 2.49 0 0 1-2.674.193l-16.494-8.671a7.533 7.533 0 0 0-7.016-.001l-16.495 8.672a2.493 2.493 0 0 1-2.674-.193 2.49 2.49 0 0 1-1.01-2.482l3.15-18.367a7.536 7.536 0 0 0-2.168-6.673l-13.345-13.008a2.495 2.495 0 0 1-.643-2.603 2.503 2.503 0 0 1 2.053-1.728z"></path><linearGradient id="f" gradientUnits="userSpaceOnUse" x1="18.346" y1="46.812" x2="466.346" y2="488.812"><stop offset="0" style="stop-color:#fef050"></stop><stop offset=".035" style="stop-color:#fae73d"></stop><stop offset=".093" style="stop-color:#f5db22"></stop><stop offset=".154" style="stop-color:#f2d20f"></stop><stop offset=".215" style="stop-color:#f0cd04"></stop><stop offset=".281" style="stop-color:#efcb00"></stop><stop offset=".668" style="stop-color:#d99544"></stop><stop offset=".888" style="stop-color:#cd6f3c"></stop><stop offset="1" style="stop-color:#c34435"></stop></linearGradient><path style="fill:url(#f)" d="m201.812 251.266 16.494 8.672c2.557 1.345 5.6 1.124 7.938-.574s3.488-4.523 2.999-7.373l-3.15-18.367a2.541 2.541 0 0 1 .73-2.247l13.345-13.008a7.49 7.49 0 0 0 1.907-7.727 7.491 7.491 0 0 0-6.085-5.131c-1.376-.214-2.635.748-2.833 2.114a2.499 2.499 0 0 0 2.114 2.833 2.493 2.493 0 0 1 2.049 1.728 2.49 2.49 0 0 1-.643 2.603l-13.345 13.008a7.541 7.541 0 0 0-2.168 6.673l3.15 18.367a2.49 2.49 0 0 1-1.01 2.482c-.8.583-1.798.655-2.674.193l-16.494-8.672a7.542 7.542 0 0 0-7.016 0l-16.495 8.672a2.491 2.491 0 0 1-2.674-.193 2.49 2.49 0 0 1-1.01-2.482l3.15-18.367a7.542 7.542 0 0 0-2.168-6.673l-13.345-13.008a2.494 2.494 0 0 1-.643-2.602 2.497 2.497 0 0 1 2.05-1.729l18.441-2.68a7.539 7.539 0 0 0 5.677-4.123l8.247-16.711c.438-.886 1.288-1.415 2.276-1.415s1.839.529 2.275 1.415l8.248 16.711a2.502 2.502 0 0 0 4.485-2.213l-8.248-16.711a7.49 7.49 0 0 0-6.759-4.202h-.001a7.495 7.495 0 0 0-6.761 4.202l-8.246 16.711a2.54 2.54 0 0 1-1.912 1.389l-18.441 2.68a7.491 7.491 0 0 0-6.086 5.131 7.49 7.49 0 0 0 1.907 7.727l13.345 13.008c.599.584.871 1.424.73 2.247l-3.15 18.367a7.488 7.488 0 0 0 2.999 7.373 7.504 7.504 0 0 0 4.424 1.448 7.544 7.544 0 0 0 3.515-.874l16.495-8.672a2.546 2.546 0 0 1 2.367 0z"></path><linearGradient id="g" gradientUnits="userSpaceOnUse" x1="72.969" y1="-8.553" x2="520.969" y2="433.447"><stop offset="0" style="stop-color:#fef050"></stop><stop offset=".035" style="stop-color:#fae73d"></stop><stop offset=".093" style="stop-color:#f5db22"></stop><stop offset=".154" style="stop-color:#f2d20f"></stop><stop offset=".215" style="stop-color:#f0cd04"></stop><stop offset=".281" style="stop-color:#efcb00"></stop><stop offset=".668" style="stop-color:#d99544"></stop><stop offset=".888" style="stop-color:#cd6f3c"></stop><stop offset="1" style="stop-color:#c34435"></stop></linearGradient><path style="fill:url(#g)" d="m312.551 251.266 16.495 8.672a7.538 7.538 0 0 0 3.515.874 7.51 7.51 0 0 0 4.424-1.448 7.488 7.488 0 0 0 2.999-7.373l-3.15-18.367a2.541 2.541 0 0 1 .73-2.247l13.345-13.008a7.49 7.49 0 0 0 1.907-7.727 7.491 7.491 0 0 0-6.086-5.131c-1.375-.214-2.635.748-2.833 2.114a2.499 2.499 0 0 0 2.114 2.833 2.495 2.495 0 0 1 2.05 1.729 2.493 2.493 0 0 1-.643 2.602l-13.345 13.008a7.541 7.541 0 0 0-2.168 6.673l3.15 18.367a2.49 2.49 0 0 1-1.01 2.482c-.8.583-1.798.653-2.674.193l-16.495-8.672a7.542 7.542 0 0 0-7.016 0l-16.494 8.672a2.491 2.491 0 0 1-2.674-.193 2.49 2.49 0 0 1-1.01-2.482l3.15-18.367a7.542 7.542 0 0 0-2.168-6.673l-13.345-13.008a2.491 2.491 0 0 1-.643-2.603 2.494 2.494 0 0 1 2.049-1.728l18.442-2.68a7.534 7.534 0 0 0 5.676-4.123l8.248-16.711c.437-.886 1.287-1.415 2.275-1.415s1.839.528 2.276 1.415l8.247 16.711a2.502 2.502 0 0 0 4.485-2.213l-8.247-16.711a7.491 7.491 0 0 0-6.762-4.202 7.492 7.492 0 0 0-6.759 4.202l-8.248 16.712a2.536 2.536 0 0 1-1.91 1.388l-18.442 2.68a7.491 7.491 0 0 0-6.085 5.131 7.49 7.49 0 0 0 1.907 7.727l13.345 13.008c.599.584.871 1.424.73 2.247l-3.15 18.367a7.488 7.488 0 0 0 2.999 7.373 7.488 7.488 0 0 0 7.938.574l16.494-8.672a2.546 2.546 0 0 1 2.367 0z"></path></svg>