<svg xmlns="http://www.w3.org/2000/svg" viewBox="0 0 512 512" style="enable-background:new 0 0 512 512" xml:space="preserve"><linearGradient id="a" gradientUnits="userSpaceOnUse" x1="36.918" y1="33.35" x2="473.255" y2="476.027"><stop offset="0" style="stop-color:#fef050"></stop><stop offset=".035" style="stop-color:#fae73d"></stop><stop offset=".093" style="stop-color:#f5db22"></stop><stop offset=".154" style="stop-color:#f2d20f"></stop><stop offset=".215" style="stop-color:#f0cd04"></stop><stop offset=".281" style="stop-color:#efcb00"></stop><stop offset=".668" style="stop-color:#d99544"></stop><stop offset=".888" style="stop-color:#cd6f3c"></stop><stop offset="1" style="stop-color:#c34435"></stop></linearGradient><path style="fill:url(#a)" d="M477.019 293.441a2.499 2.499 0 1 0-3.535 3.535l9.627 9.626c3.183 3.184 3.187 8.359.008 11.538l-21.938 21.938a8.095 8.095 0 0 1-5.763 2.385h-.003a8.114 8.114 0 0 1-5.772-2.393l-33.138-33.138-.005-.005-44.417-44.417a8.1 8.1 0 0 1-2.386-5.765 8.1 8.1 0 0 1 2.386-5.766l10.968-10.969 9.824-9.823a.022.022 0 0 0 .004-.005l1.14-1.14c3.18-3.178 8.352-3.178 11.531 0l7.415 7.415.005.005 21.816 21.816.015.015 18.568 18.568a2.499 2.499 0 1 0 3.535-3.535l-17.844-17.844v-129.65c0-5.646-4.598-10.24-10.25-10.24h-66.246c-.462-.487-.913-.982-1.39-1.459-13.89-13.891-32.356-21.54-52-21.54-19.643 0-38.11 7.649-52 21.54-.477.477-.926.972-1.387 1.459H83.19c-5.652 0-10.25 4.594-10.25 10.24V273.41a2.5 2.5 0 1 0 5 0V125.831c0-2.89 2.355-5.24 5.25-5.24h168.261a72.958 72.958 0 0 0-7.84 12.257h-63.405a2.5 2.5 0 1 0 0 5h61.099a73.847 73.847 0 0 0-5.531 32.1h-2.707c-8.585 0-15.569 6.984-15.569 15.569v24.223c0 8.585 6.984 15.569 15.569 15.569h32.446c12.926 9.549 28.293 14.328 43.661 14.328a73.51 73.51 0 0 0 39.09-11.231l8.692 8.692.002.003.003.002 3.206 3.206H325.07c-8.586 0-15.57 6.984-15.57 15.569V280.1c0 8.586 6.984 15.57 15.57 15.57h45.864c7.383 0 13.568-5.17 15.16-12.077l26.14 26.14v18.037H99.763V137.848h28.23a2.5 2.5 0 1 0 0-5h-30.73a2.5 2.5 0 0 0-2.5 2.5V330.27a2.5 2.5 0 0 0 2.5 2.5h317.472a2.5 2.5 0 0 0 2.5-2.5v-15.537l16.825 16.825v18.224a5.256 5.256 0 0 1-5.25 5.25H83.19a5.256 5.256 0 0 1-5.25-5.25V330.27a2.5 2.5 0 1 0-5 0v19.512c0 5.652 4.598 10.25 10.25 10.25h135.08v43.971l-22.142 1.163a2.499 2.499 0 1 0 .262 4.992l24.511-1.287a2.499 2.499 0 0 0 2.369-2.496v-46.343h65.449v46.343a2.499 2.499 0 0 0 2.369 2.496l109.872 5.769c.256.014 1.294 1.087 1.294 3.233 0 1.888-.863 2.995-1.162 3.036H110.897c-.299-.041-1.162-1.148-1.162-3.036 0-2.146 1.038-3.22 1.293-3.233l44.132-2.316a2.498 2.498 0 0 0 2.365-2.627c-.071-1.378-1.272-2.46-2.627-2.365l-44.133 2.316c-3.382.178-6.03 3.791-6.03 8.226 0 4.506 2.707 8.036 6.162 8.036h290.195c3.455 0 6.162-3.53 6.162-8.036 0-4.435-2.648-8.048-6.031-8.226l-107.504-5.645v-43.971h135.09c5.652 0 10.25-4.598 10.25-10.25v-13.224l7.048 7.048a13.082 13.082 0 0 0 9.306 3.857h.005a13.06 13.06 0 0 0 9.298-3.85l21.938-21.938c5.128-5.128 5.124-13.476-.008-18.608l-9.627-9.626zm-97.504-56.965-8.056 8.056-3.489-3.489-.003-.003-5.706-5.707 16.112-16.111 9.198 9.198-8.056 8.056zm-8.056-31.238a72.608 72.608 0 0 0 9.492-23.084c.361 1.073.552 2.207.552 3.363v24.223c0 1.576-.354 3.12-1.019 4.524l-9.025-9.026zm40.775 23.418-3.149-3.149c-4.919-4.919-12.786-5.107-17.948-.591l-6.98-6.98a15.577 15.577 0 0 0 2.347-8.196v-24.223c0-4.015-1.563-7.852-4.311-10.735.332-2.851.521-5.735.521-8.649 0-9.869-1.934-19.44-5.617-28.284h35.138v90.807zm16.576-108.065c2.895 0 5.25 2.351 5.25 5.24v124.65l-16.825-16.825v-98.309a2.5 2.5 0 0 0-2.5-2.5h-39.967a73.142 73.142 0 0 0-7.865-12.257h61.907zm-195.744 99.718c-5.828 0-10.569-4.741-10.569-10.569v-24.223c0-5.828 4.741-10.569 10.569-10.569h3.15c1.891 15.794 8.863 31.09 20.958 43.185a74.287 74.287 0 0 0 2.29 2.177h-26.398zm76.108 14.33c-17.549-.002-35.104-6.683-48.465-20.042-26.723-26.725-26.723-70.206 0-96.93 12.946-12.945 30.158-20.075 48.465-20.075 18.308 0 35.52 7.13 48.465 20.075a68.627 68.627 0 0 1 13.258 18.612c.035.086.081.166.125.247 4.376 9.125 6.693 19.186 6.693 29.605 0 13.74-4.017 26.863-11.494 38.029-.018.026-.037.05-.054.076a69.315 69.315 0 0 1-8.527 10.36c-13.365 13.364-30.912 20.045-48.466 20.043zm49.552-2.841-6.236-6.236a73.738 73.738 0 0 0 8.683-7.43 74.402 74.402 0 0 0 7.431-8.678l6.233 6.233-16.111 16.111zm22.778 48.302c0 5.828-4.741 10.57-10.569 10.57H325.07c-5.828 0-10.57-4.742-10.57-10.57v-24.222c0-5.828 4.742-10.569 10.57-10.569h40.096l2.788 2.789a13.045 13.045 0 0 0-3.258 8.648 13.06 13.06 0 0 0 3.851 9.3l12.957 12.957v1.097z"></path><linearGradient id="b" gradientUnits="userSpaceOnUse" x1="108.626" y1="-37.331" x2="544.962" y2="405.346"><stop offset="0" style="stop-color:#fef050"></stop><stop offset=".035" style="stop-color:#fae73d"></stop><stop offset=".093" style="stop-color:#f5db22"></stop><stop offset=".154" style="stop-color:#f2d20f"></stop><stop offset=".215" style="stop-color:#f0cd04"></stop><stop offset=".281" style="stop-color:#efcb00"></stop><stop offset=".668" style="stop-color:#d99544"></stop><stop offset=".888" style="stop-color:#cd6f3c"></stop><stop offset="1" style="stop-color:#c34435"></stop></linearGradient><path style="fill:url(#b)" d="M360.499 185.651c.351-.926.676-1.858.974-2.798l.1-.31c.304-.979.587-1.962.835-2.953l.022-.083c.254-1.019.48-2.043.676-3.072.04-.208.069-.42.106-.629.133-.747.254-1.495.356-2.245.059-.428.106-.858.154-1.288a56.626 56.626 0 0 0 .265-3.111c.024-.444.037-.888.051-1.332.018-.562.04-1.123.04-1.686 0-.11-.007-.22-.007-.33a54.704 54.704 0 0 0-.183-4.101c-.03-.368-.054-.736-.091-1.103-.058-.58-.131-1.16-.208-1.74a53.38 53.38 0 0 0-.181-1.255c-.052-.336-.086-.673-.145-1.008-.015-.084-.043-.164-.066-.245a54.604 54.604 0 0 0-9.469-22.35c-.029-.046-.061-.09-.093-.134a55.051 55.051 0 0 0-5.62-6.586c-10.374-10.375-24.168-16.089-38.841-16.089-7.7 0-15.153 1.588-22.002 4.584l-.007.003a54.895 54.895 0 0 0-22.415 18.045c-.04.052-.081.101-.117.156-8.058 11.117-11.671 24.827-9.991 38.756a2.507 2.507 0 0 0 2.782 2.183 2.502 2.502 0 0 0 2.183-2.782c-1.481-12.276 1.561-24.364 8.421-34.3h82.281a49.592 49.592 0 0 1 7.411 16.689h-50.682c-10.791 0-19.569 8.778-19.569 19.568v31.635c0 1.985.309 3.918.882 5.768a49.698 49.698 0 0 1-14.482-10.071 2.499 2.499 0 1 0-3.535 3.535 54.585 54.585 0 0 0 22.358 13.535c.041.015.075.044.117.057.206.064.414.119.62.18l.242.071a55.17 55.17 0 0 0 15.558 2.254 54.721 54.721 0 0 0 29.949-8.927c.082-.054.167-.103.249-.157.581-.384 1.15-.789 1.718-1.196.183-.131.369-.253.551-.386.499-.367.986-.755 1.474-1.141.237-.187.479-.363.713-.554.474-.387.936-.796 1.399-1.201.235-.205.476-.399.708-.609a55.527 55.527 0 0 0 2.025-1.925 54.954 54.954 0 0 0 2.151-2.287c.177-.199.345-.404.519-.605a55.466 55.466 0 0 0 1.537-1.847c.158-.2.313-.403.468-.605a54.778 54.778 0 0 0 1.511-2.058c.099-.142.199-.283.297-.426a54.417 54.417 0 0 0 5.935-11.321l.066-.173zm-88.541-52.803a49.906 49.906 0 0 1 16.715-12.256h41.001a49.906 49.906 0 0 1 16.711 12.256h-74.427zm87.102 34.126c-.008.496-.012.991-.035 1.486a49.096 49.096 0 0 1-.152 2.17c-.033.367-.077.733-.117 1.099-.071.63-.146 1.259-.241 1.884-.04.269-.091.536-.135.804a50.759 50.759 0 0 1-.36 1.937c-.045.219-.095.437-.143.655a50.267 50.267 0 0 1-.531 2.166l-.106.393a50.015 50.015 0 0 1-5.57 12.76l-.125.2a48.78 48.78 0 0 1-1.357 2.061c-.09.129-.178.259-.27.387-.43.609-.879 1.207-1.338 1.798-.127.163-.25.328-.379.49a48.695 48.695 0 0 1-1.392 1.66c-.142.163-.277.33-.421.491a50.38 50.38 0 0 1-1.907 2.021 50.647 50.647 0 0 1-2.081 1.958 49.844 49.844 0 0 1-1.709 1.466 48.9 48.9 0 0 1-1.79 1.385c-.134.1-.269.198-.404.297a49.481 49.481 0 0 1-3.865 2.545l-.161.095c-12 7.048-26.336 8.659-39.406 4.832a14.386 14.386 0 0 1-2.597-8.275v-31.635c0-8.033 6.536-14.568 14.569-14.568h51.598c.05.379.095.758.136 1.137.037.34.075.681.105 1.021a49.102 49.102 0 0 1 .159 2.616c.019.521.034 1.042.037 1.563.003.369-.006.734-.012 1.101z"></path><linearGradient id="c" gradientUnits="userSpaceOnUse" x1="19.243" y1="50.772" x2="455.579" y2="493.449"><stop offset="0" style="stop-color:#fef050"></stop><stop offset=".035" style="stop-color:#fae73d"></stop><stop offset=".093" style="stop-color:#f5db22"></stop><stop offset=".154" style="stop-color:#f2d20f"></stop><stop offset=".215" style="stop-color:#f0cd04"></stop><stop offset=".281" style="stop-color:#efcb00"></stop><stop offset=".668" style="stop-color:#d99544"></stop><stop offset=".888" style="stop-color:#cd6f3c"></stop><stop offset="1" style="stop-color:#c34435"></stop></linearGradient><path style="fill:url(#c)" d="M202.497 185.517c0-8.585-6.984-15.569-15.57-15.569h-45.864c-8.585 0-15.569 6.984-15.569 15.569v24.223c0 8.585 6.984 15.569 15.569 15.569h45.864c8.586 0 15.57-6.984 15.57-15.569v-24.223zm-5 24.222c0 5.828-4.742 10.569-10.57 10.569h-45.864c-5.828 0-10.569-4.741-10.569-10.569v-24.223c0-5.828 4.741-10.569 10.569-10.569h45.864c5.828 0 10.57 4.741 10.57 10.569v24.223z"></path><linearGradient id="d" gradientUnits="userSpaceOnUse" x1="-15.934" y1="85.445" x2="420.402" y2="528.122"><stop offset="0" style="stop-color:#fef050"></stop><stop offset=".035" style="stop-color:#fae73d"></stop><stop offset=".093" style="stop-color:#f5db22"></stop><stop offset=".154" style="stop-color:#f2d20f"></stop><stop offset=".215" style="stop-color:#f0cd04"></stop><stop offset=".281" style="stop-color:#efcb00"></stop><stop offset=".668" style="stop-color:#d99544"></stop><stop offset=".888" style="stop-color:#cd6f3c"></stop><stop offset="1" style="stop-color:#c34435"></stop></linearGradient><path style="fill:url(#d)" d="M127.993 261.108a2.5 2.5 0 0 0-2.5 2.5V280.1c0 8.586 6.984 15.57 15.569 15.57h45.864c8.586 0 15.57-6.984 15.57-15.57v-24.222c0-8.585-6.984-15.569-15.57-15.569h-39.311a2.5 2.5 0 1 0 0 5h39.311c5.828 0 10.57 4.741 10.57 10.569V280.1c0 5.828-4.742 10.57-10.57 10.57h-45.864c-5.828 0-10.569-4.742-10.569-10.57v-16.491a2.5 2.5 0 0 0-2.5-2.501z"></path><linearGradient id="e" gradientUnits="userSpaceOnUse" x1="30.731" y1="39.448" x2="467.067" y2="482.125"><stop offset="0" style="stop-color:#fef050"></stop><stop offset=".035" style="stop-color:#fae73d"></stop><stop offset=".093" style="stop-color:#f5db22"></stop><stop offset=".154" style="stop-color:#f2d20f"></stop><stop offset=".215" style="stop-color:#f0cd04"></stop><stop offset=".281" style="stop-color:#efcb00"></stop><stop offset=".668" style="stop-color:#d99544"></stop><stop offset=".888" style="stop-color:#cd6f3c"></stop><stop offset="1" style="stop-color:#c34435"></stop></linearGradient><path style="fill:url(#e)" d="M278.931 295.67c8.585 0 15.569-6.984 15.569-15.57v-24.222c0-8.585-6.984-15.569-15.569-15.569h-45.864c-8.585 0-15.569 6.984-15.569 15.569V280.1c0 8.586 6.984 15.57 15.569 15.57h45.864zm-56.434-15.57v-24.222c0-5.828 4.741-10.569 10.569-10.569h45.864c5.828 0 10.569 4.741 10.569 10.569V280.1c0 5.828-4.741 10.57-10.569 10.57h-45.864c-5.828 0-10.569-4.742-10.569-10.57z"></path></svg>