<?xml version="1.0" standalone="no"?>
<!DOCTYPE svg PUBLIC "-//W3C//DTD SVG 1.1//EN" "http://www.w3.org/Graphics/SVG/1.1/DTD/svg11.dtd" >
<svg xmlns="http://www.w3.org/2000/svg" xmlns:xlink="http://www.w3.org/1999/xlink" version="1.1">
<metadata>
Created by FontForge 20201107 at Tue Apr 23 11:14:36 2024
 By 
Typeface (c) (Human Design). 2021. All Rights Reserved
</metadata>
<defs>
<font id="WinongExtendedRegular" horiz-adv-x="2600" >
  <font-face 
    font-family="Winong Extended"
    font-weight="400"
    font-stretch="normal"
    units-per-em="2048"
    panose-1="0 0 5 0 0 0 0 0 0 0"
    ascent="1638"
    descent="-410"
    x-height="1434"
    cap-height="1434"
    bbox="-422 -774 3617 2333"
    underline-thickness="102"
    underline-position="-255"
    unicode-range="U+001D-2212"
  />
<missing-glyph horiz-adv-x="1193" 
d="M0 1434h1194v-1434h-1194v1434zM993 160v1112h-792v-1112h792z" />
    <glyph glyph-name=".notdef" horiz-adv-x="1193" 
d="M0 1434h1194v-1434h-1194v1434zM993 160v1112h-792v-1112h792z" />
    <glyph glyph-name=".notdef" horiz-adv-x="1193" 
d="M0 1434h1194v-1434h-1194v1434zM993 160v1112h-792v-1112h792z" />
    <glyph glyph-name=".null" horiz-adv-x="0" 
 />
    <glyph glyph-name="nonmarkingreturn" horiz-adv-x="682" 
 />
    <glyph glyph-name="space" unicode=" " horiz-adv-x="935" 
 />
    <glyph glyph-name="exclam" unicode="!" horiz-adv-x="495" 
d="M176 463v971h320v-971h-320zM176 0v264h320v-264h-320z" />
    <glyph glyph-name="quotedbl" unicode="&#x22;" horiz-adv-x="1136" 
d="M176 856l135 657h340l-217 -657h-258zM799 1513h338l-215 -657h-260z" />
    <glyph glyph-name="numbersign" unicode="#" horiz-adv-x="2756" 
d="M2699 977h-428l-92 -522h401l-57 -320h-401l-66 -373h-319l65 373h-794l-68 -373h-319l65 373h-428l55 320h430l93 522h-402l58 321h399l67 373h320l-66 -373h795l66 373h319l-65 -373h430zM1860 455l92 522h-797l-92 -522h797z" />
    <glyph glyph-name="dollar" unicode="$" horiz-adv-x="2091" 
d="M1870 764q115 -57 172 -152q49 -85 49 -198q0 -43 -10 -84t-34 -87t-73 -89t-119 -74q-186 -83 -544 -92v-248h-273v252q-459 24 -635 194q-41 41 -67 80t-35.5 77t-11.5 59t-2 55v10h331q0 -35 7.5 -61.5t27 -47t42.5 -35t64 -25t81.5 -16.5t104.5 -9t124 -4t148 -1
q105 0 191 6.5t141.5 16.5t97 24.5t63 27.5t34.5 28.5t16 25t3 19.5q0 45 -86.5 83t-206.5 60t-260 33q-205 15 -290 22.5t-196 26.5t-181 47q-84 34 -143.5 78.5t-88.5 92.5t-41 90.5t-12 86.5q0 126 67.5 218t196.5 143q172 64 516 73v224h273v-224q373 -12 551 -137
q50 -35 85.5 -76t52.5 -73t26.5 -71t10.5 -57t1 -44h-332q0 46 -24 79t-64.5 52.5t-107.5 31t-139 15.5t-173 4q-590 0 -590 -141q0 -32 28.5 -59t84.5 -46t112 -32.5t139 -23.5t135.5 -15t129.5 -11q271 -20 408.5 -40t224.5 -62z" />
    <glyph glyph-name="percent" unicode="%" horiz-adv-x="3618" 
d="M2402 1649h320l-1256 -1954h-319zM1679 1188q0 -96 -23 -177.5t-75.5 -153.5t-133.5 -122t-203 -79t-277 -29t-277.5 29t-203 79t-133.5 122t-76 153.5t-23 177.5t23 178t76 154t134 122.5t203 79.5t277 29q193 0 334 -43.5t222 -122.5t118.5 -177t37.5 -220zM967 895
q185 0 286 84.5t101 208.5q0 125 -101.5 210t-285.5 85t-285.5 -85t-101.5 -210q0 -124 101 -208.5t286 -84.5zM2902 717q155 0 277.5 -29t203.5 -79.5t134.5 -122.5t76.5 -154t23 -178t-23 -177.5t-76.5 -153.5t-134.5 -122.5t-203.5 -79.5t-277.5 -29t-277.5 29t-203 79.5
t-133.5 122.5t-76 153.5t-23 177.5t23 178t76 154t134 122.5t203 79.5t277 29zM2902 -139q185 0 286 84.5t101 208.5q0 125 -101.5 210t-285.5 85t-285.5 -85t-101.5 -210q0 -124 101 -208.5t286 -84.5z" />
    <glyph glyph-name="ampersand" unicode="&#x26;" horiz-adv-x="2267" 
d="M2251 461q-71 -79 -162 -150q145 -78 178 -100l-145 -219q-1 0 -34.5 19.5t-105.5 60t-147 80.5q-48 -25 -82 -39q-238 -111 -520 -170q-161 -35 -338 -35q-14 0 -40 1t-38 1q-279 15 -422 137t-125 320q15 142 179 247q63 42 241 105q-10 9 -40.5 34t-46 39t-38.5 37.5
t-37.5 46t-23.5 46.5q-39 113 -14.5 212.5t99.5 176t181 112.5q78 26 118.5 36.5t121.5 18t209 7.5q285 0 467 -99q105 -59 161 -141t56 -178q0 -133 -50 -199q-53 -69 -198 -129q-71 -27 -133 -43q-56 -13 -72 -16q-39 -16 -51 -10q80 -35 248 -124.5t182 -96.5
q125 79 213 178zM764 1106q-13 -41 -1 -78.5t42 -69.5q23 -26 59 -51.5t58.5 -38.5t70.5 -38q9 -5 13 -7q2 -1 22 -11.5t23 -10.5q76 16 260 69q102 25 211 72q108 47 108 123v2q0 29 -25 53.5t-55 40.5q-126 66 -331 66q-148 0 -258 -21q-101 -21 -138 -41q-43 -23 -59 -59
zM1176 197q166 30 360 106q-109 52 -256 117q-8 3 -38 15.5t-48 19.5q-150 61 -217 94q-57 -16 -184 -62q-66 -23 -116.5 -46.5t-75 -40.5t-39.5 -30.5t-18 -20.5l-3 -7q-7 -65 34 -102q48 -40 151 -58t221 -13t229 28z" />
    <glyph glyph-name="quotesingle" unicode="'" horiz-adv-x="651" 
d="M313 1513h338l-215 -657h-260z" />
    <glyph glyph-name="parenleft" unicode="(" horiz-adv-x="1339" 
d="M176 723q0 312 74.5 537.5t224.5 366.5t362.5 208.5t501.5 71.5v-281q-256 -8 -447.5 -123.5t-293.5 -317t-102 -462.5q0 -262 102 -463.5t293.5 -317t447.5 -124.5v-281q-230 3 -411.5 46.5t-324 133.5t-236 228.5t-142.5 333t-49 444.5z" />
    <glyph glyph-name="parenright" unicode=")" horiz-adv-x="1339" 
d="M176 1907q289 -4 501.5 -71.5t362.5 -208.5t224.5 -366.5t74.5 -537.5q0 -250 -49 -444.5t-142.5 -333t-236 -228.5t-324 -133.5t-411.5 -46.5v281q256 9 447.5 124.5t294 317.5t102.5 463q0 195 -59.5 359.5t-168 282.5t-266.5 186.5t-350 74.5v281z" />
    <glyph glyph-name="asterisk" unicode="*" horiz-adv-x="1366" 
d="M1192 1698l174 -268l-405 -197l405 -195l-174 -268l-424 326l-416 -326l-176 268l402 195l-402 197l176 268l275 -254l-27 334h322l-31 -353z" />
    <glyph glyph-name="plus" unicode="+" horiz-adv-x="2107" 
d="M1343 1452v-575h764v-320h-764v-575h-321v575h-764v320h764v575h321z" />
    <glyph glyph-name="comma" unicode="," horiz-adv-x="526" 
d="M176 274h350v-274l-166 -403h-167l104 403h-121v274z" />
    <glyph glyph-name="hyphenminus" unicode="-" horiz-adv-x="1910" 
d="M258 557v320h1653v-320h-1653z" />
    <glyph glyph-name="period" unicode="." horiz-adv-x="526" 
d="M176 274h350v-274h-350v274z" />
    <glyph glyph-name="slash" unicode="/" horiz-adv-x="1120" 
d="M172 -428l627 2335h319l-624 -2335h-322z" />
    <glyph glyph-name="zero" unicode="0" horiz-adv-x="1896" 
d="M1016 1483q218 0 379 -42t274.5 -132.5t170 -236.5t56.5 -349t-56.5 -349t-170 -235.5t-274.5 -131.5t-379 -42t-379 42t-275 131.5t-170.5 235.5t-56.5 349q0 400 220 580t661 180zM1016 246q303 0 445.5 111.5t142.5 365.5q0 255 -142.5 367t-445.5 112
q-302 0 -445 -112t-143 -367q0 -254 143 -365.5t445 -111.5z" />
    <glyph glyph-name="one" unicode="1" horiz-adv-x="1064" 
d="M176 1141l567 293h322v-1434h-322v1182l-385 -305z" />
    <glyph glyph-name="two" unicode="2" horiz-adv-x="1886" 
d="M1620 623q-140 -53 -520 -144q-35 -9 -111.5 -27t-115 -27.5t-101 -27.5t-101 -33t-82.5 -37t-77 -46h1321v-281h-1698v276v5q28 90 96.5 160t159.5 114q52 25 121.5 47t105 31t127.5 31q79 19 216.5 46t252 53.5t211.5 61.5q55 19 99 52t43 79q-1 30 -16 60.5
t-51.5 62.5t-91 56t-143.5 39.5t-200 15.5q-223 0 -358 -36t-181 -73q-21 -14 -30 -35.5t-9 -66.5h-319q0 237 170 362q195 140 639 140q467 0 670 -105q127 -65 186 -180q53 -97 53 -240q0 -118 -76 -204.5t-190 -128.5z" />
    <glyph glyph-name="three" unicode="3" horiz-adv-x="1853" 
d="M1853 989q0 -169 -213 -268q213 -99 213 -270q0 -44 -8.5 -86t-34 -92.5t-66 -93t-111 -84t-162.5 -70.5t-227 -46.5t-298 -17.5q-451 0 -641 139q-170 123 -170 363h320q0 -47 8.5 -68t30.5 -37q20 -14 55.5 -29.5t98.5 -34t164.5 -30.5t221.5 -12q137 0 239 22.5
t156 59t79 74.5t26 77q2 56 -31.5 88.5t-111.5 32.5h-433h-8h-4v230h4h8h433q79 0 112 31.5t31 88.5q-1 39 -26 77t-79 74.5t-156 59.5t-239 23q-224 0 -357.5 -36t-182.5 -73q-21 -14 -30 -35.5t-9 -66.5h-320q0 237 170 362q195 140 641 140q163 0 298 -17.5t227 -46.5
t162.5 -70.5t111 -84.5t66 -93.5t34 -92.5t8.5 -87z" />
    <glyph glyph-name="four" unicode="4" horiz-adv-x="1949" 
d="M1737 1434v-775h213v-280h-213v-379h-322v379h-1239v139v187l1018 729h221h322zM580 659h835v562z" />
    <glyph glyph-name="five" unicode="5" horiz-adv-x="1855" 
d="M496 881q57 8 105.5 14t153 15t192.5 10.5t205 -4t209.5 -22.5t188.5 -51.5t160 -85t104.5 -129t40.5 -177.5q0 -44 -8.5 -86t-34 -92t-66.5 -93t-111.5 -84.5t-163 -70.5t-227.5 -46.5t-298 -17.5q-140 0 -257 16t-199 42t-146 63.5t-102.5 78t-63.5 87.5t-34 88.5
t-9 85.5h322q0 -170 577 -170q111 0 199.5 15.5t143.5 39.5t91.5 55.5t51 62t14.5 60.5q0 69 -65 115.5t-169 64.5t-225.5 24t-244.5 -2.5t-215.5 -19t-147.5 -22.5l-260 -2l65 791h295h1153v-263h-1185z" />
    <glyph glyph-name="six" unicode="6" horiz-adv-x="1910" 
d="M360 778q50 30 137.5 56t197 44t233 23t244.5 -2.5t233 -37.5t198 -77t139 -125.5t56 -179.5q1 -44 -6 -86t-30.5 -93.5t-63 -95.5t-108.5 -87.5t-160.5 -75.5t-225.5 -54t-297 -28h-57q-329 -4 -512 90q-128 66 -194.5 195t-69.5 284q0 13 -2 45q-3 60 -4 97.5t2.5 116
t15 133t37.5 132.5t65 132.5t103 114.5t146 97t198.5 61t257.5 24q161 0 290 -14t217 -37t153.5 -58.5t102.5 -72t59 -84t29 -89t7 -92.5h-289q-5 21 -12 36t-23 36t-40.5 34t-64.5 28.5t-95.5 21.5t-132.5 12t-176 0q-518 -15 -558 -424zM985 254q111 3 199 21.5t142 44.5
t89.5 59t49 64t12.5 61q-1 42 -47.5 74t-124 48.5t-174.5 23.5t-204 -1t-207.5 -25.5t-190.5 -49.5t-148 -74q-4 -68 33 -138q30 -51 123 -79q97 -27 222.5 -32t225.5 3z" />
    <glyph glyph-name="seven" unicode="7" horiz-adv-x="1935" 
d="M82 1155v279h1853v-279v-39l-956 -1116h-397l979 1155h-1479z" />
    <glyph glyph-name="eight" unicode="8" horiz-adv-x="1931" 
d="M1577 756q50 -11 96.5 -29.5t94.5 -52.5t83 -78t57.5 -110t22.5 -144q0 -157 -125 -268t-303 -111h-440h-59h-441q-178 0 -303 111t-125 268q0 78 22.5 144t57.5 110t83 78t94.5 52.5t96.5 29.5q-47 21 -80.5 39t-72 48.5t-62.5 65t-40.5 85t-16.5 110.5
q0 158 125.5 269.5t304.5 111.5h357h59h356q179 0 304.5 -111.5t125.5 -269.5q0 -60 -16.5 -110.5t-40.5 -85t-62.5 -65t-72 -48.5t-80.5 -39zM590 1204q-38 -19 -63 -72.5t-25 -101.5q0 -47 24.5 -94.5t63.5 -67.5q31 -16 74 -16h340h59h340q43 0 74 16q39 20 63.5 67.5
t24.5 94.5q0 48 -25 101.5t-63 72.5q-33 17 -74 17h-340h-59h-340q-41 0 -74 -17zM1485 225q43 0 77 21t51.5 53t26.5 62.5t9 56.5q0 45 -25.5 93t-62.5 69q-37 16 -76 16h-422h-59h-422q-36 0 -76 -16q-37 -21 -62.5 -69t-25.5 -93q0 -26 9 -56.5t26.5 -62.5t51.5 -53
t77 -21h422h59h422z" />
    <glyph glyph-name="nine" unicode="9" horiz-adv-x="1976" 
d="M1602 1393q128 -66 194.5 -194.5t71.5 -283.5q0 -13 2 -44q4 -79 4.5 -130t-10.5 -155.5t-37.5 -177t-86.5 -163.5t-146.5 -147t-227 -95.5t-319.5 -39.5q-161 0 -290 14t-217.5 36.5t-153.5 58t-102.5 72t-59.5 84.5t-29 89.5t-7 92.5l289 -2q6 -24 15.5 -41.5t30.5 -40
t59.5 -38t94.5 -28.5t144 -18t201 -2q122 4 217 30.5t155 66.5t101 95.5t59.5 111t24.5 120.5q-49 -30 -136.5 -56t-197 -44t-233 -22.5t-245 3t-233.5 37.5t-198 77t-139 125.5t-56 178.5q-1 45 6 87t31 93.5t63.5 95.5t108.5 87.5t160.5 75.5t226 54t297.5 27q18 2 56 2
q325 4 512 -92zM1559 942q6 69 -33 139q-27 51 -123 78q-94 28 -222 33t-227 -2q-111 -3 -199 -21.5t-142 -44.5t-89.5 -59t-48.5 -64t-12 -61q2 -58 88.5 -96t220.5 -47.5t281.5 1t286.5 49t219 95.5z" />
    <glyph glyph-name="colon" unicode=":" horiz-adv-x="514" 
d="M176 0v289h338v-289h-338zM176 739v289h338v-289h-338z" />
    <glyph glyph-name="semicolon" unicode=";" horiz-adv-x="565" 
d="M227 739v289h338v-289h-338zM227 0v289h338v-289l-182 -356h-207l141 356h-90z" />
    <glyph glyph-name="equal" unicode="=" horiz-adv-x="1910" 
d="M258 877v319h1653v-319h-1653zM258 236v321h1653v-321h-1653z" />
    <glyph glyph-name="question" unicode="?" horiz-adv-x="1955" 
d="M1128 0v264h-319v-264h319zM1120 463h-317q-5 0 10.5 29t22.5 40q15 24 49 68q55 76 112 119q30 23 67.5 42t64.5 30t76.5 24t69.5 17.5t79 16t71 13.5q41 9 61.5 14t53 18.5t53.5 31.5q43 38 43 121q0 26 -14.5 47.5t-44 36.5t-64 26.5t-84.5 18.5t-95 11.5t-106 7
t-106.5 3t-107.5 0.5q-127 0 -211.5 -7t-155.5 -25.5t-105 -55.5t-34 -94h-332q0 26 1 44t10.5 57t26.5 71t52.5 73t85.5 76q197 140 662 140q479 0 678 -76q129 -51 196.5 -143t67.5 -218q0 -44 -12 -86.5t-41 -90.5t-88.5 -92.5t-143.5 -78.5q-63 -25 -96.5 -31.5
t-93.5 -15.5t-156 -35q-68 -19 -136.5 -64.5t-68.5 -82.5z" />
    <glyph glyph-name="at" unicode="@" horiz-adv-x="3266" 
d="M2849 1411q203 -147 311 -373q107 -226 107 -532q0 -169 -35 -311t-94 -239.5t-137.5 -166t-164.5 -100t-176 -31.5q-50 0 -95.5 11.5t-93.5 38.5t-87.5 82t-63.5 132q-15 53 -22 96q-231 -231 -602 -231q-442 0 -661.5 163t-219.5 529q0 187 56.5 320.5t170 215.5
t274.5 120.5t380 38.5q349 0 585 -232q1 35 2.5 66t3 50t3 33t2 21t0.5 8l139 -16l139 -14q-16 -155 -16 -611q0 -364 35 -477q14 -46 28 -53q10 -10 43 -10q48 0 94.5 21t89 67t74.5 111t51 160t19 208q0 459 -303 678q-292 207 -846 207q-646 0 -973 -241.5t-327 -719.5
q0 -524 227 -735q39 -36 87 -65t95.5 -49.5t111 -35t115 -23t127 -12.5t127.5 -5t136 2t133.5 6t138.5 8q250 16 375 16v-280q-121 0 -359 -15q-266 -16 -405 -16q-133 0 -262 12q-392 46 -613 254q-154 142 -235 375q-80 238 -80 563q0 344 135 596q126 241 367 391
q399 254 1079 254q647 0 1010 -260zM1696 43q269 0 410.5 80t168.5 260v96v99q-29 180 -170 260t-409 80q-303 0 -445.5 -103t-142.5 -336q0 -232 142.5 -334t445.5 -102z" />
    <glyph glyph-name="A" unicode="A" 
d="M2210 0l-199 285h-1278l-201 -285h-389l1004 1434h450l1004 -1434h-391zM930 565h885l-443 631z" />
    <glyph glyph-name="B" unicode="B" horiz-adv-x="1966" 
d="M1759 745q104 -57 166 -159.5t62 -227.5q0 -149 -126 -253.5t-305 -104.5h-1060h-320v279v296v281v297v281h320h977q178 0 304 -105.5t126 -253.5q0 -98 -38 -183.5t-106 -146.5zM496 1153v-297h960q43 0 74 16q40 19 64 55t24 77q0 42 -24 77t-64 56q-37 16 -74 16h-960
zM1538 279q39 0 76 16q40 21 64 56t24 77q0 41 -24.5 76.5t-63.5 54.5q-31 16 -76 16h-1042v-296h1042z" />
    <glyph glyph-name="C" unicode="C" horiz-adv-x="2050" 
d="M1096 1194q-330 0 -485.5 -112t-155.5 -367q0 -254 155.5 -365.5t485.5 -111.5q282 0 435.5 79.5t192.5 257.5h326q-40 -324 -278 -471t-676 -147q-482 0 -721.5 179.5t-239.5 578.5q0 203 61.5 349t185.5 236.5t299.5 132.5t414.5 42q438 0 676 -147.5t278 -471.5h-326
q-39 178 -192.5 258t-435.5 80z" />
    <glyph glyph-name="D" unicode="D" horiz-adv-x="1992" 
d="M1083 1434q466 0 698 -170t232 -549q0 -378 -232 -547.5t-698 -169.5h-907v1436h907zM1083 276q313 0 461 103t148 336q0 234 -147.5 336t-461.5 102h-587v-877h587z" />
    <glyph glyph-name="E" unicode="E" horiz-adv-x="1794" 
d="M176 1434h320h1319v-281h-1319v-297h1239v-281h-1239v-299h1319v-278h-1639v2v276v299v281v297v281z" />
    <glyph glyph-name="F" unicode="F" horiz-adv-x="1794" 
d="M176 1434h320h1319v-281h-1319v-338h1239v-278h-1239v-537h-320v1434z" />
    <glyph glyph-name="G" unicode="G" horiz-adv-x="2043" 
d="M1026 532v261h1018v-261v-532h-229l-5 229q-139 -119 -320.5 -195.5t-393.5 -76.5q-482 0 -721.5 179.5t-239.5 578.5q0 203 61.5 349t185.5 236.5t299.5 132.5t414.5 42q404 0 638 -125t298 -398h-340q-62 127 -208.5 184.5t-387.5 57.5q-330 0 -485.5 -112t-155.5 -367
q0 -254 155.5 -365.5t485.5 -111.5q148 0 290 39.5t233.5 108.5t94.5 146h-688z" />
    <glyph glyph-name="H" unicode="H" horiz-adv-x="2084" 
d="M1763 858v576h322v-1434h-322v578h-1267v-578h-320v1434h320v-576h1267z" />
    <glyph glyph-name="I" unicode="I" horiz-adv-x="497" 
d="M176 0v1434h322v-1434h-322z" />
    <glyph glyph-name="J" unicode="J" horiz-adv-x="1329" 
d="M1008 1434h321v-478q-1 -236 -43.5 -410.5t-132.5 -297.5t-236 -184.5t-348 -61.5h-393v281h393q102 0 178 30t126 85t80 141t42.5 188.5t12.5 237.5v149h-361v320h361z" />
    <glyph glyph-name="K" unicode="K" horiz-adv-x="1943" 
d="M1962 1432l-893 -635l895 -797h-475l-672 600l-321 -250v-350h-320v1432h320v-668l936 668h530z" />
    <glyph glyph-name="L" unicode="L" horiz-adv-x="1734" 
d="M496 1434v-1153h1259v-281h-1259h-160h-160v1434h320z" />
    <glyph glyph-name="M" unicode="M" horiz-adv-x="2353" 
d="M2236 1432h117v-1434h-319v1098l-664 -1098h-8h-96h-97h-8l-663 1098v-1098h-322v1434h117h321l652 -1067l651 1067h319z" />
    <glyph glyph-name="N" unicode="N" horiz-adv-x="2113" 
d="M1794 305v1129h320v-1434h-320h-104h-9l-1185 1128v-1128h-320v1434h436z" />
    <glyph glyph-name="O" unicode="O" horiz-adv-x="2058" 
d="M1098 1475q239 0 414.5 -42t299 -132.5t185 -236.5t61.5 -349t-61.5 -348.5t-185 -235.5t-299 -132t-414.5 -42q-482 0 -722.5 179.5t-240.5 578.5q0 203 62 349t186 236.5t300 132.5t415 42zM1098 238q330 0 485.5 111.5t155.5 365.5q0 255 -155.5 367t-485.5 112
q-331 0 -487 -112t-156 -367q0 -254 156 -365.5t487 -111.5z" />
    <glyph glyph-name="P" unicode="P" horiz-adv-x="1939" 
d="M1348 1434q166 0 307 -70t223 -190.5t82 -262.5t-82 -263t-223 -191t-307 -70h-852v-387h-320v1434h1172zM1348 668q112 0 190 71t78 172q0 100 -78 171t-190 71h-852v-485h852z" />
    <glyph glyph-name="Q" unicode="Q" horiz-adv-x="2060" 
d="M1098 1475q239 0 415 -42t300 -132.5t185.5 -236.5t61.5 -349q0 -284 -123 -456t-366 -245l258 -415h-361l-178 366q-81 -8 -192 -8q-482 0 -722.5 179.5t-240.5 578.5q0 203 62 349t186 236.5t300 132.5t415 42zM1098 238q330 0 485.5 111.5t155.5 365.5
q0 255 -155.5 367t-485.5 112q-331 0 -487 -112t-156 -367q0 -254 156 -365.5t487 -111.5z" />
    <glyph glyph-name="R" unicode="R" horiz-adv-x="1939" 
d="M1960 911q0 -156 -97.5 -284.5t-256.5 -190.5l352 -436h-377l-299 387h-786v-387h-320v1434h1174q166 0 306.5 -70t222 -190.5t81.5 -262.5zM1350 668q111 0 189.5 71t78.5 172q0 100 -79 171t-189 71h-854v-485h854z" />
    <glyph glyph-name="S" unicode="S" horiz-adv-x="1966" 
d="M1745 762q117 -56 174 -152q47 -81 47 -196q0 -44 -10 -85t-33.5 -87.5t-72 -89.5t-117.5 -74q-203 -92 -641 -92q-310 0 -508.5 48.5t-302.5 149.5q-42 41 -68 80t-35.5 77.5t-11.5 58.5t-2 55v10h332q0 -46 13.5 -78.5t48 -55t76 -35t117 -19.5t149 -9t192.5 -2
q105 0 191 6.5t141.5 16.5t97 24.5t63 27.5t34.5 28.5t16 25t3 19.5q0 45 -86.5 83t-206.5 60t-260 33q-205 15 -289.5 22.5t-196.5 26.5t-181 47q-83 34 -141.5 78.5t-88 92t-41.5 90.5t-12 87q0 258 264 361q194 75 676 75q467 0 662 -139q50 -35 85.5 -76t52.5 -72.5
t26.5 -70.5t10.5 -57t1 -45h-330q0 46 -24 79t-65 52.5t-108 31t-138.5 15.5t-172.5 4q-592 0 -592 -141q0 -32 29 -58.5t83.5 -45t113.5 -32.5t138 -23.5t136.5 -15t128.5 -10.5q282 -22 414.5 -41.5t218.5 -62.5z" />
    <glyph glyph-name="T" unicode="T" horiz-adv-x="2093" 
d="M1276 1434h817v-281h-817v-1153h-322v1153h-819v281h819h322z" />
    <glyph glyph-name="U" unicode="U" horiz-adv-x="2009" 
d="M1704 715v719h305v-719q0 -399 -228.5 -578.5t-686.5 -179.5q-228 0 -396 42t-286 132t-177 235.5t-59 348.5v719h305v-719q0 -254 148.5 -365.5t464.5 -111.5q314 0 462 111.5t148 365.5z" />
    <glyph glyph-name="V" unicode="V" horiz-adv-x="2594" 
d="M1364 236l840 1198h391l-1006 -1434h-450l-1004 1434h391z" />
    <glyph glyph-name="W" unicode="W" horiz-adv-x="3512" 
d="M2523 236l600 1198h389l-764 -1434h-450l-473 1092l-475 -1092h-451l-764 1434h391l598 -1198l500 1198h399z" />
    <glyph glyph-name="X" unicode="X" horiz-adv-x="2342" 
d="M2343 1434l-854 -717l854 -717h-498l-606 508l-606 -508h-498l856 717l-854 717h498l604 -508l606 508h498z" />
    <glyph glyph-name="Y" unicode="Y" horiz-adv-x="2340" 
d="M1237 782l616 652h488l-944 -916v-518h-320v518l-942 916h486z" />
    <glyph glyph-name="Z" unicode="Z" horiz-adv-x="1918" 
d="M1919 1434v-281l-1290 -872h1290v-281h-1743v281l1288 872h-1288v281h1743z" />
    <glyph glyph-name="bracketleft" unicode="[" horiz-adv-x="1341" 
d="M178 1907h318h845v-279h-845v-1775h845v-281h-845h-318h-2v2335h2z" />
    <glyph glyph-name="backslash" unicode="\" horiz-adv-x="1122" 
d="M176 1907h320l626 -2335h-321z" />
    <glyph glyph-name="bracketright" unicode="]" horiz-adv-x="1341" 
d="M1020 1907h317h4v-2335h-4h-317h-844v281h844v1775h-844v279h844z" />
    <glyph glyph-name="asciicircum" unicode="^" horiz-adv-x="1982" 
d="M1257 1649h46l679 -971h-319l-543 774l-542 -774h-320l680 971h45h274z" />
    <glyph glyph-name="underscore" unicode="_" horiz-adv-x="2299" 
d="M258 -463v273h2042v-273h-2042z" />
    <glyph glyph-name="grave" unicode="`" horiz-adv-x="1054" 
d="M1055 1616v-242l-797 164v242z" />
    <glyph glyph-name="a" unicode="a" 
d="M2210 0l-199 285h-1278l-201 -285h-389l1004 1434h450l1004 -1434h-391zM930 565h885l-443 631z" />
    <glyph glyph-name="b" unicode="b" horiz-adv-x="1966" 
d="M1759 745q104 -57 166 -159.5t62 -227.5q0 -149 -126 -253.5t-305 -104.5h-1060h-320v279v296v281v297v281h320h977q178 0 304 -105.5t126 -253.5q0 -98 -38 -183.5t-106 -146.5zM496 1153v-297h960q43 0 74 16q40 19 64 55t24 77q0 42 -24 77t-64 56q-37 16 -74 16h-960
zM1538 279q39 0 76 16q40 21 64 56t24 77q0 41 -24.5 76.5t-63.5 54.5q-31 16 -76 16h-1042v-296h1042z" />
    <glyph glyph-name="c" unicode="c" horiz-adv-x="2050" 
d="M1096 1194q-330 0 -485.5 -112t-155.5 -367q0 -254 155.5 -365.5t485.5 -111.5q282 0 435.5 79.5t192.5 257.5h326q-40 -324 -278 -471t-676 -147q-482 0 -721.5 179.5t-239.5 578.5q0 203 61.5 349t185.5 236.5t299.5 132.5t414.5 42q438 0 676 -147.5t278 -471.5h-326
q-39 178 -192.5 258t-435.5 80z" />
    <glyph glyph-name="d" unicode="d" horiz-adv-x="1992" 
d="M1083 1434q466 0 698 -170t232 -549q0 -378 -232 -547.5t-698 -169.5h-907v1436h907zM1083 276q313 0 461 103t148 336q0 234 -147.5 336t-461.5 102h-587v-877h587z" />
    <glyph glyph-name="e" unicode="e" horiz-adv-x="1794" 
d="M176 1434h320h1319v-281h-1319v-297h1239v-281h-1239v-299h1319v-278h-1639v2v276v299v281v297v281z" />
    <glyph glyph-name="f" unicode="f" horiz-adv-x="1794" 
d="M176 1434h320h1319v-281h-1319v-338h1239v-278h-1239v-537h-320v1434z" />
    <glyph glyph-name="g" unicode="g" horiz-adv-x="2043" 
d="M1026 532v261h1018v-261v-532h-229l-5 229q-139 -119 -320.5 -195.5t-393.5 -76.5q-482 0 -721.5 179.5t-239.5 578.5q0 203 61.5 349t185.5 236.5t299.5 132.5t414.5 42q404 0 638 -125t298 -398h-340q-62 127 -208.5 184.5t-387.5 57.5q-330 0 -485.5 -112t-155.5 -367
q0 -254 155.5 -365.5t485.5 -111.5q148 0 290 39.5t233.5 108.5t94.5 146h-688z" />
    <glyph glyph-name="h" unicode="h" horiz-adv-x="2084" 
d="M1763 858v576h322v-1434h-322v578h-1267v-578h-320v1434h320v-576h1267z" />
    <glyph glyph-name="i" unicode="i" horiz-adv-x="497" 
d="M176 0v1434h322v-1434h-322z" />
    <glyph glyph-name="j" unicode="j" horiz-adv-x="1329" 
d="M1008 1434h321v-478q-1 -236 -43.5 -410.5t-132.5 -297.5t-236 -184.5t-348 -61.5h-393v281h393q102 0 178 30t126 85t80 141t42.5 188.5t12.5 237.5v149h-361v320h361z" />
    <glyph glyph-name="k" unicode="k" horiz-adv-x="1943" 
d="M1962 1432l-893 -635l895 -797h-475l-672 600l-321 -250v-350h-320v1432h320v-668l936 668h530z" />
    <glyph glyph-name="l" unicode="l" horiz-adv-x="1734" 
d="M496 1434v-1153h1259v-281h-1259h-160h-160v1434h320z" />
    <glyph glyph-name="m" unicode="m" horiz-adv-x="2353" 
d="M2236 1432h117v-1434h-319v1098l-664 -1098h-8h-96h-97h-8l-663 1098v-1098h-322v1434h117h321l652 -1067l651 1067h319z" />
    <glyph glyph-name="n" unicode="n" horiz-adv-x="2113" 
d="M1794 305v1129h320v-1434h-320h-104h-9l-1185 1128v-1128h-320v1434h436z" />
    <glyph glyph-name="o" unicode="o" horiz-adv-x="2058" 
d="M1098 1475q239 0 414.5 -42t299 -132.5t185 -236.5t61.5 -349t-61.5 -348.5t-185 -235.5t-299 -132t-414.5 -42q-482 0 -722.5 179.5t-240.5 578.5q0 203 62 349t186 236.5t300 132.5t415 42zM1098 238q330 0 485.5 111.5t155.5 365.5q0 255 -155.5 367t-485.5 112
q-331 0 -487 -112t-156 -367q0 -254 156 -365.5t487 -111.5z" />
    <glyph glyph-name="p" unicode="p" horiz-adv-x="1939" 
d="M1348 1434q166 0 307 -70t223 -190.5t82 -262.5t-82 -263t-223 -191t-307 -70h-852v-387h-320v1434h1172zM1348 668q112 0 190 71t78 172q0 100 -78 171t-190 71h-852v-485h852z" />
    <glyph glyph-name="q" unicode="q" horiz-adv-x="2060" 
d="M1098 1475q239 0 415 -42t300 -132.5t185.5 -236.5t61.5 -349q0 -284 -123 -456t-366 -245l258 -415h-361l-178 366q-81 -8 -192 -8q-482 0 -722.5 179.5t-240.5 578.5q0 203 62 349t186 236.5t300 132.5t415 42zM1098 238q330 0 485.5 111.5t155.5 365.5
q0 255 -155.5 367t-485.5 112q-331 0 -487 -112t-156 -367q0 -254 156 -365.5t487 -111.5z" />
    <glyph glyph-name="r" unicode="r" horiz-adv-x="1939" 
d="M1960 911q0 -156 -97.5 -284.5t-256.5 -190.5l352 -436h-377l-299 387h-786v-387h-320v1434h1174q166 0 306.5 -70t222 -190.5t81.5 -262.5zM1350 668q111 0 189.5 71t78.5 172q0 100 -79 171t-189 71h-854v-485h854z" />
    <glyph glyph-name="s" unicode="s" horiz-adv-x="1966" 
d="M1745 762q117 -56 174 -152q47 -81 47 -196q0 -44 -10 -85t-33.5 -87.5t-72 -89.5t-117.5 -74q-203 -92 -641 -92q-310 0 -508.5 48.5t-302.5 149.5q-42 41 -68 80t-35.5 77.5t-11.5 58.5t-2 55v10h332q0 -46 13.5 -78.5t48 -55t76 -35t117 -19.5t149 -9t192.5 -2
q105 0 191 6.5t141.5 16.5t97 24.5t63 27.5t34.5 28.5t16 25t3 19.5q0 45 -86.5 83t-206.5 60t-260 33q-205 15 -289.5 22.5t-196.5 26.5t-181 47q-83 34 -141.5 78.5t-88 92t-41.5 90.5t-12 87q0 258 264 361q194 75 676 75q467 0 662 -139q50 -35 85.5 -76t52.5 -72.5
t26.5 -70.5t10.5 -57t1 -45h-330q0 46 -24 79t-65 52.5t-108 31t-138.5 15.5t-172.5 4q-592 0 -592 -141q0 -32 29 -58.5t83.5 -45t113.5 -32.5t138 -23.5t136.5 -15t128.5 -10.5q282 -22 414.5 -41.5t218.5 -62.5z" />
    <glyph glyph-name="t" unicode="t" horiz-adv-x="2093" 
d="M1276 1434h817v-281h-817v-1153h-322v1153h-819v281h819h322z" />
    <glyph glyph-name="u" unicode="u" horiz-adv-x="2009" 
d="M1704 715v719h305v-719q0 -399 -228.5 -578.5t-686.5 -179.5q-228 0 -396 42t-286 132t-177 235.5t-59 348.5v719h305v-719q0 -254 148.5 -365.5t464.5 -111.5q314 0 462 111.5t148 365.5z" />
    <glyph glyph-name="v" unicode="v" horiz-adv-x="2594" 
d="M1364 236l840 1198h391l-1006 -1434h-450l-1004 1434h391z" />
    <glyph glyph-name="w" unicode="w" horiz-adv-x="3512" 
d="M2523 236l600 1198h389l-764 -1434h-450l-473 1092l-475 -1092h-451l-764 1434h391l598 -1198l500 1198h399z" />
    <glyph glyph-name="x" unicode="x" horiz-adv-x="2342" 
d="M2343 1434l-854 -717l854 -717h-498l-606 508l-606 -508h-498l856 717l-854 717h498l604 -508l606 508h498z" />
    <glyph glyph-name="y" unicode="y" horiz-adv-x="2340" 
d="M1237 782l616 652h488l-944 -916v-518h-320v518l-942 916h486z" />
    <glyph glyph-name="z" unicode="z" horiz-adv-x="1918" 
d="M1919 1434v-281l-1290 -872h1290v-281h-1743v281l1288 872h-1288v281h1743z" />
    <glyph glyph-name="braceleft" unicode="{" horiz-adv-x="1501" 
d="M987 1864q119 27 262 37q85 6 252 10v-299q-159 4 -237 2q-109 -3 -226 -19q-119 -20 -188 -59q-27 -14 -72 -53q-35 -35 -53 -70q-2 -4 -6 -11t-6 -11q-8 -12 -11 -21q-12 -25 -18 -47q-16 -44 -29 -104q-19 -100 -26 -228v-28l-2 -33q-3 -72 -46.5 -105.5t-127.5 -50.5
q-23 -6 -47 -33q24 -24 47 -30q86 -20 128.5 -52.5t45.5 -105.5l2 -33v-28q7 -128 26 -228q14 -60 29 -102q7 -28 18 -47q3 -10 11 -23q4 -8 12 -20q18 -37 53 -72q39 -34 72 -51q72 -44 188 -60q87 -14 226 -18q117 -3 237 0v-299q-167 4 -252 12q-156 11 -262 35
q-8 1 -69 16q-7 2 -68 23q-7 2 -68 29q-22 9 -67 37q-68 41 -121 100q-46 48 -88 127q-16 32 -17 35q-8 16 -14 34q-2 4 -24 68q-22 82 -29 135q-16 120 -16 262v33v29q0 19 -3 28t-4 11q-6 6 -14 10q-6 2 -19.5 5.5t-17.5 4.5q-28 4 -49 4q-7 0 -61.5 1t-61.5 1v56v149v55
h123q40 4 49 7q19 3 37 10q12 6 14 10q1 1 4 10q3 6 3 27v29v32q0 143 16 263q7 52 29 135l24 69q12 29 14 33q1 3 17 35q38 74 88 127q53 59 121 100q45 28 67 37q17 9 68 31q26 9 68 20q6 1 31 8t38 9z" />
    <glyph glyph-name="bar" unicode="|" horiz-adv-x="573" 
d="M254 -428v2335h319v-2335h-319z" />
    <glyph glyph-name="braceright" unicode="}" horiz-adv-x="1501" 
d="M1331 879q9 -3 49 -7h121v-55v-149v-56q-7 0 -61 -1t-60 -1q-21 0 -49 -4q-34 -8 -37 -10q-8 -4 -14 -10q-4 -8 -4 -11q-4 -12 -4 -28l2 -29v-33q0 -135 -17 -262q-16 -90 -30 -135q-2 -8 -23 -68q-2 -6 -7 -17t-7 -17q-3 -9 -16 -35q-37 -69 -89 -127q-51 -56 -120 -100
q-43 -26 -68 -37q-61 -27 -68 -29q-8 -3 -32 -11.5t-37 -11.5q-48 -13 -68 -16q-110 -24 -262 -35q-86 -8 -254 -12v299q123 -3 240 0q138 4 225 18q113 16 188 60q39 20 70 51q34 34 55 72q12 18 13 20q3 9 10 23q3 7 18 47q15 42 29 102q22 113 25 228q2 10 2 28l2 33
q1 73 44 105.5t130 52.5q20 5 45 30q-24 28 -45 33q-85 17 -129 50.5t-45 105.5l-2 33q0 20 -2 28q-3 115 -25 228q-13 60 -29 104q-3 8 -9 23.5t-9 23.5q-6 9 -10 21q-2 4 -6.5 11t-6.5 11q-22 37 -55 70q-35 35 -70 53q-71 39 -188 59q-117 16 -225 19q-77 2 -240 -2v299
q168 -4 254 -10q139 -10 262 -37q9 -1 68 -17q35 -9 69 -20q52 -22 68 -31q25 -11 68 -37q69 -44 120 -100q56 -62 89 -127q13 -26 16 -35q2 -5 7 -16.5t7 -16.5q3 -8 11.5 -32t11.5 -37q14 -45 30 -135q17 -128 17 -263v-32l-2 -29q0 -19 4 -27q0 -6 4 -10q2 -4 14 -10
q14 -7 37 -10z" />
    <glyph glyph-name="asciitilde" unicode="~" horiz-adv-x="1896" 
d="M258 369q0 127 14 226t46.5 181t84 136t128.5 83t178 29q74 0 138.5 -19t110 -49.5t86.5 -67.5t78 -74t73.5 -67.5t82.5 -49.5t98 -19q101 0 144 75t43 271h333q0 -160 -22.5 -276.5t-74 -204t-139.5 -131t-214 -43.5q-74 0 -138.5 19t-110.5 49.5t-87 67.5t-77.5 74
t-73.5 67.5t-83 49.5t-98 19q-101 0 -143.5 -75t-42.5 -271h-334z" />
    <glyph glyph-name="exclamdown" unicode="&#xa1;" horiz-adv-x="544" 
d="M184 954v275h351v-275h-351zM545 -205h-369l8 989h353z" />
    <glyph glyph-name="dieresis" unicode="&#xa8;" horiz-adv-x="1153" 
d="M258 1706h363v-299h-363v299zM791 1706h362v-299h-362v299z" />
    <glyph glyph-name="copyright" unicode="&#xa9;" horiz-adv-x="2971" 
d="M1616 1806q337 0 585 -59t422.5 -186t261.5 -332.5t87 -491.5q0 -285 -87 -490t-261.5 -332t-422.5 -186t-585 -59q-336 0 -583.5 59t-422 186t-261.5 332t-87 490q0 286 87 491.5t261.5 332.5t422 186t583.5 59zM1616 -86q284 0 488 45t344.5 143.5t208 255.5t67.5 379
t-67.5 379.5t-207.5 256.5t-344.5 144.5t-488.5 45.5t-488 -45.5t-343.5 -144.5t-207 -256.5t-67.5 -379.5t67.5 -379t207 -255.5t343.5 -143.5t488 -45zM2103 616h252q-31 -250 -214.5 -363.5t-520.5 -113.5q-371 0 -556 138.5t-185 447.5q0 307 185 445.5t556 138.5
q337 0 520 -113.5t215 -364.5h-252q-30 138 -148 200.5t-335 62.5q-255 0 -375.5 -87t-120.5 -282q0 -196 120.5 -282.5t375.5 -86.5q218 0 335.5 61.5t147.5 198.5z" />
    <glyph glyph-name="registered" unicode="&#xae;" horiz-adv-x="1925" 
d="M1094 1800q417 0 624 -155t207 -500q0 -346 -207 -502t-624 -156t-624.5 156t-207.5 502q0 345 207.5 500t624.5 155zM1094 637q351 0 515.5 118.5t164.5 389.5q0 269 -165 387.5t-515 118.5t-515 -118.5t-165 -387.5q0 -271 164.5 -389.5t515.5 -118.5zM1565 1237
q0 -74 -47 -135.5t-123 -91.5l170 -209h-181l-143 186h-377v-186h-151v686h561q120 0 205.5 -73.5t85.5 -176.5zM864 1354v-234h410q52 0 89.5 34.5t37.5 82.5t-37.5 82.5t-89.5 34.5h-410z" />
    <glyph glyph-name="degree" unicode="&#xb0;" horiz-adv-x="1509" 
d="M897 733q158 0 245 91.5t87 224.5q0 134 -87 225.5t-245 91.5t-245 -91.5t-87 -225.5q0 -133 87 -224.5t245 -91.5zM897 1653q133 0 238 -31t174 -85t114 -131.5t64.5 -165t19.5 -191.5q0 -85 -14 -160t-43 -143.5t-77.5 -122.5t-114.5 -94t-158 -61.5t-203 -21.5
t-203 21.5t-158 61.5t-114.5 94t-77.5 122.5t-43 143.5t-14 160q0 104 19.5 191.5t64.5 165t114 131.5t174 85t238 31z" />
    <glyph glyph-name="acute" unicode="&#xb4;" horiz-adv-x="1054" 
d="M258 1616l797 164v-242l-797 -164v242z" />
    <glyph glyph-name="periodcentered" unicode="&#xb7;" horiz-adv-x="526" 
d="M176 780h350v-274h-350v274z" />
    <glyph glyph-name="questiondown" unicode="&#xbf;" horiz-adv-x="1955" 
d="M1001 1477v-265h322v265h-322zM1010 1014h317q4 0 -3.5 -16t-17 -34t-10.5 -20q-8 -11 -24.5 -33.5t-24.5 -33.5q-56 -77 -114 -119q-30 -23 -66.5 -42t-64.5 -30.5t-76 -24.5t-70 -18t-78.5 -16.5t-72.5 -14.5q-121 -22 -166 -61q-45 -38 -45 -123q0 -26 14.5 -47.5
t44.5 -36.5t64.5 -26t85 -18t94.5 -11.5t106 -6.5t106 -2.5t107 -0.5q101 0 173 4t139 15.5t107.5 31t64.5 52.5t24 79h332q0 -35 -3.5 -60.5t-18 -73.5t-54.5 -96.5t-102 -91.5q-195 -139 -662 -139q-477 0 -676 76q-264 104 -264 360q0 44 12 87t41.5 90.5t88 92
t141.5 78.5q63 25 97 31.5t94.5 15.5t156.5 35q68 19 135.5 65t67.5 83z" />
    <glyph glyph-name="Agrave" unicode="&#xc0;" 
d="M2210 0l-199 285h-1278l-201 -285h-389l1004 1434h450l1004 -1434h-391zM930 565h885l-443 631zM948 1991v-242l797 -164v242z" />
    <glyph glyph-name="Aacute" unicode="&#xc1;" 
d="M2210 0l-199 285h-1278l-201 -285h-389l1004 1434h450l1004 -1434h-391zM930 565h885l-443 631zM1753 1970v-241l-797 -164v241z" />
    <glyph glyph-name="Acircumflex" unicode="&#xc2;" 
d="M2210 0l-199 285h-1278l-201 -285h-389l1004 1434h450l1004 -1434h-391zM930 565h885l-443 631zM1769 1749l-305 143h-237l-305 -143v-215l424 195l423 -195v215z" />
    <glyph glyph-name="Atilde" unicode="&#xc3;" 
d="M2210 0l-199 285h-1278l-201 -285h-389l1004 1434h450l1004 -1434h-391zM930 565h885l-443 631zM1165 1788q-72 0 -131 -47t-59 -129l-246 20q0 178 89.5 291t256.5 113q64 0 119.5 -21t94.5 -50.5t75 -59.5t77.5 -51t86.5 -21q47 0 97.5 20t89 63.5t38.5 98.5h244
q0 -114 -45.5 -211.5t-133 -158t-198.5 -60.5q-65 0 -121 21t-95 50.5t-75 59.5t-77.5 51t-86.5 21z" />
    <glyph glyph-name="Adieresis" unicode="&#xc4;" 
d="M2210 0l-199 285h-1278l-201 -285h-389l1004 1434h450l1004 -1434h-391zM930 565h885l-443 631zM1800 1565v264h-319v-264h319zM1198 1565v264h-321v-264h321z" />
    <glyph glyph-name="Aring" unicode="&#xc5;" 
d="M2210 0l-199 285h-1278l-201 -285h-389l1004 1434h450l1004 -1434h-391zM930 565h885l-443 631zM1346 1782q118 0 182.5 55t64.5 135q0 79 -64.5 134t-182.5 55t-184 -55t-66 -134q0 -80 65.5 -135t184.5 -55zM1346 2333q124 0 214.5 -28t142.5 -78.5t76.5 -113.5
t24.5 -141t-24.5 -141.5t-76.5 -114t-142.5 -78.5t-214.5 -28q-100 0 -179 18.5t-131 51t-86 78.5t-48.5 99t-14.5 115q0 78 24.5 141t76.5 113.5t143 78.5t215 28z" />
    <glyph glyph-name="AE" unicode="&#xc6;" horiz-adv-x="3002" 
d="M3002 1153h-1319v-299h1239v-281h-1239v-297h1319v-280h-1638v4v276v9h-639l-199 -285h-391l1004 1434h225h319h1319v-281zM1364 1153v43l-442 -631h442v8v281v299z" />
    <glyph glyph-name="Ccedilla" unicode="&#xc7;" horiz-adv-x="2052" 
d="M1098 236q282 0 435.5 79.5t192.5 257.5h326q-39 -310 -256.5 -457t-617.5 -159q-6 -56 -9 -102q3 0 23 -5q7 0 21.5 -3t17.5 -3q2 -1 18 -5.5t25 -8.5q23 -10 47 -31q24 -24 33 -53q4 -11 8 -29q2 -8 2 -26q0 -21 -2 -31q-6 -22 -8 -27q-17 -46 -58 -82q-36 -29 -77 -47
q-25 -9 -78 -22q-29 -6 -78 -10q-27 -2 -76 -2l-72 -2h-34h-35l39 217q1 -1 3 -2t3 -2l8 -3q2 -1 7 -3t7 -3q12 -2 31 -10q36 -11 62 -16q20 -4 28 -6q6 -2 15 -2l6 -3h4h4q18 -2 55 -2q4 1 13.5 2.5t13.5 2.5t11.5 2t10.5 2q8 4 13 4q4 4 8 4q12 6 18 10q1 1 6.5 5.5
t6.5 6.5q2 2 4.5 6t3.5 5q0 1 1 3t1 3v2v6v4q0 2 -2 4t-8 4q-5 3 -19 6q-16 4 -26 6q-3 0 -33 5q-13 0 -21 2q-9 0 -24 6q-7 0 -19 6q-17 11 -24 20q-8 6 -15 19q-1 2 -2 6t-2 6q-2 4 -2 10q-2 4 -2 13v2v4q0 6 -1 17t-1 16q-3 51 -12 104q-440 14 -660.5 194.5
t-220.5 561.5q0 203 62 349t186 236.5t300 132.5t415 42q438 0 676 -147.5t278 -471.5h-326q-39 178 -192.5 258t-435.5 80q-330 0 -485.5 -112t-155.5 -367q0 -254 155.5 -365.5t485.5 -111.5zM1139 -139l2 -2v2h-2z" />
    <glyph glyph-name="Egrave" unicode="&#xc8;" horiz-adv-x="1794" 
d="M176 1434h320h1319v-281h-1319v-297h1239v-281h-1239v-299h1319v-278h-1639v2v276v299v281v297v281zM588 2032v-242l796 -164v242z" />
    <glyph glyph-name="Eacute" unicode="&#xc9;" horiz-adv-x="1794" 
d="M176 1434h320h1319v-281h-1319v-297h1239v-281h-1239v-299h1319v-278h-1639v2v276v299v281v297v281zM1438 2032v-242l-797 -164v242z" />
    <glyph glyph-name="Ecircumflex" unicode="&#xca;" horiz-adv-x="1794" 
d="M176 1434h320h1319v-281h-1319v-297h1239v-281h-1239v-299h1319v-278h-1639v2v276v299v281v297v281zM1421 1810l-305 144h-237l-306 -144v-215l424 195l424 -195v215z" />
    <glyph glyph-name="Edieresis" unicode="&#xcb;" horiz-adv-x="1794" 
d="M176 1434h320h1319v-281h-1319v-297h1239v-281h-1239v-299h1319v-278h-1639v2v276v299v281v297v281zM1462 1626v264h-319v-264h319zM860 1626v264h-321v-264h321z" />
    <glyph glyph-name="Igrave" unicode="&#xcc;" horiz-adv-x="497" 
d="M-61 0v1434h321v-1434h-321zM-299 2032v-242l797 -164v242z" />
    <glyph glyph-name="Iacute" unicode="&#xcd;" horiz-adv-x="497" 
d="M-68 0v1434h322v-1434h-322zM485 2032v-242l-796 -164v242z" />
    <glyph glyph-name="Icircumflex" unicode="&#xce;" horiz-adv-x="497" 
d="M-82 0v1434h322v-1434h-322zM508 1810l-305 144h-238l-305 -144v-215l424 195l424 -195v215z" />
    <glyph glyph-name="Idieresis" unicode="&#xcf;" horiz-adv-x="497" 
d="M-123 0v1434h322v-1434h-322zM-100 1626v264h-322v-264h322zM502 1626v264h-320v-264h320z" />
    <glyph glyph-name="Eth" unicode="&#xd0;" horiz-adv-x="2220" 
d="M1303 1434q466 0 697.5 -170t231.5 -549q0 -378 -232 -548.5t-697 -170.5h-908v579h-219v281h219v578h908zM1303 276q314 0 461 103t147 336t-147 335.5t-461 102.5h-588v-297h426v-281h-426v-299h588z" />
    <glyph glyph-name="Ntilde" unicode="&#xd1;" horiz-adv-x="2113" 
d="M1794 305v1129h320v-1434h-320h-104h-9l-1185 1128v-1128h-320v1434h436zM915 1767q-72 0 -131 -47t-59 -129l-246 21q0 178 89.5 290.5t256.5 112.5q64 0 119.5 -21t94.5 -50.5t75 -59.5t77.5 -51t86.5 -21q47 0 97.5 20.5t89 64t38.5 98.5h244q0 -114 -45.5 -211.5
t-133 -158t-198.5 -60.5q-65 0 -121 21t-95 50.5t-75 59t-77.5 50.5t-86.5 21z" />
    <glyph glyph-name="Ograve" unicode="&#xd2;" horiz-adv-x="2058" 
d="M1098 1475q239 0 414.5 -42t299 -132.5t185 -236.5t61.5 -349t-61.5 -348.5t-185 -235.5t-299 -132t-414.5 -42q-482 0 -722.5 179.5t-240.5 578.5q0 203 62 349t186 236.5t300 132.5t415 42zM1098 238q330 0 485.5 111.5t155.5 365.5q0 255 -155.5 367t-485.5 112
q-331 0 -487 -112t-156 -367q0 -254 156 -365.5t487 -111.5zM696 2032v-242l797 -164v242z" />
    <glyph glyph-name="Oacute" unicode="&#xd3;" horiz-adv-x="2058" 
d="M1098 1475q239 0 414.5 -42t299 -132.5t185 -236.5t61.5 -349t-61.5 -348.5t-185 -235.5t-299 -132t-414.5 -42q-482 0 -722.5 179.5t-240.5 578.5q0 203 62 349t186 236.5t300 132.5t415 42zM1098 238q330 0 485.5 111.5t155.5 365.5q0 255 -155.5 367t-485.5 112
q-331 0 -487 -112t-156 -367q0 -254 156 -365.5t487 -111.5zM1489 2032v-242l-797 -164v242z" />
    <glyph glyph-name="Ocircumflex" unicode="&#xd4;" horiz-adv-x="2058" 
d="M1098 1475q239 0 414.5 -42t299 -132.5t185 -236.5t61.5 -349t-61.5 -348.5t-185 -235.5t-299 -132t-414.5 -42q-482 0 -722.5 179.5t-240.5 578.5q0 203 62 349t186 236.5t300 132.5t415 42zM1098 238q330 0 485.5 111.5t155.5 365.5q0 255 -155.5 367t-485.5 112
q-331 0 -487 -112t-156 -367q0 -254 156 -365.5t487 -111.5zM1516 1810l-306 144h-237l-305 -144v-215l424 195l424 -195v215z" />
    <glyph glyph-name="Otilde" unicode="&#xd5;" horiz-adv-x="2058" 
d="M1098 1475q239 0 414.5 -42t299 -132.5t185 -236.5t61.5 -349t-61.5 -348.5t-185 -235.5t-299 -132t-414.5 -42q-482 0 -722.5 179.5t-240.5 578.5q0 203 62 349t186 236.5t300 132.5t415 42zM1098 238q330 0 485.5 111.5t155.5 365.5q0 255 -155.5 367t-485.5 112
q-331 0 -487 -112t-156 -367q0 -254 156 -365.5t487 -111.5zM895 1767q-72 0 -131 -47t-59 -129l-246 21q0 178 89.5 290.5t256.5 112.5q64 0 119.5 -21t94 -50.5t74.5 -59.5t77.5 -51t86.5 -21q47 0 97.5 20.5t89.5 64t39 98.5h243q0 -114 -45.5 -211.5t-132.5 -158
t-198 -60.5q-65 0 -121 21t-95 50.5t-75 59t-77.5 50.5t-86.5 21z" />
    <glyph glyph-name="Odieresis" unicode="&#xd6;" horiz-adv-x="2058" 
d="M1098 1475q239 0 414.5 -42t299 -132.5t185 -236.5t61.5 -349t-61.5 -348.5t-185 -235.5t-299 -132t-414.5 -42q-482 0 -722.5 179.5t-240.5 578.5q0 203 62 349t186 236.5t300 132.5t415 42zM1098 238q330 0 485.5 111.5t155.5 365.5q0 255 -155.5 367t-485.5 112
q-331 0 -487 -112t-156 -367q0 -254 156 -365.5t487 -111.5zM1554 1626v264h-319v-264h319zM952 1626v264h-321v-264h321z" />
    <glyph glyph-name="multiply" unicode="&#xd7;" horiz-adv-x="1822" 
d="M1823 971l-492 -283l492 -285l-146 -251l-637 368l-637 -368l-145 251l492 285l-492 283l145 252l637 -369l637 369z" />
    <glyph glyph-name="Oslash" unicode="&#xd8;" horiz-adv-x="2058" 
d="M1677 1382q379 -170 379 -659q0 -203 -61.5 -349t-185.5 -236.5t-300 -132.5t-415 -42q-160 0 -314 23l-153 -240h-322l205 315q-379 170 -379 662q0 399 240.5 578.5t722.5 179.5q159 0 313 -23l154 240h319zM451 723q0 -153 55 -252.5t168 -153.5l563 877q-68 6 -143 6
q-330 0 -486.5 -111.5t-156.5 -365.5zM1094 244q330 0 485.5 112t155.5 367q0 152 -54.5 250.5t-167.5 154.5l-563 -878q68 -6 144 -6z" />
    <glyph glyph-name="Ugrave" unicode="&#xd9;" horiz-adv-x="2009" 
d="M1704 715v719h305v-719q0 -399 -228.5 -578.5t-686.5 -179.5q-228 0 -396 42t-286 132t-177 235.5t-59 348.5v719h305v-719q0 -254 148.5 -365.5t464.5 -111.5q314 0 462 111.5t148 365.5zM692 2032v-242l797 -164v242z" />
    <glyph glyph-name="Uacute" unicode="&#xda;" horiz-adv-x="2009" 
d="M1704 715v719h305v-719q0 -399 -228.5 -578.5t-686.5 -179.5q-228 0 -396 42t-286 132t-177 235.5t-59 348.5v719h305v-719q0 -254 148.5 -365.5t464.5 -111.5q314 0 462 111.5t148 365.5zM1497 2032v-242l-797 -164v242z" />
    <glyph glyph-name="Ucircumflex" unicode="&#xdb;" horiz-adv-x="2009" 
d="M1704 715v719h305v-719q0 -399 -228.5 -578.5t-686.5 -179.5q-228 0 -396 42t-286 132t-177 235.5t-59 348.5v719h305v-719q0 -254 148.5 -365.5t464.5 -111.5q314 0 462 111.5t148 365.5zM1524 1810l-305 144h-238l-305 -144v-215l424 195l424 -195v215z" />
    <glyph glyph-name="Udieresis" unicode="&#xdc;" horiz-adv-x="2009" 
d="M1704 715v719h305v-719q0 -399 -228.5 -578.5t-686.5 -179.5q-228 0 -396 42t-286 132t-177 235.5t-59 348.5v719h305v-719q0 -254 148.5 -365.5t464.5 -111.5q314 0 462 111.5t148 365.5zM1567 1626v264h-320v-264h320zM965 1626v264h-322v-264h322z" />
    <glyph glyph-name="Yacute" unicode="&#xdd;" horiz-adv-x="2340" 
d="M1237 782l616 652h488l-944 -916v-518h-320v518l-942 916h486zM1608 2032v-242l-797 -164v242z" />
    <glyph glyph-name="agrave" unicode="&#xe0;" 
d="M2210 0l-199 285h-1278l-201 -285h-389l1004 1434h450l1004 -1434h-391zM930 565h885l-443 631zM948 1991v-242l797 -164v242z" />
    <glyph glyph-name="aacute" unicode="&#xe1;" 
d="M2210 0l-199 285h-1278l-201 -285h-389l1004 1434h450l1004 -1434h-391zM930 565h885l-443 631zM1753 1970v-241l-797 -164v241z" />
    <glyph glyph-name="acircumflex" unicode="&#xe2;" 
d="M2210 0l-199 285h-1278l-201 -285h-389l1004 1434h450l1004 -1434h-391zM930 565h885l-443 631zM1769 1749l-305 143h-237l-305 -143v-215l424 195l423 -195v215z" />
    <glyph glyph-name="atilde" unicode="&#xe3;" 
d="M2210 0l-199 285h-1278l-201 -285h-389l1004 1434h450l1004 -1434h-391zM930 565h885l-443 631zM1165 1788q-72 0 -131 -47t-59 -129l-246 20q0 178 89.5 291t256.5 113q64 0 119.5 -21t94.5 -50.5t75 -59.5t77.5 -51t86.5 -21q47 0 97.5 20t89 63.5t38.5 98.5h244
q0 -114 -45.5 -211.5t-133 -158t-198.5 -60.5q-65 0 -121 21t-95 50.5t-75 59.5t-77.5 51t-86.5 21z" />
    <glyph glyph-name="adieresis" unicode="&#xe4;" 
d="M2210 0l-199 285h-1278l-201 -285h-389l1004 1434h450l1004 -1434h-391zM930 565h885l-443 631zM1800 1565v264h-319v-264h319zM1198 1565v264h-321v-264h321z" />
    <glyph glyph-name="aring" unicode="&#xe5;" 
d="M2210 0l-199 285h-1278l-201 -285h-389l1004 1434h450l1004 -1434h-391zM930 565h885l-443 631zM1346 1782q118 0 182.5 55t64.5 135q0 79 -64.5 134t-182.5 55t-184 -55t-66 -134q0 -80 65.5 -135t184.5 -55zM1346 2333q124 0 214.5 -28t142.5 -78.5t76.5 -113.5
t24.5 -141t-24.5 -141.5t-76.5 -114t-142.5 -78.5t-214.5 -28q-100 0 -179 18.5t-131 51t-86 78.5t-48.5 99t-14.5 115q0 78 24.5 141t76.5 113.5t143 78.5t215 28z" />
    <glyph glyph-name="ae" unicode="&#xe6;" horiz-adv-x="3002" 
d="M3002 1153h-1319v-299h1239v-281h-1239v-297h1319v-280h-1638v4v276v9h-639l-199 -285h-391l1004 1434h225h319h1319v-281zM1364 1153v43l-442 -631h442v8v281v299z" />
    <glyph glyph-name="ccedilla" unicode="&#xe7;" horiz-adv-x="2052" 
d="M1098 236q282 0 435.5 79.5t192.5 257.5h326q-39 -310 -256.5 -457t-617.5 -159q-6 -56 -9 -102q3 0 23 -5q7 0 21.5 -3t17.5 -3q2 -1 18 -5.5t25 -8.5q23 -10 47 -31q24 -24 33 -53q4 -11 8 -29q2 -8 2 -26q0 -21 -2 -31q-6 -22 -8 -27q-17 -46 -58 -82q-36 -29 -77 -47
q-25 -9 -78 -22q-29 -6 -78 -10q-27 -2 -76 -2l-72 -2h-34h-35l39 217q1 -1 3 -2t3 -2l8 -3q2 -1 7 -3t7 -3q12 -2 31 -10q36 -11 62 -16q20 -4 28 -6q6 -2 15 -2l6 -3h4h4q18 -2 55 -2q4 1 13.5 2.5t13.5 2.5t11.5 2t10.5 2q8 4 13 4q4 4 8 4q12 6 18 10q1 1 6.5 5.5
t6.5 6.5q2 2 4.5 6t3.5 5q0 1 1 3t1 3v2v6v4q0 2 -2 4t-8 4q-5 3 -19 6q-16 4 -26 6q-3 0 -33 5q-13 0 -21 2q-9 0 -24 6q-7 0 -19 6q-17 11 -24 20q-8 6 -15 19q-1 2 -2 6t-2 6q-2 4 -2 10q-2 4 -2 13v2v4q0 6 -1 17t-1 16q-3 51 -12 104q-440 14 -660.5 194.5
t-220.5 561.5q0 203 62 349t186 236.5t300 132.5t415 42q438 0 676 -147.5t278 -471.5h-326q-39 178 -192.5 258t-435.5 80q-330 0 -485.5 -112t-155.5 -367q0 -254 155.5 -365.5t485.5 -111.5zM1139 -139l2 -2v2h-2z" />
    <glyph glyph-name="egrave" unicode="&#xe8;" horiz-adv-x="1794" 
d="M176 1434h320h1319v-281h-1319v-297h1239v-281h-1239v-299h1319v-278h-1639v2v276v299v281v297v281zM588 2032v-242l796 -164v242z" />
    <glyph glyph-name="eacute" unicode="&#xe9;" horiz-adv-x="1794" 
d="M176 1434h320h1319v-281h-1319v-297h1239v-281h-1239v-299h1319v-278h-1639v2v276v299v281v297v281zM1438 2032v-242l-797 -164v242z" />
    <glyph glyph-name="ecircumflex" unicode="&#xea;" horiz-adv-x="1794" 
d="M176 1434h320h1319v-281h-1319v-297h1239v-281h-1239v-299h1319v-278h-1639v2v276v299v281v297v281zM1421 1810l-305 144h-237l-306 -144v-215l424 195l424 -195v215z" />
    <glyph glyph-name="edieresis" unicode="&#xeb;" horiz-adv-x="1794" 
d="M176 1434h320h1319v-281h-1319v-297h1239v-281h-1239v-299h1319v-278h-1639v2v276v299v281v297v281zM1462 1626v264h-319v-264h319zM860 1626v264h-321v-264h321z" />
    <glyph glyph-name="igrave" unicode="&#xec;" horiz-adv-x="497" 
d="M-61 0v1434h321v-1434h-321zM-299 2032v-242l797 -164v242z" />
    <glyph glyph-name="iacute" unicode="&#xed;" horiz-adv-x="497" 
d="M-68 0v1434h322v-1434h-322zM485 2032v-242l-796 -164v242z" />
    <glyph glyph-name="icircumflex" unicode="&#xee;" horiz-adv-x="497" 
d="M-82 0v1434h322v-1434h-322zM508 1810l-305 144h-238l-305 -144v-215l424 195l424 -195v215z" />
    <glyph glyph-name="idieresis" unicode="&#xef;" horiz-adv-x="497" 
d="M-123 0v1434h322v-1434h-322zM-100 1626v264h-322v-264h322zM502 1626v264h-320v-264h320z" />
    <glyph glyph-name="ntilde" unicode="&#xf1;" horiz-adv-x="2113" 
d="M1794 305v1129h320v-1434h-320h-104h-9l-1185 1128v-1128h-320v1434h436zM915 1767q-72 0 -131 -47t-59 -129l-246 21q0 178 89.5 290.5t256.5 112.5q64 0 119.5 -21t94.5 -50.5t75 -59.5t77.5 -51t86.5 -21q47 0 97.5 20.5t89 64t38.5 98.5h244q0 -114 -45.5 -211.5
t-133 -158t-198.5 -60.5q-65 0 -121 21t-95 50.5t-75 59t-77.5 50.5t-86.5 21z" />
    <glyph glyph-name="ograve" unicode="&#xf2;" horiz-adv-x="2058" 
d="M1098 1475q239 0 414.5 -42t299 -132.5t185 -236.5t61.5 -349t-61.5 -348.5t-185 -235.5t-299 -132t-414.5 -42q-482 0 -722.5 179.5t-240.5 578.5q0 203 62 349t186 236.5t300 132.5t415 42zM1098 238q330 0 485.5 111.5t155.5 365.5q0 255 -155.5 367t-485.5 112
q-331 0 -487 -112t-156 -367q0 -254 156 -365.5t487 -111.5zM696 2032v-242l797 -164v242z" />
    <glyph glyph-name="oacute" unicode="&#xf3;" horiz-adv-x="2058" 
d="M1098 1475q239 0 414.5 -42t299 -132.5t185 -236.5t61.5 -349t-61.5 -348.5t-185 -235.5t-299 -132t-414.5 -42q-482 0 -722.5 179.5t-240.5 578.5q0 203 62 349t186 236.5t300 132.5t415 42zM1098 238q330 0 485.5 111.5t155.5 365.5q0 255 -155.5 367t-485.5 112
q-331 0 -487 -112t-156 -367q0 -254 156 -365.5t487 -111.5zM1489 2032v-242l-797 -164v242z" />
    <glyph glyph-name="ocircumflex" unicode="&#xf4;" horiz-adv-x="2058" 
d="M1098 1475q239 0 414.5 -42t299 -132.5t185 -236.5t61.5 -349t-61.5 -348.5t-185 -235.5t-299 -132t-414.5 -42q-482 0 -722.5 179.5t-240.5 578.5q0 203 62 349t186 236.5t300 132.5t415 42zM1098 238q330 0 485.5 111.5t155.5 365.5q0 255 -155.5 367t-485.5 112
q-331 0 -487 -112t-156 -367q0 -254 156 -365.5t487 -111.5zM1516 1810l-306 144h-237l-305 -144v-215l424 195l424 -195v215z" />
    <glyph glyph-name="otilde" unicode="&#xf5;" horiz-adv-x="2058" 
d="M1098 1475q239 0 414.5 -42t299 -132.5t185 -236.5t61.5 -349t-61.5 -348.5t-185 -235.5t-299 -132t-414.5 -42q-482 0 -722.5 179.5t-240.5 578.5q0 203 62 349t186 236.5t300 132.5t415 42zM1098 238q330 0 485.5 111.5t155.5 365.5q0 255 -155.5 367t-485.5 112
q-331 0 -487 -112t-156 -367q0 -254 156 -365.5t487 -111.5zM895 1767q-72 0 -131 -47t-59 -129l-246 21q0 178 89.5 290.5t256.5 112.5q64 0 119.5 -21t94 -50.5t74.5 -59.5t77.5 -51t86.5 -21q47 0 97.5 20.5t89.5 64t39 98.5h243q0 -114 -45.5 -211.5t-132.5 -158
t-198 -60.5q-65 0 -121 21t-95 50.5t-75 59t-77.5 50.5t-86.5 21z" />
    <glyph glyph-name="odieresis" unicode="&#xf6;" horiz-adv-x="2058" 
d="M1098 1475q239 0 414.5 -42t299 -132.5t185 -236.5t61.5 -349t-61.5 -348.5t-185 -235.5t-299 -132t-414.5 -42q-482 0 -722.5 179.5t-240.5 578.5q0 203 62 349t186 236.5t300 132.5t415 42zM1098 238q330 0 485.5 111.5t155.5 365.5q0 255 -155.5 367t-485.5 112
q-331 0 -487 -112t-156 -367q0 -254 156 -365.5t487 -111.5zM1554 1626v264h-319v-264h319zM952 1626v264h-321v-264h321z" />
    <glyph glyph-name="divide" unicode="&#xf7;" horiz-adv-x="1896" 
d="M901 1298h350v-274h-350v274zM258 842h1638v-291h-1638v291zM901 369h350v-275h-350v275z" />
    <glyph glyph-name="oslash" unicode="&#xf8;" horiz-adv-x="2058" 
d="M1677 1382q379 -170 379 -659q0 -203 -61.5 -349t-185.5 -236.5t-300 -132.5t-415 -42q-160 0 -314 23l-153 -240h-322l205 315q-379 170 -379 662q0 399 240.5 578.5t722.5 179.5q159 0 313 -23l154 240h319zM451 723q0 -153 55 -252.5t168 -153.5l563 877q-68 6 -143 6
q-330 0 -486.5 -111.5t-156.5 -365.5zM1094 244q330 0 485.5 112t155.5 367q0 152 -54.5 250.5t-167.5 154.5l-563 -878q68 -6 144 -6z" />
    <glyph glyph-name="ugrave" unicode="&#xf9;" horiz-adv-x="2009" 
d="M1704 715v719h305v-719q0 -399 -228.5 -578.5t-686.5 -179.5q-228 0 -396 42t-286 132t-177 235.5t-59 348.5v719h305v-719q0 -254 148.5 -365.5t464.5 -111.5q314 0 462 111.5t148 365.5zM692 2032v-242l797 -164v242z" />
    <glyph glyph-name="uacute" unicode="&#xfa;" horiz-adv-x="2009" 
d="M1704 715v719h305v-719q0 -399 -228.5 -578.5t-686.5 -179.5q-228 0 -396 42t-286 132t-177 235.5t-59 348.5v719h305v-719q0 -254 148.5 -365.5t464.5 -111.5q314 0 462 111.5t148 365.5zM1497 2032v-242l-797 -164v242z" />
    <glyph glyph-name="ucircumflex" unicode="&#xfb;" horiz-adv-x="2009" 
d="M1704 715v719h305v-719q0 -399 -228.5 -578.5t-686.5 -179.5q-228 0 -396 42t-286 132t-177 235.5t-59 348.5v719h305v-719q0 -254 148.5 -365.5t464.5 -111.5q314 0 462 111.5t148 365.5zM1524 1810l-305 144h-238l-305 -144v-215l424 195l424 -195v215z" />
    <glyph glyph-name="udieresis" unicode="&#xfc;" horiz-adv-x="2009" 
d="M1704 715v719h305v-719q0 -399 -228.5 -578.5t-686.5 -179.5q-228 0 -396 42t-286 132t-177 235.5t-59 348.5v719h305v-719q0 -254 148.5 -365.5t464.5 -111.5q314 0 462 111.5t148 365.5zM1567 1626v264h-320v-264h320zM965 1626v264h-322v-264h322z" />
    <glyph glyph-name="yacute" unicode="&#xfd;" horiz-adv-x="2340" 
d="M1237 782l616 652h488l-944 -916v-518h-320v518l-942 916h486zM1608 2032v-242l-797 -164v242z" />
    <glyph glyph-name="ydieresis" unicode="&#xff;" horiz-adv-x="2340" 
d="M1237 782l616 652h488l-944 -916v-518h-320v518l-942 916h486zM1663 1626v264h-320v-264h320zM1061 1626v264h-322v-264h322z" />
    <glyph glyph-name="quoteleft" unicode="&#x2018;" horiz-adv-x="585" 
d="M516 1133v-289h-340v289l182 356h207l-139 -356h90z" />
    <glyph glyph-name="quoteright" unicode="&#x2019;" horiz-adv-x="585" 
d="M268 1200v289h338v-289l-182 -356h-207l141 356h-90z" />
    <glyph glyph-name="quotesinglbase" unicode="&#x201a;" horiz-adv-x="526" 
d="M211 -4v289h338v-289l-182 -356h-207l141 356h-90z" />
    <glyph glyph-name="quotedblleft" unicode="&#x201c;" horiz-adv-x="1067" 
d="M997 1133v-289h-340v289l183 356h207l-140 -356h90zM516 1133v-289h-340v289l182 356h207l-139 -356h90z" />
    <glyph glyph-name="quotedblright" unicode="&#x201d;" horiz-adv-x="1067" 
d="M268 1200v289h338v-289l-182 -356h-207l141 356h-90zM750 1200v289h337v-289l-182 -356h-207l142 356h-90z" />
    <glyph glyph-name="quotedblbase" unicode="&#x201e;" horiz-adv-x="1046" 
d="M227 -4v289h338v-289l-182 -356h-207l141 356h-90zM709 -4v289h338v-289l-183 -356h-207l142 356h-90z" />
    <glyph glyph-name="bullet" unicode="&#x2022;" horiz-adv-x="823" 
d="M500 426q-166 0 -245 55.5t-79 175.5q0 118 79 174t245 56q165 0 244 -56t79 -174q0 -119 -79 -175t-244 -56z" />
    <glyph glyph-name="ellipsis" unicode="&#x2026;" horiz-adv-x="1538" 
d="M176 274h350v-274h-350v274zM682 274h350v-274h-350v274zM1188 274h350v-274h-350v274z" />
    <glyph glyph-name="fraction" unicode="&#x2044;" horiz-adv-x="1067" 
d="M1065 1475l-533 -1782h-360l533 1782h360z" />
    <glyph glyph-name="trademark" unicode="&#x2122;" horiz-adv-x="2357" 
d="M1190 1630v-133h-387v-547h-152v547h-389v133h389h152h387zM2302 1630h55v-680h-151v520l-316 -520h-4h-45h-45h-4l-315 520v-520h-152v680h55h152l309 -508l309 508h152z" />
    <glyph glyph-name="minus" unicode="&#x2212;" horiz-adv-x="1896" 
d="M258 842h1638v-291h-1638v291z" />
    <glyph glyph-name="i.loclTRK" horiz-adv-x="526" 
d="M131 1706h397v-299h-397v299zM154 1206h350v-1206h-350v1206z" />
    </font>
</defs>
</svg>
