<?xml version="1.0" standalone="no"?>
<!DOCTYPE svg PUBLIC "-//W3C//DTD SVG 1.1//EN" "http://www.w3.org/Graphics/SVG/1.1/DTD/svg11.dtd" >
<svg xmlns="http://www.w3.org/2000/svg" xmlns:xlink="http://www.w3.org/1999/xlink" version="1.1">
<metadata>
Created by FontForge 20201107 at Tue Apr 23 11:14:36 2024
 By 
Typeface (c) (Human Design). 2021. All Rights Reserved
</metadata>
<defs>
<font id="WinongExtendedBold" horiz-adv-x="2600" >
  <font-face 
    font-family="Winong Extended"
    font-weight="700"
    font-stretch="normal"
    units-per-em="2048"
    panose-1="0 0 5 0 0 0 0 0 0 0"
    ascent="1638"
    descent="-410"
    x-height="1434"
    cap-height="1434"
    bbox="-580 -629 3643 2357"
    underline-thickness="102"
    underline-position="-255"
    unicode-range="U+001D-2212"
  />
<missing-glyph horiz-adv-x="1193" 
d="M0 1434h1194v-1434h-1194v1434zM993 160v1112h-792v-1112h792z" />
    <glyph glyph-name=".notdef" horiz-adv-x="1193" 
d="M0 1434h1194v-1434h-1194v1434zM993 160v1112h-792v-1112h792z" />
    <glyph glyph-name=".notdef" horiz-adv-x="1193" 
d="M0 1434h1194v-1434h-1194v1434zM993 160v1112h-792v-1112h792z" />
    <glyph glyph-name=".null" horiz-adv-x="0" 
 />
    <glyph glyph-name="nonmarkingreturn" horiz-adv-x="682" 
 />
    <glyph glyph-name="space" unicode=" " horiz-adv-x="935" 
 />
    <glyph glyph-name="exclam" unicode="!" horiz-adv-x="628" 
d="M176 0v319h453v-319h-453zM176 420v1014h453v-1014h-453z" />
    <glyph glyph-name="quotedbl" unicode="&#x22;" horiz-adv-x="1349" 
d="M326 1548h436l-238 -723h-348zM911 1548h439l-136 -411l-102 -312h-350z" />
    <glyph glyph-name="numbersign" unicode="#" horiz-adv-x="2746" 
d="M2400 1671l-61 -354h407l-69 -399h-408l-71 -402h380l-69 -397h-381l-64 -355h-399l61 355h-659l-61 -355h-402l62 355h-408l72 397h407l70 402h-381l72 399h381l61 354h401l-63 -354h659l64 354h399zM1796 516l72 402h-660l-71 -402h659z" />
    <glyph glyph-name="dollar" unicode="$" horiz-adv-x="2150" 
d="M1860 776q90 -46 148 -115t78 -143.5t11 -150.5t-47 -140q-66 -113 -205 -174q-170 -78 -485 -90v-250h-363v254q-411 29 -585 197q-45 44 -73 87.5t-38.5 85.5t-13 65t-2.5 57v2v8v4h426v-4q0 -26 9 -46t30.5 -35t44.5 -25.5t63 -17t73.5 -10.5t88 -6t94.5 -2.5
t105 -0.5q419 0 460 67q9 14 -2 27q-50 50 -149 74q-125 33 -320 49h-22q-254 20 -390.5 39.5t-234.5 58.5q-86 35 -139.5 72.5t-89.5 91.5q-74 110 -74 201q0 136 74 238t211 155q153 59 454 71v267h363v-267q331 -18 500 -137q54 -38 92.5 -83t57 -80t28.5 -77.5t11 -62
t1 -47.5v-6h-426v6q0 127 -422 127q-450 0 -500 -65q-10 -13 -2 -23q0 -2 1.5 -5.5t12 -14.5t26.5 -21t50.5 -22.5t79.5 -22.5q132 -29 373 -45q243 -19 385 -43.5t232 -71.5z" />
    <glyph glyph-name="percent" unicode="%" horiz-adv-x="3643" 
d="M2374 1726h448l-1294 -2017h-451zM1761 1221q0 -274 -172 -430q-196 -175 -579 -175q-384 0 -580 175q-172 156 -172 430t172 430q192 174 580 174q387 0 579 -174q172 -156 172 -430zM1010 993q144 0 230.5 62.5t86.5 165.5q0 104 -86 165.5t-231 61.5t-231.5 -61.5
t-86.5 -165.5q0 -103 87 -165.5t231 -62.5zM3471 645q172 -156 172 -430t-172 -430q-192 -174 -579 -174q-388 0 -580 174q-172 156 -172 430t172 430q195 174 580 174q384 0 579 -174zM2892 -12q145 0 231 61.5t86 165.5q0 103 -86.5 165t-230.5 62q-145 0 -231.5 -62
t-86.5 -165q0 -104 86.5 -165.5t231.5 -61.5z" />
    <glyph glyph-name="ampersand" unicode="&#x26;" horiz-adv-x="2260" 
d="M2116 369q23 -13 47.5 -28t35 -21t13.5 -7l49 -30l-197 -297l-45 28q-94 55 -239 133q-24 -12 -51 -24q-233 -107 -496 -162q-168 -33 -326 -33q-14 0 -39 1t-37 1q-278 15 -423 142q-158 130 -136 344q15 158 191 272q47 31 145 70q-89 78 -116 149q-60 156 12 303
q37 81 107 142t163 92l2 2q72 25 111.5 35t119 18t201.5 8q278 0 461 -100q111 -62 171.5 -151.5t60.5 -194.5q0 -139 -58 -217q-59 -78 -209 -137q-48 -20 -94 -33q109 -56 148 -78q17 -8 45.5 -23t38.5 -20q97 66 159 137l35 39l281 -223l-39 -45q-40 -46 -92 -92z
M1157 307q90 17 199 51q-87 40 -113 50q-49 21 -80 32q-180 78 -184 80q-5 -2 -150 -49q-148 -52 -196 -100q0 -21 14 -35q52 -44 203.5 -52.5t306.5 23.5zM1536 1061q-9 18 -47 39q-95 53 -281 53q-138 0 -229 -16l-10 -2q-117 -25 -131 -60q-7 -16 1.5 -39t24.5 -39
q46 -48 172 -112q5 0 11 -6q1 0 3 -1.5t4.5 -3t4.5 -2.5q7 2 164 43q9 3 28.5 8.5t28.5 8.5q97 26 188 65q31 13 47.5 27.5t18.5 21.5t2 15z" />
    <glyph glyph-name="quotesingle" unicode="'" horiz-adv-x="763" 
d="M326 1548h438l-135 -411l-103 -312h-350z" />
    <glyph glyph-name="parenleft" unicode="(" horiz-adv-x="1396" 
d="M477 1661q287 276 862 285h58v-379l-56 -2q-341 -12 -544 -230.5t-203 -572.5q0 -355 203 -574t544 -231l56 -2v-379h-58q-572 9 -862 285q-301 292 -301 901q0 607 301 899z" />
    <glyph glyph-name="parenright" unicode=")" horiz-adv-x="1398" 
d="M1098 1661q301 -292 301 -899q0 -609 -301 -901q-290 -276 -862 -285h-60v379l55 2q341 12 545.5 231t204.5 574q0 353 -204.5 572t-545.5 231l-55 2v379h60q576 -9 862 -285z" />
    <glyph glyph-name="asterisk" unicode="*" horiz-adv-x="1390" 
d="M1190 1729l201 -310l-363 -176l363 -174l-201 -307l-410 313l-403 -313l-201 307l356 174l-356 176l203 310l233 -216l-22 277h366l-24 -293z" />
    <glyph glyph-name="plus" unicode="+" horiz-adv-x="2033" 
d="M1343 1434v-519h691v-395h-691v-520h-395v520h-690v395h690v519h395z" />
    <glyph glyph-name="comma" unicode="," horiz-adv-x="628" 
d="M219 -403l148 372h-191v320h453v-320l-193 -372h-217z" />
    <glyph glyph-name="hyphenminus" unicode="-" horiz-adv-x="2033" 
d="M950 915h398h688v-395h-688h-398h-688v395h688z" />
    <glyph glyph-name="period" unicode="." horiz-adv-x="628" 
d="M176 0v319h453v-319h-453z" />
    <glyph glyph-name="slash" unicode="/" horiz-adv-x="1224" 
d="M176 -451l627 2337h422l-625 -2337h-424z" />
    <glyph glyph-name="zero" unicode="0" horiz-adv-x="1882" 
d="M1825 1057q57 -140 57 -344t-57 -344q-57 -150 -174 -242q-211 -176 -643 -176q-430 0 -641 176q-117 92 -177 242q-55 143 -55 344t55 344q59 147 177 243q214 175 641 175q429 0 643 -175q118 -96 174 -243zM1374 426q109 87 109 287q0 199 -109 286q-110 88 -366 88
q-254 0 -367 -88q-106 -85 -106 -286q0 -202 106 -287q115 -86 367 -86q254 0 366 86z" />
    <glyph glyph-name="one" unicode="1" horiz-adv-x="1224" 
d="M903 1434h230h92v-1434h-322h-160v1122l-403 -321l-164 340l567 293h160z" />
    <glyph glyph-name="two" unicode="2" horiz-adv-x="1853" 
d="M1853 936q0 -133 -83 -230t-197 -131q-167 -49 -391 -97.5t-373.5 -78t-171.5 -39.5h1167v-360h-1669q2 318 2 330q0 44 51 96t115.5 91.5t138.5 74.5q110 49 308 107t381.5 106t226.5 63q51 18 71.5 30.5t20.5 35.5q0 26 -11.5 49t-40.5 46.5t-73.5 40.5t-116.5 27.5
t-164 10.5q-475 0 -475 -152h-405q0 93 22 162q45 138 158 217q192 140 621 140q446 0 639 -103q133 -68 194 -190q55 -104 55 -246z" />
    <glyph glyph-name="three" unicode="3" horiz-adv-x="1744" 
d="M1745 993q0 -111 -84 -192q-49 -49 -121 -84q76 -37 121 -82q84 -84 84 -195q0 -192 -160 -317q-212 -164 -688 -164q-407 0 -592 133q-109 80 -149 207q-21 69 -21 152h385q0 -79 100 -105.5t353 -26.5q110 0 187.5 13t120 38t61 55.5t18.5 70.5q0 42 -25 67.5t-54 33
t-62 7.5h-375v225v2h375q24 0 46 4.5t44.5 15t36.5 33t14 54.5q0 40 -18.5 70.5t-61 55t-120 37.5t-187.5 13q-253 0 -353 -26t-100 -105h-385q0 83 21 154q41 126 149 206q183 132 592 132q476 0 688 -164q160 -125 160 -318z" />
    <glyph glyph-name="four" unicode="4" horiz-adv-x="1892" 
d="M1649 1434v-746h243v-389h-243v-299h-422v299h-1051v440l965 695h497h11zM582 688h645v457z" />
    <glyph glyph-name="five" unicode="5" horiz-adv-x="1839" 
d="M1702 774q137 -119 137 -307q0 -45 -8.5 -88t-33.5 -95t-65 -96t-110 -87t-161 -73t-224 -48.5t-295 -18.5q-440 0 -645 158q-162 127 -162 321h393q0 -31 32 -55t81.5 -37.5t118.5 -22t131.5 -11.5t132.5 -3q95 0 171.5 14t122 34.5t75.5 47t41.5 49t11.5 42.5
q0 48 -69 92t-177.5 69.5t-220.5 24.5q-133 -1 -271.5 -14.5t-205.5 -26.5l-4 -2l-299 -2l67 795h1448v-301h-1132l-19 -265q328 42 476 49q474 21 663 -143z" />
    <glyph glyph-name="six" unicode="6" horiz-adv-x="1916" 
d="M1686 811q108 -59 166 -146.5t61 -195.5q9 -205 -160 -346q-221 -185 -741 -203h-56h-26q-307 0 -486 92q-136 70 -211 213q-66 129 -69 287q0 6 -1 20t-1 23q-3 58 -3.5 91.5t1 105.5t12.5 127t30.5 123.5t56.5 131t87 115.5q212 226 651 226q514 0 715 -146
q156 -112 156 -332l-336 9q0 36 -17.5 62t-67 50t-153.5 36.5t-262 12.5q-93 0 -167 -14.5t-123 -31t-86.5 -55.5t-56.5 -61.5t-34.5 -77t-18.5 -73t-11 -77.5q-3 -23 -5 -34q91 33 232.5 69.5t269.5 57.5q415 68 654 -59zM1063 303q78 0 143 4t111 10t82 17t58.5 19
t38 22.5t22.5 22t10.5 23t3.5 19.5v17q0 23 -25.5 45t-44.5 30q-88 43 -265.5 51.5t-365.5 -23.5t-292 -97v-4q0 -11 1 -19t11 -25t28 -30.5t57 -29.5t92.5 -26.5t140 -18t194.5 -7.5z" />
    <glyph glyph-name="seven" unicode="7" horiz-adv-x="1935" 
d="M82 1059v375h1853v-375h-8l-907 -1059h-494l965 1059h-1409z" />
    <glyph glyph-name="eight" unicode="8" horiz-adv-x="1955" 
d="M1829 668q127 -118 127 -312q0 -167 -131.5 -286t-317.5 -119h-923q-186 0 -317.5 119t-131.5 286q0 194 127 312q55 52 131 86q-52 30 -86 67q-94 98 -94 250q0 166 131.5 285t317.5 119h765q187 0 319 -119t132 -285q0 -152 -94 -250q-34 -37 -86 -67q76 -34 131 -86z
M631 1122q-22 -10 -40 -48.5t-18 -72.5q0 -32 17.5 -65t40.5 -45q17 -10 49 -10h731q31 0 49 10q23 12 40.5 45t17.5 65q0 34 -18 72.5t-40 48.5q-19 11 -49 11h-731q-30 0 -49 -11zM1569 340q26 42 26 86q0 33 -17 66t-40 43q-21 12 -49 12h-887q-28 0 -49 -12
q-23 -10 -40 -43t-17 -66q0 -44 26 -86q26 -47 80 -47h887q54 0 80 47z" />
    <glyph glyph-name="nine" unicode="9" horiz-adv-x="1914" 
d="M1888 881q0 -4 1 -18t1 -23q3 -56 3.5 -91.5t-1 -106t-13 -127t-31 -125t-56 -131.5t-86.5 -116q-214 -223 -651 -223q-513 0 -717 146q-154 112 -154 329l336 -6q0 -37 17.5 -63.5t67 -51t153.5 -37t262 -12.5q93 0 167 14.5t123 31t86.5 56t56 62t34.5 77t19 73
t11 78.5q3 23 5 34q-91 -33 -232.5 -69.5t-269.5 -57.5q-416 -68 -653 60q-108 59 -166.5 146.5t-61.5 195.5q-4 86 31.5 176.5t128.5 167.5q221 188 741 203q18 2 54 2h28q305 0 486 -95q137 -69 211 -213q66 -126 69 -286zM588 862q89 -44 267.5 -52.5t366 24t291.5 96.5
v5q0 11 -1 19t-11 25.5t-28 30.5t-57 29.5t-92.5 27t-140 18t-194.5 7.5q-97 0 -174 -6.5t-125 -15.5t-83 -24t-51 -27t-25 -29.5t-10 -26t-1 -22.5v-3q0 -22 24.5 -44.5t43.5 -31.5z" />
    <glyph glyph-name="colon" unicode=":" horiz-adv-x="628" 
d="M176 0v319h453v-319h-453zM176 707v317h453v-317h-453z" />
    <glyph glyph-name="semicolon" unicode=";" horiz-adv-x="628" 
d="M176 0v319h453v-319l-193 -373h-217l148 373h-191zM176 1024h115h338v-289v-28h-453v317z" />
    <glyph glyph-name="equal" unicode="=" horiz-adv-x="1910" 
d="M258 866v418h1653v-418h-1653zM258 250v319h1653v-319v-98h-1653v98z" />
    <glyph glyph-name="question" unicode="?" horiz-adv-x="2011" 
d="M772 0v319h453v-319h-453zM1720 1397q141 -54 216 -158t75 -244q0 -113 -61 -204q-52 -79 -140 -132.5t-190 -80.5q-45 -12 -145 -26.5t-170 -39.5q-35 -13 -67 -38.5t-32 -53.5h-57h-2h-367q-3 74 31 137q42 77 111.5 130t167.5 99q40 19 90.5 35.5t82 24t99 21
t88.5 18.5q86 18 117 43q22 22 22 73q0 18 -26 31q-46 26 -125 37q-132 21 -394 21q-239 0 -339 -29q-55 -17 -74 -39t-19 -51v-58h-436v58q0 28 1.5 48.5t11.5 64.5t29 80t59 82t96 85q204 144 671 144q476 0 676 -78z" />
    <glyph glyph-name="A" unicode="A" 
d="M1065 1434h680l856 -1434h-559l-131 217h-1014l-129 -217h-559zM1124 598h559l-278 469z" />
    <glyph glyph-name="B" unicode="B" horiz-adv-x="1966" 
d="M1708 756q123 -39 201 -140t78 -227q0 -156 -114.5 -268.5t-277.5 -120.5h-18v0h-920h-481v1434h21h6h454h813h19h20q163 -8 276 -114t113 -253q0 -97 -51 -179t-139 -132zM1309 1073h-652v-176h652q46 0 76 22.5t30 61.5q0 38 -31 65t-75 27zM657 537v-177h738
q44 0 75 27.5t31 65.5t-30.5 61t-75.5 23h-738z" />
    <glyph glyph-name="C" unicode="C" horiz-adv-x="2052" 
d="M1098 1073q-123 0 -219 -32t-152 -84.5t-84.5 -114t-28.5 -127.5q0 -132 101 -230q129 -129 383 -129q178 0 291.5 64.5t160.5 165.5h502q-37 -330 -275.5 -479.5t-678.5 -149.5q-552 0 -781 229q-182 182 -182 529q0 203 62 349t186 235.5t300 131.5t415 42
q551 0 778 -230q149 -146 176 -397h-502q-24 53 -69 98q-132 129 -383 129z" />
    <glyph glyph-name="D" unicode="D" horiz-adv-x="1992" 
d="M2013 737v-22q0 -376 -228.5 -546t-688.5 -173h-11h-909v4v377v1057h481h428q446 0 677 -156t249 -502q0 -12 2 -18v-8v-13zM657 377h439v-101v101q110 5 197 37t138 80.5t77 105t26 115.5q0 124 -100 217q-119 113 -338 121h-439v-676z" />
    <glyph glyph-name="E" unicode="E" horiz-adv-x="1794" 
d="M496 1434h159h1160v-361h-1160v-178h1080v-39v-281v-40h-1080v-175h1160v-84v-276v-4h-1639v4v1434h320z" />
    <glyph glyph-name="F" unicode="F" horiz-adv-x="1761" 
d="M182 1434h473h1125v-371h-1125v-266h1047v-41v-289v-41h-1047v-430h-479v1438h6z" />
    <glyph glyph-name="G" unicode="G" horiz-adv-x="2064" 
d="M1743 827h319v-827h-280l-10 221q-268 -264 -676 -264q-550 0 -779 229q-182 182 -182 529q0 203 61.5 349t185.5 235.5t299.5 131.5t414.5 42q553 0 780 -230q126 -126 166 -332h-533q-22 26 -30 33q-129 129 -383 129q-122 0 -218 -32t-151.5 -84.5t-84 -114
t-28.5 -127.5q0 -131 99 -230q132 -129 383 -129q272 0 403 152h-430v319h674z" />
    <glyph glyph-name="H" unicode="H" horiz-adv-x="2111" 
d="M1630 926v508h479v-1436h-24h-322h-133v508h-975v-508h-159h-320v1434v2h479v-508h975z" />
    <glyph glyph-name="I" unicode="I" horiz-adv-x="655" 
d="M176 -2v1436h481v-1436h-481z" />
    <glyph glyph-name="J" unicode="J" horiz-adv-x="1409" 
d="M1405 1432q2 -42 2 -46q1 -89 -0.5 -254.5t-1.5 -218.5q0 -158 -23.5 -287t-64.5 -223t-102.5 -165t-132.5 -116t-161 -73.5t-180 -39.5t-196 -11q-54 0 -183.5 1t-185.5 1v379h307v2q4 0 13.5 -1t13.5 -1q98 0 192 51q92 52 148 139t70 193q10 68 6 174v117h-203v379
h362h320z" />
    <glyph glyph-name="K" unicode="K" horiz-adv-x="1941" 
d="M1292 1434h670l-840 -707l840 -729h-694l-486 442l-125 -106v-336h-481v1436h481v-516z" />
    <glyph glyph-name="L" unicode="L" horiz-adv-x="1736" 
d="M657 1434v-1045h1100v-110v-271v-10h-1100h-161h-160h-160v1434v2h481z" />
    <glyph glyph-name="M" unicode="M" horiz-adv-x="2310" 
d="M1831 1434h481v-1436h-481v709l-467 -707h-119h-121l-467 707v-709h-479v1436h479h48l540 -854l539 854h47z" />
    <glyph glyph-name="N" unicode="N" horiz-adv-x="2033" 
d="M1714 1434h320v-1434v-2h-480v2h-90l-807 899v-901h-481v2v1434h572l806 -899v899h160z" />
    <glyph glyph-name="O" unicode="O" horiz-adv-x="2058" 
d="M1098 1473q551 0 778 -230q182 -182 182 -528q0 -203 -61.5 -348.5t-185 -235.5t-299 -132t-414.5 -42q-552 0 -781 229q-182 182 -182 529q0 203 62 349t186 235.5t300 131.5t415 42zM1098 356q122 0 217.5 32t151.5 85t84 114.5t28 127.5q0 131 -98 229
q-132 129 -383 129q-123 0 -219 -32t-152 -84.5t-84.5 -114t-28.5 -127.5q0 -132 101 -230q129 -129 383 -129z" />
    <glyph glyph-name="P" unicode="P" horiz-adv-x="1898" 
d="M1274 739q68 0 117 46t49 110t-49 111t-117 47h-619v-314h619zM1348 1432q155 0 286.5 -72t208 -195.5t76.5 -269.5q0 -145 -76.5 -269t-208 -196t-286.5 -72h-74h-619v-360h-479v360v381v314v379v2h479v-2h619h74z" />
    <glyph glyph-name="Q" unicode="Q" horiz-adv-x="2060" 
d="M2060 715q0 -517 -418 -676l267 -440h-520l-148 362q-90 -4 -143 -4q-550 0 -779 229q-184 184 -184 529q0 203 62 349t186 235.5t300 131.5t415 42q550 0 780 -230q182 -182 182 -528zM715 485q132 -129 383 -129q122 0 218 32t152 85t84.5 114.5t28.5 127.5
q0 129 -100 229q-132 129 -383 129q-122 0 -218 -32t-151.5 -84.5t-84 -114t-28.5 -127.5q0 -131 99 -230z" />
    <glyph glyph-name="R" unicode="R" horiz-adv-x="1918" 
d="M1919 895q0 -160 -92 -291.5t-242 -195.5l357 -410h-562l-264 360h-461v-360h-479v360v381v314v379v2h479v-2h617h76q155 0 286.5 -72t208 -195.5t76.5 -269.5zM655 1053v-314h617q69 0 118.5 46t49.5 110q0 65 -49.5 111.5t-118.5 46.5h-617z" />
    <glyph glyph-name="S" unicode="S" horiz-adv-x="2025" 
d="M1737 774q90 -46 148 -115t77.5 -143.5t10.5 -150t-46 -140.5q-66 -113 -205 -174q-203 -92 -628 -92q-305 0 -501.5 49.5t-303.5 153.5q-45 44 -73 87.5t-38.5 85.5t-13 65t-2.5 57v2v8v4h426v-4q0 -26 9 -46t30.5 -35t44.5 -25.5t62.5 -17t72.5 -10.5t87.5 -6
t94.5 -2.5t105 -0.5q418 0 461 66q10 15 -3 28q-35 47 -149 74q-121 32 -318 49h-22q-254 20 -390.5 39.5t-234.5 58.5q-86 35 -140 73t-91 93q-72 109 -72 199q0 137 73.5 239t211.5 154q196 76 659 76q455 0 658 -142q54 -38 92.5 -83t57 -80t28.5 -77.5t11 -62t1 -47.5
v-4h-426v4q0 127 -422 127q-450 0 -500 -65q-9 -13 -1 -23q0 -2 1.5 -5.5t12 -14.5t26.5 -21t50.5 -22.5t79.5 -22.5q128 -28 370 -45q244 -19 386.5 -43.5t232.5 -71.5z" />
    <glyph glyph-name="T" unicode="T" horiz-adv-x="2013" 
d="M137 1434h1878v-381h-700v-1055h-479v1055h-699v381z" />
    <glyph glyph-name="U" unicode="U" horiz-adv-x="1964" 
d="M1520 694v744h446v-744q-6 -388 -229.5 -562.5t-665.5 -174.5q-513 0 -723 229q-167 176 -170 508v744h445v-744q10 -121 92 -209q122 -129 356 -129q88 0 162 19.5t124.5 52.5t87 77t54.5 91.5t21 97.5z" />
    <glyph glyph-name="V" unicode="V" horiz-adv-x="2527" 
d="M1331 367l637 1067h559l-856 -1434h-680l-856 1434h559z" />
    <glyph glyph-name="W" unicode="W" horiz-adv-x="3457" 
d="M2380 367l518 1067h559l-737 -1434h-680l-244 860l-244 -860h-680l-737 1434h559l518 -1067l310 1067h274h275z" />
    <glyph glyph-name="X" unicode="X" horiz-adv-x="2248" 
d="M1610 1434h639l-756 -717l756 -717h-639l-416 416l-418 -416h-639l756 717l-756 717h639l418 -418z" />
    <glyph glyph-name="Y" unicode="Y" horiz-adv-x="2326" 
d="M1229 895l497 539h601l-857 -918v-518h-481v518l-856 918h600z" />
    <glyph glyph-name="Z" unicode="Z" horiz-adv-x="1865" 
d="M1864 1434v-381l-1055 -674h1055v-379h-1690v379l1055 674h-1055v381h1690z" />
    <glyph glyph-name="bracketleft" unicode="[" horiz-adv-x="1400" 
d="M176 -389v2335h1225v-381h-805v-1573h805v-381h-1225z" />
    <glyph glyph-name="backslash" unicode="\" horiz-adv-x="1224" 
d="M176 1886h424l625 -2337h-422z" />
    <glyph glyph-name="bracketright" unicode="]" horiz-adv-x="1398" 
d="M176 1565v381h1223v-2335h-1223v381h805v1573h-805z" />
    <glyph glyph-name="asciicircum" unicode="^" horiz-adv-x="1953" 
d="M918 1726h372l664 -948h-406l-444 635l-445 -635h-405z" />
    <glyph glyph-name="underscore" unicode="_" horiz-adv-x="2682" 
d="M258 -582v414h2425v-414h-2425z" />
    <glyph glyph-name="grave" unicode="`" horiz-adv-x="1177" 
d="M262 1796l918 -188v-363l-918 189v362z" />
    <glyph glyph-name="a" unicode="a" 
d="M1065 1434h680l856 -1434h-559l-131 217h-1014l-129 -217h-559zM1124 598h559l-278 469z" />
    <glyph glyph-name="b" unicode="b" horiz-adv-x="1966" 
d="M1708 756q123 -39 201 -140t78 -227q0 -156 -114.5 -268.5t-277.5 -120.5h-18v0h-920h-481v1434h21h6h454h813h19h20q163 -8 276 -114t113 -253q0 -97 -51 -179t-139 -132zM1309 1073h-652v-176h652q46 0 76 22.5t30 61.5q0 38 -31 65t-75 27zM657 537v-177h738
q44 0 75 27.5t31 65.5t-30.5 61t-75.5 23h-738z" />
    <glyph glyph-name="c" unicode="c" horiz-adv-x="2052" 
d="M1098 1073q-123 0 -219 -32t-152 -84.5t-84.5 -114t-28.5 -127.5q0 -132 101 -230q129 -129 383 -129q178 0 291.5 64.5t160.5 165.5h502q-37 -330 -275.5 -479.5t-678.5 -149.5q-552 0 -781 229q-182 182 -182 529q0 203 62 349t186 235.5t300 131.5t415 42
q551 0 778 -230q149 -146 176 -397h-502q-24 53 -69 98q-132 129 -383 129z" />
    <glyph glyph-name="d" unicode="d" horiz-adv-x="1992" 
d="M2013 737v-22q0 -376 -228.5 -546t-688.5 -173h-11h-909v4v377v1057h481h428q446 0 677 -156t249 -502q0 -12 2 -18v-8v-13zM657 377h439v-101v101q110 5 197 37t138 80.5t77 105t26 115.5q0 124 -100 217q-119 113 -338 121h-439v-676z" />
    <glyph glyph-name="e" unicode="e" horiz-adv-x="1794" 
d="M496 1434h159h1160v-361h-1160v-178h1080v-39v-281v-40h-1080v-175h1160v-84v-276v-4h-1639v4v1434h320z" />
    <glyph glyph-name="f" unicode="f" horiz-adv-x="1761" 
d="M182 1434h473h1125v-371h-1125v-266h1047v-41v-289v-41h-1047v-430h-479v1438h6z" />
    <glyph glyph-name="g" unicode="g" horiz-adv-x="2064" 
d="M1743 827h319v-827h-280l-10 221q-268 -264 -676 -264q-550 0 -779 229q-182 182 -182 529q0 203 61.5 349t185.5 235.5t299.5 131.5t414.5 42q553 0 780 -230q126 -126 166 -332h-533q-22 26 -30 33q-129 129 -383 129q-122 0 -218 -32t-151.5 -84.5t-84 -114
t-28.5 -127.5q0 -131 99 -230q132 -129 383 -129q272 0 403 152h-430v319h674z" />
    <glyph glyph-name="h" unicode="h" horiz-adv-x="2111" 
d="M1630 926v508h479v-1436h-24h-322h-133v508h-975v-508h-159h-320v1434v2h479v-508h975z" />
    <glyph glyph-name="i" unicode="i" horiz-adv-x="655" 
d="M176 -2v1436h481v-1436h-481z" />
    <glyph glyph-name="j" unicode="j" horiz-adv-x="1409" 
d="M1405 1432q2 -42 2 -46q1 -89 -0.5 -254.5t-1.5 -218.5q0 -158 -23.5 -287t-64.5 -223t-102.5 -165t-132.5 -116t-161 -73.5t-180 -39.5t-196 -11q-54 0 -183.5 1t-185.5 1v379h307v2q4 0 13.5 -1t13.5 -1q98 0 192 51q92 52 148 139t70 193q10 68 6 174v117h-203v379
h362h320z" />
    <glyph glyph-name="k" unicode="k" horiz-adv-x="1941" 
d="M1292 1434h670l-840 -707l840 -729h-694l-486 442l-125 -106v-336h-481v1436h481v-516z" />
    <glyph glyph-name="l" unicode="l" horiz-adv-x="1736" 
d="M657 1434v-1045h1100v-110v-271v-10h-1100h-161h-160h-160v1434v2h481z" />
    <glyph glyph-name="m" unicode="m" horiz-adv-x="2310" 
d="M1831 1434h481v-1436h-481v709l-467 -707h-119h-121l-467 707v-709h-479v1436h479h48l540 -854l539 854h47z" />
    <glyph glyph-name="n" unicode="n" horiz-adv-x="2033" 
d="M1714 1434h320v-1434v-2h-480v2h-90l-807 899v-901h-481v2v1434h572l806 -899v899h160z" />
    <glyph glyph-name="o" unicode="o" horiz-adv-x="2058" 
d="M1098 1473q551 0 778 -230q182 -182 182 -528q0 -203 -61.5 -348.5t-185 -235.5t-299 -132t-414.5 -42q-552 0 -781 229q-182 182 -182 529q0 203 62 349t186 235.5t300 131.5t415 42zM1098 356q122 0 217.5 32t151.5 85t84 114.5t28 127.5q0 131 -98 229
q-132 129 -383 129q-123 0 -219 -32t-152 -84.5t-84.5 -114t-28.5 -127.5q0 -132 101 -230q129 -129 383 -129z" />
    <glyph glyph-name="p" unicode="p" horiz-adv-x="1898" 
d="M1274 739q68 0 117 46t49 110t-49 111t-117 47h-619v-314h619zM1348 1432q155 0 286.5 -72t208 -195.5t76.5 -269.5q0 -145 -76.5 -269t-208 -196t-286.5 -72h-74h-619v-360h-479v360v381v314v379v2h479v-2h619h74z" />
    <glyph glyph-name="q" unicode="q" horiz-adv-x="2060" 
d="M2060 715q0 -517 -418 -676l267 -440h-520l-148 362q-90 -4 -143 -4q-550 0 -779 229q-184 184 -184 529q0 203 62 349t186 235.5t300 131.5t415 42q550 0 780 -230q182 -182 182 -528zM715 485q132 -129 383 -129q122 0 218 32t152 85t84.5 114.5t28.5 127.5
q0 129 -100 229q-132 129 -383 129q-122 0 -218 -32t-151.5 -84.5t-84 -114t-28.5 -127.5q0 -131 99 -230z" />
    <glyph glyph-name="r" unicode="r" horiz-adv-x="1918" 
d="M1919 895q0 -160 -92 -291.5t-242 -195.5l357 -410h-562l-264 360h-461v-360h-479v360v381v314v379v2h479v-2h617h76q155 0 286.5 -72t208 -195.5t76.5 -269.5zM655 1053v-314h617q69 0 118.5 46t49.5 110q0 65 -49.5 111.5t-118.5 46.5h-617z" />
    <glyph glyph-name="s" unicode="s" horiz-adv-x="2025" 
d="M1737 774q90 -46 148 -115t77.5 -143.5t10.5 -150t-46 -140.5q-66 -113 -205 -174q-203 -92 -628 -92q-305 0 -501.5 49.5t-303.5 153.5q-45 44 -73 87.5t-38.5 85.5t-13 65t-2.5 57v2v8v4h426v-4q0 -26 9 -46t30.5 -35t44.5 -25.5t62.5 -17t72.5 -10.5t87.5 -6
t94.5 -2.5t105 -0.5q418 0 461 66q10 15 -3 28q-35 47 -149 74q-121 32 -318 49h-22q-254 20 -390.5 39.5t-234.5 58.5q-86 35 -140 73t-91 93q-72 109 -72 199q0 137 73.5 239t211.5 154q196 76 659 76q455 0 658 -142q54 -38 92.5 -83t57 -80t28.5 -77.5t11 -62t1 -47.5
v-4h-426v4q0 127 -422 127q-450 0 -500 -65q-9 -13 -1 -23q0 -2 1.5 -5.5t12 -14.5t26.5 -21t50.5 -22.5t79.5 -22.5q128 -28 370 -45q244 -19 386.5 -43.5t232.5 -71.5z" />
    <glyph glyph-name="t" unicode="t" horiz-adv-x="2013" 
d="M137 1434h1878v-381h-700v-1055h-479v1055h-699v381z" />
    <glyph glyph-name="u" unicode="u" horiz-adv-x="1964" 
d="M1520 694v744h446v-744q-6 -388 -229.5 -562.5t-665.5 -174.5q-513 0 -723 229q-167 176 -170 508v744h445v-744q10 -121 92 -209q122 -129 356 -129q88 0 162 19.5t124.5 52.5t87 77t54.5 91.5t21 97.5z" />
    <glyph glyph-name="v" unicode="v" horiz-adv-x="2527" 
d="M1331 367l637 1067h559l-856 -1434h-680l-856 1434h559z" />
    <glyph glyph-name="w" unicode="w" horiz-adv-x="3457" 
d="M2380 367l518 1067h559l-737 -1434h-680l-244 860l-244 -860h-680l-737 1434h559l518 -1067l310 1067h274h275z" />
    <glyph glyph-name="x" unicode="x" horiz-adv-x="2248" 
d="M1610 1434h639l-756 -717l756 -717h-639l-416 416l-418 -416h-639l756 717l-756 717h639l418 -418z" />
    <glyph glyph-name="y" unicode="y" horiz-adv-x="2326" 
d="M1229 895l497 539h601l-857 -918v-518h-481v518l-856 918h600z" />
    <glyph glyph-name="z" unicode="z" horiz-adv-x="1865" 
d="M1864 1434v-381l-1055 -674h1055v-379h-1690v379l1055 674h-1055v381h1690z" />
    <glyph glyph-name="braceleft" unicode="{" horiz-adv-x="1548" 
d="M1245 1933q161 11 242 11l59 2v-408l-59 2q-131 4 -223 2q-109 -3 -207 -16q-102 -19 -160 -51q-28 -14 -55 -41t-43 -58l-6 -12l-2 -4q-1 -1 -2.5 -3t-2.5 -3q-4 -8 -4 -13h-2q-2 -4 -14 -41q-18 -51 -25 -92q-18 -88 -24 -209v-8q0 -12 -2 -18v-33q-3 -95 -72 -149
q-29 -22 -51 -29q24 -11 51 -31q69 -54 72 -149v-33q2 -6 2 -19v-8q6 -117 24 -209q7 -41 25 -92q12 -37 14 -41h2q0 -4 4 -12q1 -1 2.5 -3t2.5 -3l2 -4q1 -2 3 -6.5t3 -6.5q15 -29 43 -57q20 -20 55 -41q58 -32 160 -51q98 -13 207 -16q92 -2 223 2l59 2v-408l-59 2
q-164 5 -242 10q-153 13 -258 35q-20 4 -67 19q-22 5 -70 22q-12 4 -70 29q-34 18 -69 39q-75 48 -127 106q-53 59 -92 135q-14 28 -17 33l-4 10q-2 5 -6 14.5t-6 14.5q-2 6 -10 30.5t-13 41.5q-19 69 -28 137q-19 127 -19 262v6q2 8 2 25v24q-4 0 -8 2q-6 1 -20 2.5
t-19 2.5h-100h-70v55v256v55h68h102q6 1 20 2t19 2q4 2 8 2v25q0 16 -2 24v7q0 135 19 262q9 68 28 137v2q4 15 12 38t11 32q2 5 6 14t6 14l2 6l2 5q6 10 17 32q39 76 92 135q54 60 127 107q35 21 69 39q58 25 70 29v2q30 10 70 20v2q65 16 67 16q105 22 258 35z" />
    <glyph glyph-name="bar" unicode="|" horiz-adv-x="577" 
d="M258 -408v2337h320v-2337h-320z" />
    <glyph glyph-name="braceright" unicode="}" horiz-adv-x="1550" 
d="M1380 944h101h69v-55v-256v-55h-69h-101q-6 -1 -15 -2t-15.5 -1.5t-10.5 -1.5q-2 -2 -6 -2v-24v-25v-6q0 -134 -16 -262q-15 -88 -31 -137q-15 -55 -22 -72q-2 -5 -6.5 -14.5t-6.5 -14.5l-4 -10q-2 -5 -16 -33q-39 -76 -92 -135q-56 -62 -127 -106q-42 -26 -70 -39
q-37 -18 -70 -29q-52 -18 -67 -22h-2q-45 -14 -68 -19q-103 -22 -256 -35q-80 -5 -243 -10l-60 -2v408l60 -2q131 -4 223 -2q112 3 207 16q104 19 161 51q39 26 54 41q28 28 43 57q1 2 4 6.5t4 6.5l2 4q0 1 1 3t1 3l6 12q11 24 16 41q18 51 25 92q17 86 23 209l2 8v19v33
q3 96 71 149q23 17 54 31q-28 9 -54 29q-68 53 -71 149v33v18l-2 8q-6 127 -23 209q-7 41 -25 92q-5 17 -16 41q-1 2 -3 6.5t-3 6.5q0 1 -1 3t-1 3l-2 4q-1 2 -4 6t-4 6q-16 31 -43 58q-25 25 -54 41q-57 32 -161 51q-95 13 -207 16q-92 2 -223 -2l-60 -2v408l60 -2
q82 0 243 -11q153 -13 256 -35q8 -2 68 -16l2 -2q38 -10 67 -20v-2q33 -11 70 -29q28 -13 70 -39q69 -42 127 -107q53 -59 92 -135q2 -4 5.5 -10.5t6 -12t4.5 -9.5l2 -5l2 -6q2 -5 6.5 -14t6.5 -14q5 -12 22 -70v-2q16 -49 31 -137q16 -128 16 -262v-7v-24v-25q4 0 6 -2
q5 -1 19.5 -2t21.5 -2z" />
    <glyph glyph-name="asciitilde" unicode="~" horiz-adv-x="1986" 
d="M258 369q0 151 14.5 269.5t49 216.5t89 162t135 99t187.5 35q79 0 146.5 -23t116 -59.5t92 -80.5t82 -88t77.5 -80.5t88 -59.5t103 -23q72 0 113.5 37t62 127.5t20.5 249.5h353q0 -190 -24 -329.5t-78.5 -243.5t-147.5 -156.5t-226 -52.5q-79 0 -146.5 23t-116 59
t-91.5 80.5t-82 88.5t-77.5 80t-87.5 59t-103 23q-72 0 -113.5 -36.5t-62.5 -127t-21 -249.5h-352z" />
    <glyph glyph-name="exclamdown" unicode="&#xa1;" horiz-adv-x="628" 
d="M629 1434v-318h-453v318h453zM629 1016v-1016h-453v1016h453z" />
    <glyph glyph-name="dieresis" unicode="&#xa8;" horiz-adv-x="1497" 
d="M715 1358v356h-453v-356h453zM1497 1358v356h-453v-356h453z" />
    <glyph glyph-name="copyright" unicode="&#xa9;" horiz-adv-x="2985" 
d="M2636 1569q350 -264 350 -832t-350 -829q-333 -248 -1014 -248t-1014 248q-350 261 -350 829t350 832q330 246 1014 246t1014 -246zM2449 111q269 196 269 626q0 434 -269 627q-261 188 -827 188t-827 -188q-269 -193 -269 -627q0 -430 269 -626q263 -187 827 -187
t827 187zM1966 641h377q-29 -249 -207.5 -361t-511.5 -112q-414 0 -586 172q-137 137 -137 397q0 301 180.5 436.5t542.5 135.5q416 0 588 -172q111 -114 131 -301h-377q-16 36 -53 73q-99 99 -289 99q-92 0 -164 -24t-114 -64t-63 -86.5t-21 -96.5q0 -100 75 -172
q96 -96 287 -96q135 0 221 48t121 124z" />
    <glyph glyph-name="registered" unicode="&#xae;" horiz-adv-x="1941" 
d="M1724 1657q218 -162 218 -512q0 -352 -218 -514q-207 -154 -624 -154q-418 0 -625 154q-217 161 -217 514q0 351 217 512q206 153 625 153q418 0 624 -153zM1769 1145q0 261 -158.5 378t-510.5 117q-351 0 -506 -114q-164 -118 -164 -381q0 -261 159 -379.5t511 -118.5
q351 0 510 118.5t159 379.5zM1288 811l-121 168h-213v-168h-223v168v176v145v175v2h223v-2h285h35q109 0 186.5 -72.5t77.5 -175.5q0 -74 -42.5 -135t-111.5 -91l164 -190h-260zM954 1300v-145h285q32 0 55 21.5t23 50.5q0 31 -23 52t-55 21h-285z" />
    <glyph glyph-name="degree" unicode="&#xb0;" horiz-adv-x="1509" 
d="M1096 1100q0 81 -64 127q-65 47 -170 47q-103 0 -168 -47q-63 -45 -63 -127q0 -80 63 -125q65 -47 168 -47q105 0 170 47q64 46 64 125zM1264 629q-27 -18 -37 -23q-137 -76 -361 -76q-191 0 -323 60q-95 36 -168 106q-150 153 -150 404q0 253 150 403q167 164 487 164
q323 0 490 -164q147 -150 147 -403q0 -251 -147 -404q-42 -42 -88 -67z" />
    <glyph glyph-name="acute" unicode="&#xb4;" horiz-adv-x="1179" 
d="M1180 1796v-362l-918 -189v363z" />
    <glyph glyph-name="periodcentered" unicode="&#xb7;" horiz-adv-x="628" 
d="M176 811h453v-319h-453v319z" />
    <glyph glyph-name="questiondown" unicode="&#xbf;" horiz-adv-x="2011" 
d="M1417 1475v-318h-452v318h452zM469 80q-141 54 -217 158t-76 243q0 110 64 205q103 154 329 213q45 12 144.5 26.5t169.5 39.5q36 13 68 38.5t32 53.5h57h369q3 -70 -33 -137q-41 -77 -109.5 -130.5t-166.5 -101.5q-40 -19 -90 -34t-85.5 -23t-96.5 -20.5t-89 -18.5
q-87 -18 -116 -43q-23 -18 -23 -74q0 -17 27 -31q40 -24 125 -36q132 -21 391 -21q242 0 342 29q55 17 72.5 38.5t17.5 51.5v57h436v-57q0 -24 -1 -39.5t-5.5 -49.5t-17.5 -64t-33 -66.5t-55 -72.5t-82 -69q-209 -145 -674 -145q-469 0 -674 80z" />
    <glyph glyph-name="Agrave" unicode="&#xc0;" 
d="M1065 1434h680l856 -1434h-559l-131 217h-1014l-129 -217h-559zM1124 598h559l-278 469zM934 2146l917 -188v-363l-917 189v362z" />
    <glyph glyph-name="Aacute" unicode="&#xc1;" 
d="M1065 1434h680l856 -1434h-559l-131 217h-1014l-129 -217h-559zM1124 598h559l-278 469zM1851 2146l-917 -188v-363l917 189v362z" />
    <glyph glyph-name="Acircumflex" unicode="&#xc2;" 
d="M1065 1434h680l856 -1434h-559l-131 217h-1014l-129 -217h-559zM1124 598h559l-278 469zM1511 2101l353 -164v-346l-484 221l-485 -221v346l352 164h264z" />
    <glyph glyph-name="Atilde" unicode="&#xc3;" 
d="M1065 1434h680l856 -1434h-559l-131 217h-1014l-129 -217h-559zM1124 598h559l-278 469zM1708 2120h363v-60q0 -198 -115 -338q-126 -151 -322 -151q-53 0 -99 10.5t-86.5 33t-63 38.5t-58.5 45q-35 29 -51 40.5t-43 23.5t-53 12q-46 0 -87.5 -31t-41.5 -86v-66l-367 31
v55q0 211 110.5 337t295.5 126q53 0 99 -10.5t86.5 -33t63 -38.5t58.5 -45q49 -41 80 -58.5t65 -17.5q52 0 109 34.5t57 88.5v60z" />
    <glyph glyph-name="Adieresis" unicode="&#xc4;" 
d="M1065 1434h680l856 -1434h-559l-131 217h-1014l-129 -217h-559zM1124 598h559l-278 469zM2021 1591v357h-452v-357h452zM1239 1591v357h-453v-357h453z" />
    <glyph glyph-name="Aring" unicode="&#xc5;" 
d="M1065 1434h680l856 -1434h-559l-131 217h-1014l-129 -217h-559zM1124 598h559l-278 469zM1563 1974q0 54 -47 86.5t-125 32.5t-125 -32.5t-47 -86.5t46.5 -85t125.5 -31t125.5 31t46.5 85zM1751 2249q111 -99 111 -275q0 -173 -111 -272q-120 -111 -360 -111
q-243 0 -363 111q-110 101 -110 272q0 174 110 275q120 108 363 108q240 0 360 -108z" />
    <glyph glyph-name="AE" unicode="&#xc6;" horiz-adv-x="2969" 
d="M2970 1073h-1160v-178h1080v-41v-281v-38h-1080v-177h1160v-82v-276v-4h-1639v4v217h-508l-129 -217h-559l854 1434h342h320h159h1160v-361zM1331 596v471l-280 -471h280z" />
    <glyph glyph-name="Ccedilla" unicode="&#xc7;" horiz-adv-x="2052" 
d="M1098 348q179 0 293 64.5t161 165.5h502q-36 -308 -246.5 -458.5t-597.5 -168.5q-8 -55 -10 -80q22 -4 35 -8q34 -8 53 -17q16 -7 29 -16q20 -16 31 -27q16 -20 22 -32q12 -23 14 -37q7 -21 7 -35q2 -6 2 -16q0 -13 -2 -17q0 -5 -1 -14.5t-1 -13.5q-1 -4 -3.5 -12.5
t-3.5 -12.5q-5 -23 -18 -49q-23 -52 -57 -88q-13 -13 -41 -37q-16 -12 -47 -27q-45 -23 -99 -33q-24 -6 -47 -6l-6 -2h-8h-4h-2h-9h-12h-12q-7 0 -21.5 1t-21.5 1q-6 1 -19.5 2t-19.5 2l-78 7q-6 1 -19 2t-20 2l-39 2l86 295q5 0 9 -4q1 0 6 -5q8 -3 16 -8q5 -2 15.5 -7
t15.5 -7q26 -13 61 -27q5 -2 15.5 -6t15.5 -6q6 -1 16.5 -4t12.5 -4l6 -2l6 -2h2h2l2 -2q17 0 25 -2q4 0 10.5 1t9.5 1q9 0 21 4q3 1 8 3t8 3q2 1 7 4t7 4q2 2 6.5 6t6.5 6q2 3 6 8.5t6 8.5q4 6 8 18q1 2 2 5t2 5v5l-8 4q-4 1 -13 2t-14 2l-37 4q-4 0 -24 4q-7 0 -19 4
q-17 5 -24 10l-8 4q-1 1 -4 3t-4 3l-11 11q-4 0 -4 4l-6 6q-1 1 -2 3t-2 3q-4 4 -4 8q-4 4 -8 17q-4 12 -4 16q0 2 -1 4.5t-1 3.5v8v5v2v4l-3 10q-3 57 -16 125q-464 22 -666 227q-182 182 -182 529q0 203 61.5 348.5t185.5 235.5t299.5 131.5t414.5 41.5q554 0 780 -229
q147 -147 176 -397h-502q-23 50 -71 98q-129 129 -383 129q-122 0 -218 -32t-151.5 -84.5t-84 -114t-28.5 -127.5q0 -131 99 -230q132 -129 383 -129zM1147 -121q4 0 6 -2q-4 2 -6 2zM1210 -322z" />
    <glyph glyph-name="Egrave" unicode="&#xc8;" horiz-adv-x="1794" 
d="M496 1434h159h1160v-361h-1160v-178h1080v-39v-281v-40h-1080v-175h1160v-84v-276v-4h-1639v4v1434h320zM551 2146l917 -188v-363l-917 189v362z" />
    <glyph glyph-name="Eacute" unicode="&#xc9;" horiz-adv-x="1794" 
d="M496 1434h159h1160v-361h-1160v-178h1080v-39v-281v-40h-1080v-175h1160v-84v-276v-4h-1639v4v1434h320zM1493 2146l-918 -188v-363l918 189v362z" />
    <glyph glyph-name="Ecircumflex" unicode="&#xca;" horiz-adv-x="1794" 
d="M496 1434h159h1160v-361h-1160v-178h1080v-39v-281v-40h-1080v-175h1160v-84v-276v-4h-1639v4v1434h320zM1128 2101l353 -164v-346l-484 221l-485 -221v346l352 164h264z" />
    <glyph glyph-name="Edieresis" unicode="&#xcb;" horiz-adv-x="1794" 
d="M496 1434h159h1160v-361h-1160v-178h1080v-39v-281v-40h-1080v-175h1160v-84v-276v-4h-1639v4v1434h320zM1620 1591v357h-453v-357h453zM838 1591v357h-453v-357h453z" />
    <glyph glyph-name="Igrave" unicode="&#xcc;" horiz-adv-x="655" 
d="M-41 -2v1436h481v-1436h-481zM-258 2146l917 -188v-363l-917 189v362z" />
    <glyph glyph-name="Iacute" unicode="&#xcd;" horiz-adv-x="655" 
d="M-33 -2v1436h482v-1436h-482zM676 2146l-918 -188v-363l918 189v362z" />
    <glyph glyph-name="Icircumflex" unicode="&#xce;" horiz-adv-x="655" 
d="M-61 -2v1436h481v-1436h-481zM317 2101l353 -164v-346l-484 221l-485 -221v346l352 164h264z" />
    <glyph glyph-name="Idieresis" unicode="&#xcf;" horiz-adv-x="655" 
d="M655 1591v357h-452v-357h452zM-127 1591v357h-453v-357h453zM-203 -2v1436h482v-1436h-482z" />
    <glyph glyph-name="Eth" unicode="&#xd0;" horiz-adv-x="2224" 
d="M2234 717q0 -192 -59 -329.5t-177 -223t-285.5 -125.5t-395.5 -41h-10h-908v2v377v198h-4h-219v281h219h4v578h480h428q447 0 677 -155.5t250 -502.5v-18v-8v-13v-20zM1317 377q111 6 198 38t137.5 80.5t76.5 105t26 116.5q0 126 -98 217q-120 110 -340 121h-438v-199
h438v-281h-438v-198h438z" />
    <glyph glyph-name="Ntilde" unicode="&#xd1;" horiz-adv-x="2033" 
d="M1714 1434h320v-1434v-2h-480v2h-90l-807 899v-901h-481v2v1434h572l806 -899v899h160zM1430 2120h362v-60q0 -198 -115 -338q-126 -151 -321 -151q-53 0 -99 10.5t-86.5 33t-63 38.5t-58.5 45q-35 28 -51.5 40.5t-43.5 24t-53 11.5q-46 0 -87.5 -31t-41.5 -86v-66
l-366 31v55q0 211 110.5 337t294.5 126q53 0 99 -10.5t86.5 -33t63 -38.5t58.5 -45q49 -40 80.5 -58t65.5 -18q52 0 109 34.5t57 88.5v60z" />
    <glyph glyph-name="Ograve" unicode="&#xd2;" horiz-adv-x="2058" 
d="M1098 1473q551 0 778 -230q182 -182 182 -528q0 -203 -61.5 -348.5t-185 -235.5t-299 -132t-414.5 -42q-552 0 -781 229q-182 182 -182 529q0 203 62 349t186 235.5t300 131.5t415 42zM1098 356q122 0 217.5 32t151.5 85t84 114.5t28 127.5q0 131 -98 229
q-132 129 -383 129q-123 0 -219 -32t-152 -84.5t-84.5 -114t-28.5 -127.5q0 -132 101 -230q129 -129 383 -129zM625 2146l917 -188v-363l-917 189v362z" />
    <glyph glyph-name="Oacute" unicode="&#xd3;" horiz-adv-x="2058" 
d="M1098 1473q551 0 778 -230q182 -182 182 -528q0 -203 -61.5 -348.5t-185 -235.5t-299 -132t-414.5 -42q-552 0 -781 229q-182 182 -182 529q0 203 62 349t186 235.5t300 131.5t415 42zM1098 356q122 0 217.5 32t151.5 85t84 114.5t28 127.5q0 131 -98 229
q-132 129 -383 129q-123 0 -219 -32t-152 -84.5t-84.5 -114t-28.5 -127.5q0 -132 101 -230q129 -129 383 -129zM1554 2146l-917 -188v-363l917 189v362z" />
    <glyph glyph-name="Ocircumflex" unicode="&#xd4;" horiz-adv-x="2058" 
d="M1098 1473q551 0 778 -230q182 -182 182 -528q0 -203 -61.5 -348.5t-185 -235.5t-299 -132t-414.5 -42q-552 0 -781 229q-182 182 -182 529q0 203 62 349t186 235.5t300 131.5t415 42zM1098 356q122 0 217.5 32t151.5 85t84 114.5t28 127.5q0 131 -98 229
q-132 129 -383 129q-123 0 -219 -32t-152 -84.5t-84.5 -114t-28.5 -127.5q0 -132 101 -230q129 -129 383 -129zM1225 2089l352 -164v-346l-483 221l-486 -221v346l353 164h264z" />
    <glyph glyph-name="Otilde" unicode="&#xd5;" horiz-adv-x="2058" 
d="M1098 1473q551 0 778 -230q182 -182 182 -528q0 -203 -61.5 -348.5t-185 -235.5t-299 -132t-414.5 -42q-552 0 -781 229q-182 182 -182 529q0 203 62 349t186 235.5t300 131.5t415 42zM1098 356q122 0 217.5 32t151.5 85t84 114.5t28 127.5q0 131 -98 229
q-132 129 -383 129q-123 0 -219 -32t-152 -84.5t-84.5 -114t-28.5 -127.5q0 -132 101 -230q129 -129 383 -129zM1438 2120h362v-60q0 -199 -114 -338q-126 -151 -322 -151q-53 0 -99 10.5t-86.5 33t-63 38.5t-58.5 45q-35 28 -51.5 40.5t-43.5 24t-53 11.5q-46 0 -87.5 -31
t-41.5 -86v-66l-366 31v55q0 211 110.5 337t294.5 126q53 0 99 -10.5t86.5 -33t63 -38.5t58.5 -45q49 -40 80.5 -58t65.5 -18q52 0 109 34.5t57 88.5v60z" />
    <glyph glyph-name="Odieresis" unicode="&#xd6;" horiz-adv-x="2058" 
d="M1098 1473q551 0 778 -230q182 -182 182 -528q0 -203 -61.5 -348.5t-185 -235.5t-299 -132t-414.5 -42q-552 0 -781 229q-182 182 -182 529q0 203 62 349t186 235.5t300 131.5t415 42zM1098 356q122 0 217.5 32t151.5 85t84 114.5t28 127.5q0 131 -98 229
q-132 129 -383 129q-123 0 -219 -32t-152 -84.5t-84.5 -114t-28.5 -127.5q0 -132 101 -230q129 -129 383 -129zM934 1591v357h-453v-357h453zM1716 1591v357h-452v-357h452z" />
    <glyph glyph-name="multiply" unicode="&#xd7;" horiz-adv-x="1923" 
d="M1923 1030l-522 -303l522 -305l-156 -270l-677 395l-676 -395l-156 270l522 305l-522 303l156 270l676 -395l677 395z" />
    <glyph glyph-name="Oslash" unicode="&#xd8;" horiz-adv-x="2058" 
d="M1876 1257q182 -182 182 -528q0 -203 -61.5 -348.5t-185 -235.5t-299 -132t-414.5 -42q-173 0 -314 21l-155 -240h-320l203 318q-113 49 -195 131q-182 182 -182 528q0 203 62 349t186 235.5t300 131.5t415 42q170 0 311 -21l156 240h319l-203 -317q111 -48 195 -132z
M715 500q25 -25 49 -41l401 626q-11 0 -33 1t-34 1q-123 0 -219 -32t-152 -84.5t-84.5 -114t-28.5 -127.5q0 -131 101 -229zM1098 371q122 0 217.5 32t151.5 84.5t84 114t28 127.5q0 131 -98 229q-34 29 -51 41l-402 -626q23 -2 70 -2z" />
    <glyph glyph-name="Ugrave" unicode="&#xd9;" horiz-adv-x="1964" 
d="M1520 694v744h446v-744q-6 -388 -229.5 -562.5t-665.5 -174.5q-513 0 -723 229q-167 176 -170 508v744h445v-744q10 -121 92 -209q122 -129 356 -129q88 0 162 19.5t124.5 52.5t87 77t54.5 91.5t21 97.5zM600 2146l918 -188v-363l-918 189v362z" />
    <glyph glyph-name="Uacute" unicode="&#xda;" horiz-adv-x="1964" 
d="M1520 694v744h446v-744q-6 -388 -229.5 -562.5t-665.5 -174.5q-513 0 -723 229q-167 176 -170 508v744h445v-744q10 -121 92 -209q122 -129 356 -129q88 0 162 19.5t124.5 52.5t87 77t54.5 91.5t21 97.5zM1520 2146l-918 -188v-363l918 189v362z" />
    <glyph glyph-name="Ucircumflex" unicode="&#xdb;" horiz-adv-x="1964" 
d="M1520 694v744h446v-744q-6 -388 -229.5 -562.5t-665.5 -174.5q-513 0 -723 229q-167 176 -170 508v744h445v-744q10 -121 92 -209q122 -129 356 -129q88 0 162 19.5t124.5 52.5t87 77t54.5 91.5t21 97.5zM1188 2089l352 -164v-346l-483 221l-486 -221v346l353 164h264z
" />
    <glyph glyph-name="Udieresis" unicode="&#xdc;" horiz-adv-x="1964" 
d="M1520 694v744h446v-744q-6 -388 -229.5 -562.5t-665.5 -174.5q-513 0 -723 229q-167 176 -170 508v744h445v-744q10 -121 92 -209q122 -129 356 -129q88 0 162 19.5t124.5 52.5t87 77t54.5 91.5t21 97.5zM901 1591v357h-452v-357h452zM1683 1591v357h-452v-357h452z" />
    <glyph glyph-name="Yacute" unicode="&#xdd;" horiz-adv-x="2326" 
d="M1229 895l497 539h601l-857 -918v-518h-481v518l-856 918h600zM1677 2146l-917 -188v-363l917 189v362z" />
    <glyph glyph-name="agrave" unicode="&#xe0;" 
d="M1065 1434h680l856 -1434h-559l-131 217h-1014l-129 -217h-559zM1124 598h559l-278 469zM934 2146l917 -188v-363l-917 189v362z" />
    <glyph glyph-name="aacute" unicode="&#xe1;" 
d="M1065 1434h680l856 -1434h-559l-131 217h-1014l-129 -217h-559zM1124 598h559l-278 469zM1851 2146l-917 -188v-363l917 189v362z" />
    <glyph glyph-name="acircumflex" unicode="&#xe2;" 
d="M1065 1434h680l856 -1434h-559l-131 217h-1014l-129 -217h-559zM1124 598h559l-278 469zM1511 2101l353 -164v-346l-484 221l-485 -221v346l352 164h264z" />
    <glyph glyph-name="atilde" unicode="&#xe3;" 
d="M1065 1434h680l856 -1434h-559l-131 217h-1014l-129 -217h-559zM1124 598h559l-278 469zM1708 2120h363v-60q0 -198 -115 -338q-126 -151 -322 -151q-53 0 -99 10.5t-86.5 33t-63 38.5t-58.5 45q-35 29 -51 40.5t-43 23.5t-53 12q-46 0 -87.5 -31t-41.5 -86v-66l-367 31
v55q0 211 110.5 337t295.5 126q53 0 99 -10.5t86.5 -33t63 -38.5t58.5 -45q49 -41 80 -58.5t65 -17.5q52 0 109 34.5t57 88.5v60z" />
    <glyph glyph-name="adieresis" unicode="&#xe4;" 
d="M1065 1434h680l856 -1434h-559l-131 217h-1014l-129 -217h-559zM1124 598h559l-278 469zM2021 1591v357h-452v-357h452zM1239 1591v357h-453v-357h453z" />
    <glyph glyph-name="aring" unicode="&#xe5;" 
d="M1065 1434h680l856 -1434h-559l-131 217h-1014l-129 -217h-559zM1124 598h559l-278 469zM1563 1974q0 54 -47 86.5t-125 32.5t-125 -32.5t-47 -86.5t46.5 -85t125.5 -31t125.5 31t46.5 85zM1751 2249q111 -99 111 -275q0 -173 -111 -272q-120 -111 -360 -111
q-243 0 -363 111q-110 101 -110 272q0 174 110 275q120 108 363 108q240 0 360 -108z" />
    <glyph glyph-name="ae" unicode="&#xe6;" horiz-adv-x="2969" 
d="M2970 1073h-1160v-178h1080v-41v-281v-38h-1080v-177h1160v-82v-276v-4h-1639v4v217h-508l-129 -217h-559l854 1434h342h320h159h1160v-361zM1331 596v471l-280 -471h280z" />
    <glyph glyph-name="ccedilla" unicode="&#xe7;" horiz-adv-x="2052" 
d="M1098 348q179 0 293 64.5t161 165.5h502q-36 -308 -246.5 -458.5t-597.5 -168.5q-8 -55 -10 -80q22 -4 35 -8q34 -8 53 -17q16 -7 29 -16q20 -16 31 -27q16 -20 22 -32q12 -23 14 -37q7 -21 7 -35q2 -6 2 -16q0 -13 -2 -17q0 -5 -1 -14.5t-1 -13.5q-1 -4 -3.5 -12.5
t-3.5 -12.5q-5 -23 -18 -49q-23 -52 -57 -88q-13 -13 -41 -37q-16 -12 -47 -27q-45 -23 -99 -33q-24 -6 -47 -6l-6 -2h-8h-4h-2h-9h-12h-12q-7 0 -21.5 1t-21.5 1q-6 1 -19.5 2t-19.5 2l-78 7q-6 1 -19 2t-20 2l-39 2l86 295q5 0 9 -4q1 0 6 -5q8 -3 16 -8q5 -2 15.5 -7
t15.5 -7q26 -13 61 -27q5 -2 15.5 -6t15.5 -6q6 -1 16.5 -4t12.5 -4l6 -2l6 -2h2h2l2 -2q17 0 25 -2q4 0 10.5 1t9.5 1q9 0 21 4q3 1 8 3t8 3q2 1 7 4t7 4q2 2 6.5 6t6.5 6q2 3 6 8.5t6 8.5q4 6 8 18q1 2 2 5t2 5v5l-8 4q-4 1 -13 2t-14 2l-37 4q-4 0 -24 4q-7 0 -19 4
q-17 5 -24 10l-8 4q-1 1 -4 3t-4 3l-11 11q-4 0 -4 4l-6 6q-1 1 -2 3t-2 3q-4 4 -4 8q-4 4 -8 17q-4 12 -4 16q0 2 -1 4.5t-1 3.5v8v5v2v4l-3 10q-3 57 -16 125q-464 22 -666 227q-182 182 -182 529q0 203 61.5 348.5t185.5 235.5t299.5 131.5t414.5 41.5q554 0 780 -229
q147 -147 176 -397h-502q-23 50 -71 98q-129 129 -383 129q-122 0 -218 -32t-151.5 -84.5t-84 -114t-28.5 -127.5q0 -131 99 -230q132 -129 383 -129zM1147 -121q4 0 6 -2q-4 2 -6 2zM1210 -322z" />
    <glyph glyph-name="egrave" unicode="&#xe8;" horiz-adv-x="1794" 
d="M496 1434h159h1160v-361h-1160v-178h1080v-39v-281v-40h-1080v-175h1160v-84v-276v-4h-1639v4v1434h320zM551 2146l917 -188v-363l-917 189v362z" />
    <glyph glyph-name="eacute" unicode="&#xe9;" horiz-adv-x="1794" 
d="M496 1434h159h1160v-361h-1160v-178h1080v-39v-281v-40h-1080v-175h1160v-84v-276v-4h-1639v4v1434h320zM1493 2146l-918 -188v-363l918 189v362z" />
    <glyph glyph-name="ecircumflex" unicode="&#xea;" horiz-adv-x="1794" 
d="M496 1434h159h1160v-361h-1160v-178h1080v-39v-281v-40h-1080v-175h1160v-84v-276v-4h-1639v4v1434h320zM1128 2101l353 -164v-346l-484 221l-485 -221v346l352 164h264z" />
    <glyph glyph-name="edieresis" unicode="&#xeb;" horiz-adv-x="1794" 
d="M496 1434h159h1160v-361h-1160v-178h1080v-39v-281v-40h-1080v-175h1160v-84v-276v-4h-1639v4v1434h320zM1620 1591v357h-453v-357h453zM838 1591v357h-453v-357h453z" />
    <glyph glyph-name="igrave" unicode="&#xec;" horiz-adv-x="655" 
d="M-41 -2v1436h481v-1436h-481zM-258 2146l917 -188v-363l-917 189v362z" />
    <glyph glyph-name="iacute" unicode="&#xed;" horiz-adv-x="655" 
d="M-33 -2v1436h482v-1436h-482zM676 2146l-918 -188v-363l918 189v362z" />
    <glyph glyph-name="icircumflex" unicode="&#xee;" horiz-adv-x="655" 
d="M-61 -2v1436h481v-1436h-481zM317 2101l353 -164v-346l-484 221l-485 -221v346l352 164h264z" />
    <glyph glyph-name="idieresis" unicode="&#xef;" horiz-adv-x="655" 
d="M655 1591v357h-452v-357h452zM-127 1591v357h-453v-357h453zM-203 -2v1436h482v-1436h-482z" />
    <glyph glyph-name="ntilde" unicode="&#xf1;" horiz-adv-x="2033" 
d="M1714 1434h320v-1434v-2h-480v2h-90l-807 899v-901h-481v2v1434h572l806 -899v899h160zM1430 2120h362v-60q0 -198 -115 -338q-126 -151 -321 -151q-53 0 -99 10.5t-86.5 33t-63 38.5t-58.5 45q-35 28 -51.5 40.5t-43.5 24t-53 11.5q-46 0 -87.5 -31t-41.5 -86v-66
l-366 31v55q0 211 110.5 337t294.5 126q53 0 99 -10.5t86.5 -33t63 -38.5t58.5 -45q49 -40 80.5 -58t65.5 -18q52 0 109 34.5t57 88.5v60z" />
    <glyph glyph-name="ograve" unicode="&#xf2;" horiz-adv-x="2058" 
d="M1098 1473q551 0 778 -230q182 -182 182 -528q0 -203 -61.5 -348.5t-185 -235.5t-299 -132t-414.5 -42q-552 0 -781 229q-182 182 -182 529q0 203 62 349t186 235.5t300 131.5t415 42zM1098 356q122 0 217.5 32t151.5 85t84 114.5t28 127.5q0 131 -98 229
q-132 129 -383 129q-123 0 -219 -32t-152 -84.5t-84.5 -114t-28.5 -127.5q0 -132 101 -230q129 -129 383 -129zM625 2146l917 -188v-363l-917 189v362z" />
    <glyph glyph-name="oacute" unicode="&#xf3;" horiz-adv-x="2058" 
d="M1098 1473q551 0 778 -230q182 -182 182 -528q0 -203 -61.5 -348.5t-185 -235.5t-299 -132t-414.5 -42q-552 0 -781 229q-182 182 -182 529q0 203 62 349t186 235.5t300 131.5t415 42zM1098 356q122 0 217.5 32t151.5 85t84 114.5t28 127.5q0 131 -98 229
q-132 129 -383 129q-123 0 -219 -32t-152 -84.5t-84.5 -114t-28.5 -127.5q0 -132 101 -230q129 -129 383 -129zM1554 2146l-917 -188v-363l917 189v362z" />
    <glyph glyph-name="ocircumflex" unicode="&#xf4;" horiz-adv-x="2058" 
d="M1098 1473q551 0 778 -230q182 -182 182 -528q0 -203 -61.5 -348.5t-185 -235.5t-299 -132t-414.5 -42q-552 0 -781 229q-182 182 -182 529q0 203 62 349t186 235.5t300 131.5t415 42zM1098 356q122 0 217.5 32t151.5 85t84 114.5t28 127.5q0 131 -98 229
q-132 129 -383 129q-123 0 -219 -32t-152 -84.5t-84.5 -114t-28.5 -127.5q0 -132 101 -230q129 -129 383 -129zM1225 2089l352 -164v-346l-483 221l-486 -221v346l353 164h264z" />
    <glyph glyph-name="otilde" unicode="&#xf5;" horiz-adv-x="2058" 
d="M1098 1473q551 0 778 -230q182 -182 182 -528q0 -203 -61.5 -348.5t-185 -235.5t-299 -132t-414.5 -42q-552 0 -781 229q-182 182 -182 529q0 203 62 349t186 235.5t300 131.5t415 42zM1098 356q122 0 217.5 32t151.5 85t84 114.5t28 127.5q0 131 -98 229
q-132 129 -383 129q-123 0 -219 -32t-152 -84.5t-84.5 -114t-28.5 -127.5q0 -132 101 -230q129 -129 383 -129zM1438 2120h362v-60q0 -199 -114 -338q-126 -151 -322 -151q-53 0 -99 10.5t-86.5 33t-63 38.5t-58.5 45q-35 28 -51.5 40.5t-43.5 24t-53 11.5q-46 0 -87.5 -31
t-41.5 -86v-66l-366 31v55q0 211 110.5 337t294.5 126q53 0 99 -10.5t86.5 -33t63 -38.5t58.5 -45q49 -40 80.5 -58t65.5 -18q52 0 109 34.5t57 88.5v60z" />
    <glyph glyph-name="odieresis" unicode="&#xf6;" horiz-adv-x="2058" 
d="M1098 1473q551 0 778 -230q182 -182 182 -528q0 -203 -61.5 -348.5t-185 -235.5t-299 -132t-414.5 -42q-552 0 -781 229q-182 182 -182 529q0 203 62 349t186 235.5t300 131.5t415 42zM1098 356q122 0 217.5 32t151.5 85t84 114.5t28 127.5q0 131 -98 229
q-132 129 -383 129q-123 0 -219 -32t-152 -84.5t-84.5 -114t-28.5 -127.5q0 -132 101 -230q129 -129 383 -129zM934 1591v357h-453v-357h453zM1716 1591v357h-452v-357h452z" />
    <glyph glyph-name="divide" unicode="&#xf7;" horiz-adv-x="1896" 
d="M901 1298h350v-274h-350v274zM258 842h1638v-291h-1638v291zM901 369h350v-275h-350v275z" />
    <glyph glyph-name="oslash" unicode="&#xf8;" horiz-adv-x="2058" 
d="M1876 1257q182 -182 182 -528q0 -203 -61.5 -348.5t-185 -235.5t-299 -132t-414.5 -42q-173 0 -314 21l-155 -240h-320l203 318q-113 49 -195 131q-182 182 -182 528q0 203 62 349t186 235.5t300 131.5t415 42q170 0 311 -21l156 240h319l-203 -317q111 -48 195 -132z
M715 500q25 -25 49 -41l401 626q-11 0 -33 1t-34 1q-123 0 -219 -32t-152 -84.5t-84.5 -114t-28.5 -127.5q0 -131 101 -229zM1098 371q122 0 217.5 32t151.5 84.5t84 114t28 127.5q0 131 -98 229q-34 29 -51 41l-402 -626q23 -2 70 -2z" />
    <glyph glyph-name="ugrave" unicode="&#xf9;" horiz-adv-x="1964" 
d="M1520 694v744h446v-744q-6 -388 -229.5 -562.5t-665.5 -174.5q-513 0 -723 229q-167 176 -170 508v744h445v-744q10 -121 92 -209q122 -129 356 -129q88 0 162 19.5t124.5 52.5t87 77t54.5 91.5t21 97.5zM600 2146l918 -188v-363l-918 189v362z" />
    <glyph glyph-name="uacute" unicode="&#xfa;" horiz-adv-x="1964" 
d="M1520 694v744h446v-744q-6 -388 -229.5 -562.5t-665.5 -174.5q-513 0 -723 229q-167 176 -170 508v744h445v-744q10 -121 92 -209q122 -129 356 -129q88 0 162 19.5t124.5 52.5t87 77t54.5 91.5t21 97.5zM1520 2146l-918 -188v-363l918 189v362z" />
    <glyph glyph-name="ucircumflex" unicode="&#xfb;" horiz-adv-x="1964" 
d="M1520 694v744h446v-744q-6 -388 -229.5 -562.5t-665.5 -174.5q-513 0 -723 229q-167 176 -170 508v744h445v-744q10 -121 92 -209q122 -129 356 -129q88 0 162 19.5t124.5 52.5t87 77t54.5 91.5t21 97.5zM1188 2089l352 -164v-346l-483 221l-486 -221v346l353 164h264z
" />
    <glyph glyph-name="udieresis" unicode="&#xfc;" horiz-adv-x="1964" 
d="M1520 694v744h446v-744q-6 -388 -229.5 -562.5t-665.5 -174.5q-513 0 -723 229q-167 176 -170 508v744h445v-744q10 -121 92 -209q122 -129 356 -129q88 0 162 19.5t124.5 52.5t87 77t54.5 91.5t21 97.5zM901 1591v357h-452v-357h452zM1683 1591v357h-452v-357h452z" />
    <glyph glyph-name="yacute" unicode="&#xfd;" horiz-adv-x="2326" 
d="M1229 895l497 539h601l-857 -918v-518h-481v518l-856 918h600zM1677 2146l-917 -188v-363l917 189v362z" />
    <glyph glyph-name="ydieresis" unicode="&#xff;" horiz-adv-x="2326" 
d="M1229 895l497 539h601l-857 -918v-518h-481v518l-856 918h600zM1030 1591v357h-452v-357h452zM1812 1591v357h-452v-357h452z" />
    <glyph glyph-name="quoteleft" unicode="&#x2018;" horiz-adv-x="649" 
d="M586 1479l-148 -373h191v-320h-453v320l193 373h217z" />
    <glyph glyph-name="quoteright" unicode="&#x2019;" horiz-adv-x="651" 
d="M219 786l148 373h-191v320h453v-320l-193 -373h-217z" />
    <glyph glyph-name="quotesinglbase" unicode="&#x201a;" horiz-adv-x="628" 
d="M219 -403l148 372h-191v320h453v-320l-193 -372h-217z" />
    <glyph glyph-name="quotedblleft" unicode="&#x201c;" horiz-adv-x="1325" 
d="M1307 1479l-148 -373h191v-320h-453v320l193 373h217zM676 1479l-148 -373h191v-320h-453v320l193 373h217z" />
    <glyph glyph-name="quotedblright" unicode="&#x201d;" horiz-adv-x="1325" 
d="M260 786l148 373h-191v320h453v-320l-193 -373h-217zM891 786l147 373h-190v320h452v-320l-192 -373h-217z" />
    <glyph glyph-name="quotedblbase" unicode="&#x201e;" horiz-adv-x="1259" 
d="M219 -373l148 373h-191v319h453v-319l-193 -373h-217zM850 -373l147 373h-190v319h453v-319l-193 -373h-217z" />
    <glyph glyph-name="bullet" unicode="&#x2022;" horiz-adv-x="823" 
d="M500 426q-166 0 -245 55.5t-79 175.5q0 118 79 174t245 56q165 0 244 -56t79 -174q0 -119 -79 -175t-244 -56z" />
    <glyph glyph-name="ellipsis" unicode="&#x2026;" horiz-adv-x="1538" 
d="M176 274h350v-274h-350v274zM682 274h350v-274h-350v274zM1188 274h350v-274h-350v274z" />
    <glyph glyph-name="fraction" unicode="&#x2044;" horiz-adv-x="1067" 
d="M1065 1475l-533 -1782h-360l533 1782h360z" />
    <glyph glyph-name="trademark" unicode="&#x2122;" horiz-adv-x="2328" 
d="M262 1638h909v-184h-337v-512h-234v512h-338v184zM2097 1638h232v-696h-232v344l-227 -344h-58h-59l-225 344v-344h-234v696h234h22l262 -413l261 413h24z" />
    <glyph glyph-name="minus" unicode="&#x2212;" horiz-adv-x="1861" 
d="M883 915h356h623v-395h-623h-356h-623v395h623z" />
    </font>
</defs>
</svg>
